<svg xmlns="http://www.w3.org/2000/svg" width="303.792" height="216.023" viewBox="0 0 303.792 216.023">
  <g id="Group_10730" data-name="Group 10730" transform="translate(-2141.769 -1389.345)">
    <g id="Vehicle_Sale-pana" data-name="Vehicle Sale-pana" transform="translate(2116.087 1389.345)">
      <g id="freepik--background-complete--inject-152" transform="translate(56.111 0)">
        <path id="Path_11658" data-name="Path 11658" d="M73.021,185.215c15.66-7.879,21.558-25.861,23.392-42.517.306-2.781,1.027-5.654.061-8.276s-3.8-4.719-6.442-3.912c-2.194.666-3.435,2.928-4.89,4.743a16.344,16.344,0,0,1-7.384,5.257c-1.895.66-4.156.9-5.758-.306-2.207-1.638-1.986-5-1.6-7.75l2.323-15.378a25.765,25.765,0,0,0,.348-8.294c-.483-2.738-2.017-5.434-4.529-6.546s-5.972-.073-6.913,2.543a26.4,26.4,0,0,0-.575,3.417,2.934,2.934,0,0,1-2.084,2.482c-1.131.165-2.133-.776-2.842-1.7C53.688,105.786,52.282,101.923,51,98.1s-2.512-7.72-4.651-11.118-5.33-6.326-9.242-7.1-8.459,1.033-10.018,4.755.134,8,2.145,11.5a62.26,62.26,0,0,0,11,14.058,5.262,5.262,0,0,1,1.834,2.61c.336,1.919-1.669,3.49-3.57,3.832-2.152.385-4.346-.147-6.528-.208s-4.645.556-5.752,2.445c-1.534,2.647.4,5.935,2.445,8.2a53.134,53.134,0,0,0,14.278,11.246c1.913,1.033,3.955,1.986,5.379,3.667s2.054,4.279.788,6.069-3.887,2.054-5.953,1.351-3.8-2.121-5.709-3.178c-3.576-1.974-8.5-2.445-11.393.5a8.81,8.81,0,0,0-2.041,7.567,20.367,20.367,0,0,0,3.191,7.408,53.458,53.458,0,0,0,20.3,19.144c8.337,4.309,16.344,6.314,25.525,4.382" transform="translate(-23.876 -79.713)" fill="#f5f5f5"/>
        <path id="Path_11659" data-name="Path 11659" d="M75.177,175.311a248.523,248.523,0,0,0-5.953-27.963q-.978-3.667-1.938-7.255c-.611-2.378-1.271-4.737-2.041-7A122.733,122.733,0,0,0,60.11,120.3c-1.834-3.985-3.716-7.7-5.5-11.167s-3.527-6.65-5.232-9.5A98.869,98.869,0,0,0,40.35,86.83c-1.186-1.424-2.133-2.494-2.787-3.215l-.733-.782a1.761,1.761,0,0,0-.269-.263,2.811,2.811,0,0,0,.226.3l.715.843c.611.74,1.553,1.834,2.714,3.276a104.587,104.587,0,0,1,8.838,12.836c1.681,2.848,3.392,6.045,5.165,9.511s3.667,7.188,5.452,11.167a127.056,127.056,0,0,1,5.092,12.75c.795,2.255,1.406,4.59,2.017,6.98s1.284,4.8,1.931,7.243a254.881,254.881,0,0,1,6.014,27.908" transform="translate(-28.807 -80.824)" fill="#e0e0e0"/>
        <path id="Path_11660" data-name="Path 11660" d="M83.26,146.259a5.165,5.165,0,0,0,.452-1.131c.257-.74.611-1.834.978-3.166.788-2.683,1.742-6.43,2.787-10.562s2.048-7.854,2.873-10.519c.41-1.332.746-2.408,1-3.148a5.954,5.954,0,0,0,.324-1.174,5.7,5.7,0,0,0-.513,1.1c-.306.721-.7,1.785-1.149,3.111-.917,2.647-1.986,6.363-3.056,10.5s-1.919,7.775-2.628,10.617l-.819,3.2a6.282,6.282,0,0,0-.244,1.167Z" transform="translate(-46.963 -94.039)" fill="#e0e0e0"/>
        <path id="Path_11661" data-name="Path 11661" d="M26.93,146a7.646,7.646,0,0,0,1.387.373c.892.214,2.194.513,3.783.935,3.191.819,7.561,2.1,12.316,3.735s9,3.3,12.029,4.59c1.522.611,2.738,1.186,3.582,1.559a7.721,7.721,0,0,0,1.332.538,7.59,7.59,0,0,0-1.222-.721c-.819-.428-2.011-1.027-3.521-1.711-3-1.381-7.237-3.105-12.011-4.749a125.448,125.448,0,0,0-12.389-3.594c-1.614-.379-2.928-.611-3.838-.776A7.538,7.538,0,0,0,26.93,146Z" transform="translate(-25.063 -105.484)" fill="#e0e0e0"/>
        <path id="Path_11662" data-name="Path 11662" d="M99.18,206.023a1.766,1.766,0,0,0,.306-.4l.788-1.222c.685-1.039,1.632-2.567,2.775-4.474,2.3-3.808,5.3-9.168,8.557-15.122s6.179-11.344,8.392-15.189c1.082-1.87,1.968-3.411,2.634-4.554.281-.5.513-.911.709-1.222a1.638,1.638,0,0,0,.214-.452,2.353,2.353,0,0,0-.306.4l-.813,1.2c-.685,1.039-1.626,2.567-2.775,4.474-2.292,3.808-5.293,9.168-8.557,15.128s-6.155,11.338-8.368,15.189l-2.628,4.548-.709,1.222A1.944,1.944,0,0,0,99.18,206.023Z" transform="translate(-53.152 -112.245)" fill="#e0e0e0"/>
        <path id="Path_11663" data-name="Path 11663" d="M25.83,197.22a1.927,1.927,0,0,0,.44.257l1.3.66,4.8,2.359c4.052,1.993,9.615,4.81,15.763,7.946s11.742,5.892,15.837,7.8c2.048.954,3.71,1.711,4.89,2.213l1.339.568a2.336,2.336,0,0,0,.483.165,1.638,1.638,0,0,0-.44-.263l-1.3-.654-4.8-2.359c-4.052-1.993-9.621-4.81-15.77-7.946s-11.76-5.892-15.855-7.824c-2.048-.96-3.71-1.718-4.89-2.213l-1.339-.568a1.937,1.937,0,0,0-.465-.141Z" transform="translate(-24.636 -125.397)" fill="#e0e0e0"/>
        <path id="Path_11664" data-name="Path 11664" d="M634.619,335.135a20.837,20.837,0,0,0-8.918-3.056,5.964,5.964,0,0,0-4.217.776.88.88,0,0,0-.434.77.929.929,0,0,0,.416.526,12.754,12.754,0,0,0,13.154,1" transform="translate(-417.03 -177.802)" fill="#e0e0e0"/>
        <path id="Path_11665" data-name="Path 11665" d="M636.834,327.809a43.252,43.252,0,0,1-5.758-5.067,14.553,14.553,0,0,1-3.606-6.675,2.7,2.7,0,0,1,.281-2.237c4.59,3.588,8.2,8.221,9.083,13.979" transform="translate(-419.478 -170.733)" fill="#e0e0e0"/>
        <path id="Path_11666" data-name="Path 11666" d="M642.983,328.281a20.782,20.782,0,0,1,.11-7.561,10.238,10.238,0,0,1,4.022-6.241c.795,1.834.452,3.991-.1,5.929a28.79,28.79,0,0,1-3.991,8.4" transform="translate(-425.443 -170.985)" fill="#e0e0e0"/>
        <path id="Path_11667" data-name="Path 11667" d="M643.38,350.25a13.138,13.138,0,0,0-7.145,3.618,13.537,13.537,0,0,0-4.1,7.023c2.683-.165,4.957-2.06,6.6-4.175s2.793-4.444,4.6-6.424" transform="translate(-421.342 -184.892)" fill="#e0e0e0"/>
        <path id="Path_11668" data-name="Path 11668" d="M651.35,341.75a17.64,17.64,0,0,1,2.035-16.68,21.231,21.231,0,0,1-2.035,16.68" transform="translate(-428.334 -175.102)" fill="#e0e0e0"/>
        <path id="Path_11669" data-name="Path 11669" d="M653.974,363.923a12.756,12.756,0,0,0-12.224,7.017.948.948,0,0,0-.079.96.911.911,0,0,0,.807.238,10.6,10.6,0,0,0,6.29-3.252A58.984,58.984,0,0,1,654,363.917" transform="translate(-425.01 -190.197)" fill="#e0e0e0"/>
        <path id="Path_11670" data-name="Path 11670" d="M660.9,352.567a22.721,22.721,0,0,1-.226-12.683c.446-1.632,1.222-3.356,2.708-4.12a.519.519,0,0,1,.409-.073.544.544,0,0,1,.263.306,7.628,7.628,0,0,1,.611,3.637,22.775,22.775,0,0,1-.575,3.667c-.471,2.249-.727,4.67-1.962,6.613a12.788,12.788,0,0,0-.782,1.455c-.238.489-.238.666-.452,1.057" transform="translate(-432.127 -179.226)" fill="#e0e0e0"/>
        <path id="Path_11671" data-name="Path 11671" d="M687.021,358.261a16.326,16.326,0,0,1,2.867-13.447c.2-.269.477-.556.813-.526.513.049.648.733.611,1.222a24.3,24.3,0,0,1-4.279,12.726" transform="translate(-442.508 -182.573)" fill="#e0e0e0"/>
        <path id="Path_11672" data-name="Path 11672" d="M689.62,365.775a19.559,19.559,0,0,0,16.051-3.264,12.994,12.994,0,0,0-8.692-1.064,12.231,12.231,0,0,0-7.335,4.327" transform="translate(-443.689 -189.121)" fill="#e0e0e0"/>
        <path id="Path_11673" data-name="Path 11673" d="M691.58,358.543a18.623,18.623,0,0,1,14.565-8.423,8.97,8.97,0,0,1-4.768,5.269,26.462,26.462,0,0,1-6.992,2.048c-.929.177-2.206.379-2.805,1.106" transform="translate(-444.451 -184.841)" fill="#e0e0e0"/>
        <path id="Path_11674" data-name="Path 11674" d="M686.458,329.648a42.721,42.721,0,0,0,1.864-8.557,14.29,14.29,0,0,0-1.7-8.441,18.573,18.573,0,0,0-.251,17.267" transform="translate(-441.645 -170.274)" fill="#e0e0e0"/>
        <path id="Path_11675" data-name="Path 11675" d="M703.31,325.328c3.3-5.99,10.024-10.776,16.833-11.448-2.628,6.54-9.78,11.613-16.833,11.448" transform="translate(-449.011 -170.752)" fill="#e0e0e0"/>
        <path id="Path_11676" data-name="Path 11676" d="M699.92,333.925c4.89.752,9.107,3.887,13.7,5.794a6.235,6.235,0,0,0,3.1.611,2.445,2.445,0,0,0,1.516-4.279,6.553,6.553,0,0,0-2.249-1.363,25.032,25.032,0,0,0-15.641-.874" transform="translate(-447.693 -178.175)" fill="#e0e0e0"/>
        <path id="Path_11677" data-name="Path 11677" d="M695.27,340.01a5.782,5.782,0,0,1,2.372,1.65A25.671,25.671,0,0,0,708.032,347c.4.1.917.134,1.112-.22s-.043-.7-.269-.972a14.29,14.29,0,0,0-6.271-4.279c-2.4-.892-4.474-1.968-7.335-1.736" transform="translate(-445.886 -180.813)" fill="#e0e0e0"/>
        <path id="Path_11678" data-name="Path 11678" d="M690,305.762a19.651,19.651,0,0,0,15.073,5.128,1.045,1.045,0,0,0,.691-.245c.379-.416-.079-1.051-.519-1.394A17.343,17.343,0,0,0,690,305.762" transform="translate(-443.837 -167.389)" fill="#e0e0e0"/>
        <path id="Path_11679" data-name="Path 11679" d="M696.236,301.22a21.014,21.014,0,0,1,18.8-3.105,14.908,14.908,0,0,1-8.961,3.936,28.477,28.477,0,0,1-9.847-.831" transform="translate(-446.259 -164.241)" fill="#e0e0e0"/>
        <path id="Path_11680" data-name="Path 11680" d="M692.154,279.7c-.44-4.419-.153-7.909-.465-12.359,0-.354-.1-.782-.428-.9-.465-.183-.85.385-1,.862a14.15,14.15,0,0,0,1.889,12.3" transform="translate(-443.687 -152.294)" fill="#e0e0e0"/>
        <path id="Path_11681" data-name="Path 11681" d="M693.25,280.159a25.945,25.945,0,0,0,7.335-7.121c1.449-1.98,2.671-4.352,2.341-6.778a6.993,6.993,0,0,0-5.287,2.622,14.769,14.769,0,0,0-2.7,5.422c-.611,1.944-1,3.942-1.681,5.855" transform="translate(-445.1 -152.238)" fill="#e0e0e0"/>
        <path id="Path_11682" data-name="Path 11682" d="M704.942,278.645a59.026,59.026,0,0,0,18.031-10.629c-2.151-.868-4.615-.348-6.772.52A21.356,21.356,0,0,0,704.85,278.6" transform="translate(-449.61 -152.748)" fill="#e0e0e0"/>
        <path id="Path_11683" data-name="Path 11683" d="M696.544,289.6a36.145,36.145,0,0,0,10.012.049,43.025,43.025,0,0,0,9.346-3.105,1.088,1.088,0,0,0,.611-.483.728.728,0,0,0-.226-.8,1.969,1.969,0,0,0-.8-.373,17.245,17.245,0,0,0-10.1.611,47.064,47.064,0,0,0-8.869,4.107" transform="translate(-446.372 -159.286)" fill="#e0e0e0"/>
        <path id="Path_11684" data-name="Path 11684" d="M664.4,297.019a17.748,17.748,0,0,1-.159-14.669c1.381,2.1,1.546,4.78,1.3,7.286s-1.015,5.079-1.063,7.6" transform="translate(-433.237 -158.494)" fill="#e0e0e0"/>
        <path id="Path_11685" data-name="Path 11685" d="M640.955,298.859a20.451,20.451,0,0,0-15.195,6.473,14.213,14.213,0,0,0,8.319-1.54,42.721,42.721,0,0,0,7.109-4.774" transform="translate(-418.862 -164.911)" fill="#e0e0e0"/>
        <path id="Path_11686" data-name="Path 11686" d="M631.55,295.351c-2.775-.22-5.446-.568-8.111.251a9.731,9.731,0,0,0-6.179,5.244,14.73,14.73,0,0,0,7.6-1.436,43.91,43.91,0,0,0,6.687-4.058" transform="translate(-415.557 -163.445)" fill="#e0e0e0"/>
        <path id="Path_11687" data-name="Path 11687" d="M645.076,292.97c-2.494-1.638-5.055-3.3-7.946-3.979s-6.277-.177-8.3,2.011c2.353,1.381,5.208,1.546,7.946,1.54s6.069-.031,8.637.88" transform="translate(-420.055 -160.966)" fill="#e0e0e0"/>
        <path id="Path_11688" data-name="Path 11688" d="M652.358,284.8c-4.279-4.187-5.886-11.711-4.169-17.438a26.576,26.576,0,0,1,4.169,17.438" transform="translate(-427.319 -152.666)" fill="#e0e0e0"/>
        <path id="Path_11689" data-name="Path 11689" d="M674.63,267.715c.807-1.87,1.369-3.832,2.09-5.733a16.5,16.5,0,0,1,2.983-5.293,7.891,7.891,0,0,1,5.287-2.738,21.277,21.277,0,0,1-10.256,13.8" transform="translate(-437.861 -147.453)" fill="#e0e0e0"/>
        <path id="Path_11690" data-name="Path 11690" d="M664.139,275.737c-1.333-1.834-2.873-4.321-4.676-5.691a7.815,7.815,0,0,0-6.363-1.669,14.81,14.81,0,0,0,11.039,7.335" transform="translate(-429.491 -153)" fill="#e0e0e0"/>
        <path id="Path_11691" data-name="Path 11691" d="M670.4,267.976a31.523,31.523,0,0,1-2.1-6.815,10.635,10.635,0,0,1,1.064-6.931c2.347,4.431,3.1,9.168,1.161,13.8" transform="translate(-435.329 -147.561)" fill="#e0e0e0"/>
        <path id="Path_11692" data-name="Path 11692" d="M674.654,248.272c1.326-4.382,5.342-7.616,9.682-9.1a3.6,3.6,0,0,1,1.693-.251,1.461,1.461,0,0,1,1.253,1.045c.159.746-.458,1.412-1.039,1.907a32.793,32.793,0,0,1-11.613,6.4" transform="translate(-437.861 -141.603)" fill="#e0e0e0"/>
        <path id="Path_11693" data-name="Path 11693" d="M674.689,238.979a31.676,31.676,0,0,1,1.265-8.38,10.581,10.581,0,0,1,5.275-6.369c.44,2.861-.819,5.7-2.341,8.16s-3.356,4.78-4.279,7.524" transform="translate(-437.853 -135.898)" fill="#e0e0e0"/>
        <path id="Path_11694" data-name="Path 11694" d="M669.4,241.764c-1.094-3.2-1.222-7.261-3.123-10.049-1.339-1.944-3.484-3.27-4.639-5.336a8.1,8.1,0,0,0,.275,6.057,17.441,17.441,0,0,0,3.539,5.073c1.418,1.516,2.634,2.653,3.949,4.279" transform="translate(-432.632 -136.734)" fill="#e0e0e0"/>
        <path id="Path_11695" data-name="Path 11695" d="M674.565,345c-.086,0-.159-21.332-.165-47.645s.055-47.675.141-47.675.159,21.326.165,47.675S674.644,345,674.565,345Z" transform="translate(-437.772 -145.793)" fill="#e0e0e0"/>
        <path id="Path_11696" data-name="Path 11696" d="M693.288,301.08a4.585,4.585,0,0,1-.8.3l-2.213.746c-1.834.611-4.413,1.553-7.194,2.689s-5.336,2.139-6.809,3.417a5.074,5.074,0,0,0-1.375,1.834c-.208.5-.244.807-.275.8s0-.073,0-.22a3.566,3.566,0,0,1,.153-.611,4.889,4.889,0,0,1,1.339-1.932,11.92,11.92,0,0,1,2.958-1.834c1.18-.556,2.494-1.131,3.881-1.7,2.787-1.143,5.36-2.029,7.243-2.616.941-.293,1.711-.507,2.243-.648A4.888,4.888,0,0,1,693.288,301.08Z" transform="translate(-437.853 -165.776)" fill="#e0e0e0"/>
        <path id="Path_11697" data-name="Path 11697" d="M700.342,276.52s-.073.092-.226.244-.409.379-.685.642l-2.555,2.323-8.508,7.573c-3.319,2.952-6.192,5.776-8.178,7.9-1,1.064-1.779,1.944-2.317,2.555l-.611.709c-.141.159-.22.238-.232.232a1.638,1.638,0,0,1,.183-.275c.128-.171.318-.422.575-.74.507-.611,1.271-1.546,2.249-2.628a107.989,107.989,0,0,1,8.129-7.989c3.331-2.946,6.369-5.6,8.557-7.506l2.622-2.249.721-.611A1.222,1.222,0,0,1,700.342,276.52Z" transform="translate(-438.794 -156.227)" fill="#e0e0e0"/>
        <path id="Path_11698" data-name="Path 11698" d="M689.715,294.37c-.092-.037.611-1.638,1.3-3.667s1.027-3.735,1.112-3.722a12.62,12.62,0,0,1-.819,3.82,25.485,25.485,0,0,1-1.033,2.561,4.067,4.067,0,0,1-.556,1.008Z" transform="translate(-443.723 -160.294)" fill="#e0e0e0"/>
        <path id="Path_11699" data-name="Path 11699" d="M666.835,310.278a3.771,3.771,0,0,1-.513-.611l-1.308-1.681c-1.106-1.424-2.628-3.386-4.334-5.538s-3.276-4.077-4.407-5.5l-1.345-1.656a3.439,3.439,0,0,1-.458-.611,4.366,4.366,0,0,1,.55.556c.342.373.825.917,1.418,1.6,1.18,1.363,2.775,3.27,4.486,5.422s3.2,4.144,4.279,5.6c.532.733.953,1.326,1.222,1.742a3.915,3.915,0,0,1,.41.685Z" transform="translate(-430.023 -163.287)" fill="#e0e0e0"/>
        <path id="Path_11700" data-name="Path 11700" d="M666.653,307.5a7.451,7.451,0,0,1-1.711-3.2,9.247,9.247,0,0,1-.391-3.233h.141c-.061.244-.11.379-.134.373s0-.141,0-.4h.141a14.707,14.707,0,0,0,.544,3.148,22.971,22.971,0,0,0,1.412,3.313Z" transform="translate(-433.937 -165.76)" fill="#e0e0e0"/>
        <path id="Path_11701" data-name="Path 11701" d="M653.49,299.92a5.647,5.647,0,0,0-1.222-.691,7.988,7.988,0,0,0-3.319-.269,20.485,20.485,0,0,0-3.343.544,10.6,10.6,0,0,1-1.375.33,4.846,4.846,0,0,1,1.314-.544,15.368,15.368,0,0,1,3.38-.611,7.182,7.182,0,0,1,3.423.373,2.152,2.152,0,0,1,1.143.868Z" transform="translate(-426.042 -164.817)" fill="#e0e0e0"/>
        <path id="Path_11702" data-name="Path 11702" d="M649.076,296.873c0,.049-.7-.281-1.834-.666a18.7,18.7,0,0,0-4.572-.941,18.945,18.945,0,0,0-4.657.238c-1.18.208-1.895.434-1.913.379a1.834,1.834,0,0,1,.489-.208,11.959,11.959,0,0,1,1.381-.385,16.338,16.338,0,0,1,9.346.709,11.485,11.485,0,0,1,1.308.611A1.884,1.884,0,0,1,649.076,296.873Z" transform="translate(-422.882 -163.378)" fill="#e0e0e0"/>
        <path id="Path_11703" data-name="Path 11703" d="M673.122,281.048a39.333,39.333,0,0,1-1.339-4.639,36.955,36.955,0,0,1-1.033-4.719,39.12,39.12,0,0,1,1.332,4.639,36.663,36.663,0,0,1,1.039,4.719Z" transform="translate(-436.353 -154.35)" fill="#e0e0e0"/>
        <path id="Path_11704" data-name="Path 11704" d="M672.441,283.8a22.833,22.833,0,0,0-1.479-2.781,11.818,11.818,0,0,0-2.182-2.243,2.056,2.056,0,0,1,.844.428,6.724,6.724,0,0,1,1.589,1.644A6.111,6.111,0,0,1,672.441,283.8Z" transform="translate(-435.587 -157.102)" fill="#e0e0e0"/>
        <path id="Path_11705" data-name="Path 11705" d="M662.237,367.192c-.037,0-.1-.513-.336-1.418a20.321,20.321,0,0,0-1.43-3.667,51.333,51.333,0,0,0-7.561-10.654c-1.693-1.931-3.331-3.753-4.719-5.5a38.345,38.345,0,0,1-3.374-4.89,23.53,23.53,0,0,1-1.705-3.606c-.153-.446-.269-.795-.33-1.033a2.448,2.448,0,0,1-.092-.373s.183.489.538,1.363a25.936,25.936,0,0,0,1.779,3.539,40.217,40.217,0,0,0,3.4,4.8c1.4,1.724,3.056,3.539,4.731,5.47a47.567,47.567,0,0,1,7.524,10.764,18.78,18.78,0,0,1,1.351,3.759,9.09,9.09,0,0,1,.183,1.07A1.945,1.945,0,0,1,662.237,367.192Z" transform="translate(-425.444 -179.371)" fill="#e0e0e0"/>
        <path id="Path_11706" data-name="Path 11706" d="M691.535,355.9a9.775,9.775,0,0,1-.886.5,19.5,19.5,0,0,0-2.286,1.51,26.558,26.558,0,0,0-3.007,2.744c-1.057,1.118-2.145,2.408-3.258,3.8-2.219,2.781-4.279,5.244-5.5,7.212-.611.972-1.094,1.8-1.394,2.372a9.936,9.936,0,0,1-.483.892.632.632,0,0,1,.079-.251c.079-.159.153-.4.293-.691a22.257,22.257,0,0,1,1.314-2.445,79.89,79.89,0,0,1,5.5-7.292c1.112-1.387,2.213-2.689,3.288-3.8a24.281,24.281,0,0,1,3.056-2.72,16.184,16.184,0,0,1,2.365-1.449c.293-.147.532-.232.691-.306S691.529,355.885,691.535,355.9Z" transform="translate(-437.896 -187.086)" fill="#e0e0e0"/>
        <path id="Path_11707" data-name="Path 11707" d="M695.364,365.985a13.912,13.912,0,0,1-1.87.269,24.493,24.493,0,0,0-4.425.874,13.269,13.269,0,0,0-3.961,2.078c-.917.7-1.345,1.29-1.388,1.253a1.41,1.41,0,0,1,.275-.428,7.073,7.073,0,0,1,.972-1,12.024,12.024,0,0,1,4.01-2.2,20.213,20.213,0,0,1,4.5-.8,10.194,10.194,0,0,1,1.889-.049Z" transform="translate(-441.395 -191.001)" fill="#e0e0e0"/>
        <path id="Path_11708" data-name="Path 11708" d="M684.6,368.2c-.1-.055.746-1.339,1.4-3.056s.752-3.27.862-3.252a2.921,2.921,0,0,1,0,1,10.8,10.8,0,0,1-.544,2.359,11.428,11.428,0,0,1-1.082,2.164C684.88,367.923,684.642,368.222,684.6,368.2Z" transform="translate(-441.736 -189.417)" fill="#e0e0e0"/>
        <path id="Path_11709" data-name="Path 11709" d="M696.987,328.78a1.091,1.091,0,0,1-.293.159l-.88.4c-.385.165-.85.379-1.375.654s-1.143.55-1.785.935l-1.015.581c-.355.2-.7.44-1.076.678-.752.452-1.5,1.015-2.3,1.583a39.731,39.731,0,0,0-8.875,9.168c-.55.825-1.082,1.6-1.51,2.359-.22.379-.452.74-.611,1.094s-.367.709-.544,1.039c-.361.654-.611,1.277-.874,1.834s-.452,1.009-.611,1.4-.269.654-.367.886a1.9,1.9,0,0,1-.147.306,1.142,1.142,0,0,1,.086-.324l.318-.917c.134-.4.312-.874.556-1.418s.489-1.18.837-1.834l.532-1.051c.183-.367.41-.727.611-1.112.422-.776.953-1.559,1.491-2.39a38.433,38.433,0,0,1,8.942-9.254c.813-.568,1.577-1.125,2.341-1.577.373-.226.727-.465,1.088-.666l1.033-.562c.654-.373,1.277-.642,1.834-.9s1.008-.452,1.4-.611l.9-.342A1.667,1.667,0,0,1,696.987,328.78Z" transform="translate(-437.896 -176.545)" fill="#e0e0e0"/>
        <path id="Path_11710" data-name="Path 11710" d="M689.34,341.985a2.164,2.164,0,0,1,.733-1.094,4.627,4.627,0,0,1,2.952-1.131,8.038,8.038,0,0,1,3.111.611,4.513,4.513,0,0,1,1.174.568,7.073,7.073,0,0,1-1.222-.361,9.422,9.422,0,0,0-3.056-.507,4.816,4.816,0,0,0-2.824.99,8.744,8.744,0,0,0-.868.923Z" transform="translate(-443.58 -180.813)" fill="#e0e0e0"/>
        <path id="Path_11711" data-name="Path 11711" d="M686.08,343.214a11.212,11.212,0,0,0,.837-2.726,11.037,11.037,0,0,0-.19-2.848,1.885,1.885,0,0,1,.348.795,5.5,5.5,0,0,1,.147,2.09,5.587,5.587,0,0,1-.611,2C686.343,342.994,686.111,343.239,686.08,343.214Z" transform="translate(-442.313 -179.989)" fill="#e0e0e0"/>
        <path id="Path_11712" data-name="Path 11712" d="M650.56,392c.458,8.154,2.916,16.442,6.724,24.828h16.405a71.286,71.286,0,0,0,6.3-24.828Z" transform="translate(-428.503 -201.123)" fill="#e0e0e0"/>
        <path id="Path_11713" data-name="Path 11713" d="M678.968,413.513c0,.086-5.409.159-12.078.159s-12.09-.073-12.09-.159,5.409-.153,12.09-.153S678.968,413.427,678.968,413.513Z" transform="translate(-430.152 -209.428)" fill="#fafafa"/>
        <path id="Path_11714" data-name="Path 11714" d="M679.332,418.349c0,.086-5.067.153-11.326.153s-11.326-.067-11.326-.153,5.067-.159,11.326-.159S679.332,418.263,679.332,418.349Z" transform="translate(-430.883 -211.305)" fill="#fafafa"/>
        <path id="Path_11715" data-name="Path 11715" d="M661.9,400.79a46.917,46.917,0,0,1,0,7.567A45.125,45.125,0,0,1,661.9,400.79Z" transform="translate(-432.85 -204.541)" fill="#fafafa"/>
        <path id="Path_11716" data-name="Path 11716" d="M676.253,400.79a50.3,50.3,0,0,1,0,7.836A50.313,50.313,0,0,1,676.253,400.79Z" transform="translate(-438.433 -204.541)" fill="#fafafa"/>
        <path id="Path_11717" data-name="Path 11717" d="M689.779,400.68a52.364,52.364,0,0,1,0,7.995,50.356,50.356,0,0,1,0-7.995Z" transform="translate(-443.689 -204.498)" fill="#fafafa"/>
        <path id="Path_11718" data-name="Path 11718" d="M679.818,400.689c0,.086-6.344.153-14.174.153s-14.174-.067-14.174-.153,6.344-.159,14.174-.159S679.818,400.6,679.818,400.689Z" transform="translate(-428.857 -204.439)" fill="#fafafa"/>
        <path id="Path_11719" data-name="Path 11719" d="M548.224,87.657h1.357l2.952-4.114V80.83s2.09-.128,1.834,3.4,0,2.64,0,2.64,4.444,0,4.81.4c.269.275.391,4.688.44,7.084a2.592,2.592,0,0,1-1.834,2.61,2.121,2.121,0,0,1-.477.061c-1.106,0-6.766-.9-6.766-.9H548.2Z" transform="translate(-320.341 -52.051)" fill="#e0e0e0"/>
        <path id="Path_11720" data-name="Path 11720" d="M541.91,90.77l.831,9.254h2.317V90.953Z" transform="translate(-317.895 -55.916)" fill="#e0e0e0"/>
        <path id="Path_11721" data-name="Path 11721" d="M542.108,65.176a2.231,2.231,0,0,1,.33,0h1.7l.856.122,1.009.147,1.119.275a18.3,18.3,0,0,1,5.44,2.372,19.432,19.432,0,0,1,5.629,5.5,19.693,19.693,0,0,1,3.221,8.985,20.845,20.845,0,0,1,0,2.659,6.638,6.638,0,0,1-.092,1.345l-.2,1.357a19.228,19.228,0,0,1-1.834,5.354,20.613,20.613,0,0,1-3.5,4.81,20.294,20.294,0,0,1-5.036,3.618,18.294,18.294,0,0,1-6.112,1.852,11.246,11.246,0,0,1-1.638.141,14.869,14.869,0,0,1-1.65.031,19.713,19.713,0,0,1-3.319-.416,19.358,19.358,0,0,1-6.6-2.781h.2l-6.723,2.7-.4.159.116-.416c.678-2.445,1.339-4.89,1.974-7.188l.037.177a19.2,19.2,0,0,1-3.588-8.215,17.546,17.546,0,0,1-.263-4.205,13.835,13.835,0,0,1,.189-2.023c.055-.33.1-.654.153-.984s.159-.611.238-.947a19.223,19.223,0,0,1,7.487-10.923,18.22,18.22,0,0,1,4.468-2.353l1-.361.953-.244.874-.214c.281-.055.55-.086.807-.122.507-.067.953-.153,1.345-.171l.99-.037h.813a.752.752,0,0,1-.2,0l-.611.049-.978.067a11.014,11.014,0,0,0-1.339.2,19.119,19.119,0,0,0-15.281,14.18c-.073.312-.171.611-.226.941l-.147.966a13.187,13.187,0,0,0-.177,1.98,17.189,17.189,0,0,0,.275,4.126,18.843,18.843,0,0,0,3.539,8.038l.061.079v.1c-.611,2.323-1.29,4.725-1.962,7.194l-.281-.257,6.723-2.7.11-.043.092.061a18.947,18.947,0,0,0,6.455,2.714,19.4,19.4,0,0,0,3.239.41,14.3,14.3,0,0,0,1.62,0,11.611,11.611,0,0,0,1.6-.134,18.031,18.031,0,0,0,6.008-1.834,19.962,19.962,0,0,0,4.933-3.533,20.417,20.417,0,0,0,3.435-4.7,19.036,19.036,0,0,0,1.834-5.238c.073-.446.141-.892.208-1.326s.055-.886.092-1.32a18.853,18.853,0,0,0-8.63-16.839,18.335,18.335,0,0,0-5.354-2.414l-1.167-.269-1-.165-.85-.141c-.263,0-.5-.037-.715-.055l-.947-.1A1.266,1.266,0,0,1,542.108,65.176Z" transform="translate(-310.447 -45.963)" fill="#e0e0e0"/>
      </g>
      <g id="freepik--Floor--inject-152" transform="translate(0 215.46)">
        <path id="Path_11722" data-name="Path 11722" d="M321.907,432.379c0,.086-61.889.159-138.215.159s-138.232-.073-138.232-.159,61.885-.159,138.224-.159S321.907,432.287,321.907,432.379Z" transform="translate(-19.778 -432.22)" fill="#263238"/>
      </g>
    </g>
    <g id="City_driver-rafiki_1_" data-name="City driver-rafiki (1)" transform="translate(2141.774 1413.476)">
      <g id="freepik--Shadow--inject-1" transform="translate(0 177.463)">
        <ellipse id="freepik--path--inject-1" cx="118.51" cy="6.919" rx="118.51" ry="6.919" fill="#f5f5f5"/>
      </g>
      <g id="freepik--Smartphone--inject-1" transform="translate(133.393 0)">
        <rect id="Rectangle_2694" data-name="Rectangle 2694" width="89.306" height="184.375" rx="9.29" transform="translate(3.533)" fill="#931e27"/>
        <rect id="Rectangle_2695" data-name="Rectangle 2695" width="89.306" height="184.375" rx="9.29" fill="#931e27"/>
        <rect id="Rectangle_2696" data-name="Rectangle 2696" width="89.306" height="184.375" rx="9.29" fill="#fff" opacity="0.7"/>
        <g id="Group_10726" data-name="Group 10726" opacity="0.9">
          <rect id="Rectangle_2697" data-name="Rectangle 2697" width="4.835" height="184.375" transform="translate(13.092)" fill="#fff"/>
          <rect id="Rectangle_2698" data-name="Rectangle 2698" width="2.964" height="184.375" transform="translate(66.116)" fill="#fff"/>
          <path id="Path_11916" data-name="Path 11916" d="M274.35,176.582v4.835l89.306-5.532V171.05Z" transform="translate(-274.35 -136.534)" fill="#fff"/>
          <rect id="Rectangle_2699" data-name="Rectangle 2699" width="4.835" height="89.306" transform="translate(0.006 159.101) rotate(-90)" fill="#fff"/>
          <rect id="Rectangle_2700" data-name="Rectangle 2700" width="2.634" height="89.306" transform="translate(0 66.819) rotate(-90)" fill="#fff"/>
          <path id="Path_11917" data-name="Path 11917" d="M274.35,302.339v5.538l89.306-30.219V272.12Z" transform="translate(-274.35 -175.828)" fill="#fff"/>
          <path id="Path_11918" data-name="Path 11918" d="M322.485,114.58H317.65l12.995,184.382h4.835Z" transform="translate(-291.184 -114.58)" fill="#fff"/>
        </g>
      </g>
      <g id="freepik--Car--inject-1" transform="translate(12.634 83.772)">
        <path id="Path_11919" data-name="Path 11919" d="M327.372,364.211H221.05V331.07h93.719l8.747,7.109a10.427,10.427,0,0,1,3.857,8.129Z" transform="translate(-132.869 -282.518)" fill="#931e27"/>
        <path id="Path_11920" data-name="Path 11920" d="M327.372,364.211H221.05V331.07h93.719l8.747,7.109a10.427,10.427,0,0,1,3.857,8.129Z" transform="translate(-132.869 -282.518)" opacity="0.5"/>
        <path id="Path_11921" data-name="Path 11921" d="M211.8,366.47c0-12.1,5.5-21.9,12.224-21.9h-12.97c-6.766,0-12.224,9.78-12.224,21.9s5.5,21.906,12.224,21.906h12.995C217.271,388.376,211.8,378.566,211.8,366.47Z" transform="translate(-124.23 -287.767)" fill="#263238"/>
        <ellipse id="Ellipse_560" data-name="Ellipse 560" cx="12.249" cy="21.9" rx="12.249" ry="21.9" transform="translate(87.57 56.804)" fill="#263238"/>
        <ellipse id="Ellipse_561" data-name="Ellipse 561" cx="8.685" cy="17.078" rx="8.685" ry="17.078" transform="translate(92.118 61.626)" fill="#fff"/>
        <path id="Path_11922" data-name="Path 11922" d="M96.29,366.47c0-12.1,5.5-21.9,12.224-21.9H95.544c-6.766,0-12.224,9.78-12.224,21.9s5.5,21.906,12.224,21.906h12.995C101.773,388.376,96.29,378.566,96.29,366.47Z" transform="translate(-79.322 -287.767)" fill="#263238"/>
        <ellipse id="Ellipse_562" data-name="Ellipse 562" cx="12.249" cy="21.9" rx="12.249" ry="21.9" transform="translate(16.968 56.804)" fill="#263238"/>
        <path id="Path_11923" data-name="Path 11923" d="M349.13,366.47c0-12.1,5.5-21.9,12.224-21.9h-12.97c-6.76,0-12.224,9.78-12.224,21.9s5.5,21.906,12.224,21.906h12.995C354.619,388.376,349.13,378.566,349.13,366.47Z" transform="translate(-177.621 -287.767)" fill="#263238"/>
        <ellipse id="Ellipse_563" data-name="Ellipse 563" cx="12.249" cy="21.9" rx="12.249" ry="21.9" transform="translate(171.509 56.804)" fill="#263238"/>
        <ellipse id="Ellipse_564" data-name="Ellipse 564" cx="8.685" cy="17.078" rx="8.685" ry="17.078" transform="translate(176.063 61.626)" fill="#fff"/>
        <path id="Path_11924" data-name="Path 11924" d="M149.876,376.579H134.162l-.88-.856a4.829,4.829,0,0,0-3.411-1.418H90.594a4.829,4.829,0,0,0-3.411,1.418l-.538.532h-1.43a8.435,8.435,0,0,1-8.435-8.478V354.85h89.129l-7.09,15.415a9.474,9.474,0,0,1-8.942,6.314Z" transform="translate(-76.78 -291.763)" fill="#931e27"/>
        <path id="Path_11925" data-name="Path 11925" d="M149.876,376.579H134.162l-.88-.856a4.829,4.829,0,0,0-3.411-1.418H90.594a4.829,4.829,0,0,0-3.411,1.418l-.538.532h-1.43a8.435,8.435,0,0,1-8.435-8.478V354.85h89.129l-7.09,15.415a9.474,9.474,0,0,1-8.942,6.314Z" transform="translate(-76.78 -291.763)" fill="#e08b0a"/>
        <path id="Path_11926" data-name="Path 11926" d="M347.966,259.609a.275.275,0,0,1-.153-.043.3.3,0,0,1-.11-.416l4.279-7.335a.306.306,0,1,1,.526.306l-4.279,7.335A.306.306,0,0,1,347.966,259.609Z" transform="translate(-182.092 -251.636)" fill="#263238"/>
        <path id="Path_11927" data-name="Path 11927" d="M328.089,297.463v-8.337c0-4.382-6.369-25.06-15.128-28.935s-29.95-5.6-43.3-4.89-31.172,28.63-31.172,28.63l1.938,24.009c2.714,0,11.357-.819,12.622,22.933a6.528,6.528,0,0,0,6.534,6.2h46.734a6.509,6.509,0,0,0,6.442-5.611c1.222-8.465,4.413-23.538,12.108-23.538,5.4,0,9.266,4.621,9.266,9.92h0a35.916,35.916,0,0,0-4.12-16.711Z" transform="translate(-139.649 -253)" fill="#f89b0e"/>
        <path id="Path_11928" data-name="Path 11928" d="M176.51,255.4c-24.308,0-51.85,28.63-51.85,28.63h69.6s17.8-27.915,31.172-28.63Z" transform="translate(-95.395 -253.099)" fill="#263238"/>
        <path id="Path_11929" data-name="Path 11929" d="M181.054,255.4c-20.476,0-41.954,20.317-48.219,26.717a1.125,1.125,0,0,0,.807,1.913h56.147a14.364,14.364,0,0,0,11.613-5.855c6.039-8.227,17.67-22.267,27.083-22.774Z" transform="translate(-98.447 -253.099)" fill="#fff" opacity="0.4"/>
        <path id="Path_11930" data-name="Path 11930" d="M175.645,302.24l-25.708,20.286-69.184-.22s-3.973,5.776-3.973,12.09h89.129c1.461-3.869,6.583-8.148,11.674-8.148C177.583,319.049,175.645,302.24,175.645,302.24Z" transform="translate(-76.78 -271.31)" fill="#f89b0e"/>
        <path id="Path_11931" data-name="Path 11931" d="M210.808,315.839a.3.3,0,0,1-.043-.605,33.923,33.923,0,0,0,16.686-7.763,4.926,4.926,0,0,0,.886-6.565.306.306,0,1,1,.5-.348,5.544,5.544,0,0,1-1,7.377,34.436,34.436,0,0,1-16.986,7.9Z" transform="translate(-128.769 -270.6)" opacity="0.2"/>
        <path id="Path_11932" data-name="Path 11932" d="M83.28,322.306s12.151-14.162,25.292-20.066h69.6l-25.708,20.286Z" transform="translate(-79.307 -271.31)" fill="#f89b0e"/>
        <rect id="Rectangle_2701" data-name="Rectangle 2701" width="45.64" height="1.326" transform="translate(12.151 50.997)" fill="#263238"/>
        <path id="Path_11933" data-name="Path 11933" d="M169.03,325.862l2.445-2.445a4.059,4.059,0,0,1,2-1.094l18.465-4.022a4.022,4.022,0,0,1,1.962.061l.99.275a4.059,4.059,0,0,1,1.956,6.577l-3.973,4.541a4.071,4.071,0,0,1-2.677,1.369l-17.927,1.626a4.046,4.046,0,0,1-3.239-1.161h0A4.059,4.059,0,0,1,169.03,325.862Z" transform="translate(-112.186 -277.518)" fill="#ebebeb"/>
        <path id="Path_11934" data-name="Path 11934" d="M91.931,329.326l-2.023-3.783a3.35,3.35,0,0,0-1.222-1.284h0a3.325,3.325,0,0,0-3.258-.092l-1.534.807a3.344,3.344,0,0,0-1.6,1.876l-.935,2.769a3.331,3.331,0,0,0,2.585,4.358l4.224.727a3.331,3.331,0,0,0,3.5-1.705l.281-.52A3.319,3.319,0,0,0,91.931,329.326Z" transform="translate(-78.49 -279.686)" fill="#ebebeb"/>
        <path id="Path_11935" data-name="Path 11935" d="M259.621,287.565h64.35a3.5,3.5,0,0,0,3.349-4.5c-1.467-4.89-4.279-12.536-8.5-16.436a3.551,3.551,0,0,0-1.669-.856c-7.585-1.608-19.779-2.677-28.825-3.3a28.458,28.458,0,0,0-22.255,8.459,78.287,78.287,0,0,0-9.284,11.326,3.417,3.417,0,0,0,2.836,5.311Z" transform="translate(-146.539 -255.821)" fill="#fff" opacity="0.4"/>
        <path id="Path_11936" data-name="Path 11936" d="M187.888,364.261c0,2-2.054,3.637-4.584,3.637s-4.584-1.632-4.584-3.637,2.048-3.631,4.584-3.631S187.888,362.256,187.888,364.261Z" transform="translate(-116.412 -294.01)" fill="#263238"/>
        <path id="Path_11937" data-name="Path 11937" d="M130.735,330.53c1.5,0,2.237,1.54,1.638,3.435s-2.3,3.441-3.808,3.441-2.237-1.54-1.638-3.441S129.231,330.53,130.735,330.53Z" transform="translate(-96.194 -282.308)" fill="#263238"/>
        <path id="Path_11938" data-name="Path 11938" d="M81.185,364.261c0,2-.611,3.637-1.29,3.637s-1.3-1.632-1.3-3.637.611-3.631,1.3-3.631S81.185,362.256,81.185,364.261Z" transform="translate(-77.487 -294.01)" fill="#263238"/>
        <path id="Path_11939" data-name="Path 11939" d="M258.55,298.78v-2.06a3.973,3.973,0,0,1,4.786-3.893l7.836,1.632a3.979,3.979,0,0,1,3.166,3.893v.428a3.979,3.979,0,0,1-3.973,3.979h-7.836A3.979,3.979,0,0,1,258.55,298.78Z" transform="translate(-147.448 -267.617)" fill="#263238"/>
        <path id="Path_11940" data-name="Path 11940" d="M324.177,263.743s-1.045-.1-2.867-.263c8.056,16.5,6,24.5,6,24.5h6.149C333.522,277.935,324.177,263.743,324.177,263.743Z" transform="translate(-171.847 -256.241)" fill="#263238"/>
        <path id="Path_11941" data-name="Path 11941" d="M189.876,280.955a5.244,5.244,0,0,1-5.214,4.743h-31.68c-2.31,0-3.148-2.579-1.473-4.5a89.464,89.464,0,0,1,9.816-9.584c5.965-5.024,13.374-7.634,20.3-7.151l2.616.189a5.257,5.257,0,0,1,4.731,4.138,39.815,39.815,0,0,1,.9,12.163Z" transform="translate(-105.491 -256.601)" fill="#263238" opacity="0.2"/>
        <path id="Path_11942" data-name="Path 11942" d="M332.136,352.329a.306.306,0,0,1-.306-.306c0-6.186,3.154-31.692,3.979-35.512a23.349,23.349,0,0,0,0-10.55.306.306,0,0,1,.208-.379.312.312,0,0,1,.379.208,23.97,23.97,0,0,1,0,10.849c-.825,3.8-3.967,29.223-3.967,35.384A.306.306,0,0,1,332.136,352.329Z" transform="translate(-175.937 -272.605)" opacity="0.2"/>
        <path id="Path_11943" data-name="Path 11943" d="M325.655,322.013H318.2a.923.923,0,0,1-.929-1.131l.153-.862a1.406,1.406,0,0,1,1.326-1.131H326.2a.923.923,0,0,1,.929,1.131l-.153.862a1.406,1.406,0,0,1-1.326,1.131Z" transform="translate(-170.269 -277.782)" opacity="0.2"/>
      </g>
      <g id="freepik--Pin--inject-1" transform="translate(159.242 18.661)">
        <path id="Path_11944" data-name="Path 11944" d="M357.235,161.839h-.611a16.177,16.177,0,0,0-.667-4.6l.612-.169a16.718,16.718,0,0,1,.666,4.768Zm-2.634-7.818a16.173,16.173,0,0,0-14.1-8.3v-.611a16.76,16.76,0,0,1,14.633,8.618Z" transform="translate(-325.916 -145.11)" fill="#931e27"/>
        <path id="Path_11945" data-name="Path 11945" d="M331.224,148.61A14.59,14.59,0,0,0,316.64,163.2c0,14.058,14.584,23.691,14.584,23.691s14.6-9.639,14.6-23.691a14.6,14.6,0,0,0-14.6-14.59Zm0,21.46a6.809,6.809,0,1,1,6.815-6.809A6.809,6.809,0,0,1,331.224,170.07Z" transform="translate(-316.64 -146.471)" fill="#931e27"/>
      </g>
      <g id="freepik--Character--inject-1" transform="translate(194.51 52.984)">
        <path id="Path_11946" data-name="Path 11946" d="M302.685,409.166l-3.661-.061-1.055-8.485,3.655.061Z" transform="translate(-274.265 -274.589)" fill="#b55b52"/>
        <path id="Path_11947" data-name="Path 11947" d="M326.712,408.338l-3.552-1.085,2.206-8.043,3.552,1.091Z" transform="translate(-315.764 -274.034)" fill="#b55b52"/>
        <path id="Path_11948" data-name="Path 11948" d="M333.165,410.238l3.964,2.043a.321.321,0,0,1,.158.37l-.848,3.218a.533.533,0,0,1-.77.333c-1.267-.679-2.158-1.212-3.764-2.067-.988-.509-4.018-1.94-5.382-2.649s-.849-2.146-.23-1.976c2.788.746,5.067.964,6.243.655A.873.873,0,0,1,333.165,410.238Z" transform="translate(-325.66 -278.086)" fill="#263238"/>
        <path id="Path_11949" data-name="Path 11949" d="M303.574,413.92l3.994.067a.315.315,0,0,1,.3.255l.673,3.261a.527.527,0,0,1-.533.642c-1.443-.048-3.521-.164-5.334-.194-2.115-.03-2.733.055-5.218,0-1.5,0-1.891-1.552-1.261-1.679,2.873-.606,3.994-.606,6.485-2.1A1.818,1.818,0,0,1,303.574,413.92Z" transform="translate(-278.886 -279.828)" fill="#263238"/>
        <path id="Path_11950" data-name="Path 11950" d="M318.808,231.05c-.83,1.667-1.77,3.43-2.709,5.109s-1.933,3.352-2.994,4.921c-.273.388-.527.794-.806,1.164l-.685.933c-.139.182-.218.267-.242.309s-.036.1-.212.115a3.51,3.51,0,0,1-1.727-.849c-.333-.255-.673-.545-1.006-.855s-.667-.667-.958-.952l-2.418,1.346a12.257,12.257,0,0,0,.715,1.558,10.645,10.645,0,0,0,.933,1.467,8.661,8.661,0,0,0,1.273,1.382,5.94,5.94,0,0,0,1.921,1.146,4.758,4.758,0,0,0,2.764.152,5.455,5.455,0,0,0,2.315-1.212,5.228,5.228,0,0,0,.418-.394l.194-.2.139-.158.533-.606c.358-.406.685-.824,1.024-1.212A52.971,52.971,0,0,0,320.857,239c.533-.9,1.061-1.818,1.546-2.721s.958-1.818,1.406-2.843Z" transform="translate(-299.679 -207.793)" fill="#b55b52"/>
        <path id="Path_11951" data-name="Path 11951" d="M315.273,229.223c.988,3.358-5.952,12.5-5.952,12.5l-7-4.5a44.653,44.653,0,0,1,4.849-8.231C310.037,225.338,314.194,225.532,315.273,229.223Z" transform="translate(-289.586 -205.942)" fill="#931e27"/>
        <g id="Group_10727" data-name="Group 10727" transform="translate(12.735 20.409)" opacity="0.2">
          <path id="Path_11952" data-name="Path 11952" d="M315.273,229.223c.988,3.358-5.952,12.5-5.952,12.5l-7-4.5a44.653,44.653,0,0,1,4.849-8.231C310.037,225.338,314.194,225.532,315.273,229.223Z" transform="translate(-302.321 -226.351)"/>
        </g>
        <path id="Path_11953" data-name="Path 11953" d="M309.6,237.545c-1.436.606-3.558,4.085-4.661,6.667l2.97,1.909a55.4,55.4,0,0,0,4.467-7C311.437,238.079,310.364,237.224,309.6,237.545Z" transform="translate(-288.18 -210.324)" opacity="0.2"/>
        <path id="Path_11954" data-name="Path 11954" d="M336.066,245.8l-2.533-4.1-2.212,3.533a4.358,4.358,0,0,0,2.424,1.994Z" transform="translate(-327.858 -211.988)" fill="#b55b52"/>
        <path id="Path_11955" data-name="Path 11955" d="M335.52,241.168v1.267a1.709,1.709,0,0,0,.388,1.085l.921,1.139,2.212-3.533-2.285-.83a.927.927,0,0,0-1.236.873Z" transform="translate(-333.379 -211.414)" fill="#b55b52"/>
        <path id="Path_11956" data-name="Path 11956" d="M332.876,245l3.988-.061-2.206-8.261-3.988.061Z" transform="translate(-328.262 -210.01)" fill="#931e27"/>
        <path id="Path_11957" data-name="Path 11957" d="M333.546,245l3.988-.061-2.206-8.261-3.988.061Z" transform="translate(-329.338 -210.01)" fill="#263238"/>
        <path id="Path_11958" data-name="Path 11958" d="M298.81,400.63l.545,4.37,3.661.061-.545-4.376Z" transform="translate(-275.105 -274.593)" opacity="0.2"/>
        <path id="Path_11959" data-name="Path 11959" d="M327.851,400.3l-3.558-1.091-1.133,4.146,3.558,1.091Z" transform="translate(-314.698 -274.034)" opacity="0.2"/>
        <path id="Path_11960" data-name="Path 11960" d="M299.487,230.628c-2.988,12.861-2.339,25.619-2.667,28.371l-19.51-1.455c-1.873-20.9,2.564-31.516,2.564-31.516s1.255-.242,2.958-.418c.533-.055,1.115-.1,1.715-.133.333,0,.667-.03,1.012-.036a72.434,72.434,0,0,1,8.291.606c.521.067,1.049.139,1.564.224l1.382.255h.055a3.388,3.388,0,0,1,2.636,4.1Z" transform="translate(-258.357 -205.583)" fill="#931e27"/>
        <g id="Group_10728" data-name="Group 10728" transform="translate(18.493 19.857)" opacity="0.2">
          <path id="Path_11961" data-name="Path 11961" d="M299.487,230.628c-2.988,12.861-2.339,25.619-2.667,28.371l-19.51-1.455c-1.873-20.9,2.564-31.516,2.564-31.516s1.255-.242,2.958-.418c.533-.055,1.115-.1,1.715-.133.333,0,.667-.03,1.012-.036a72.434,72.434,0,0,1,8.291.606c.521.067,1.049.139,1.564.224l1.382.255h.055a3.388,3.388,0,0,1,2.636,4.1Z" transform="translate(-276.85 -225.44)"/>
        </g>
        <path id="Path_11962" data-name="Path 11962" d="M278.989,238.48l2.243,2.879a.671.671,0,0,0,0,.109c-.315,1.952-.558,3.861-.739,5.7C278.34,244.523,278.655,239.741,278.989,238.48Z" transform="translate(-241.162 -210.72)" opacity="0.2"/>
        <path id="Path_11963" data-name="Path 11963" d="M294.357,216.462c-.467,1.964-.436,4.146.97,5.709a9.33,9.33,0,0,1-6.752,2.733c-3.176-.121-2.467-2.267-1.539-3.352,2.709-.436,2.715-2.2,2.739-4.14a.927.927,0,0,1,.649-.879l2.982-.958a.745.745,0,0,1,.952.885Z" transform="translate(-259.802 -201.684)" fill="#b55b52"/>
        <path id="Path_11964" data-name="Path 11964" d="M298.721,245.8c1.636,0,3.146-1.964,3.443-4.473a4.976,4.976,0,0,0-.9-3.818,2.043,2.043,0,0,0-1.552-.739h0c-1.63,0-3.146,1.964-3.436,4.473a4.982,4.982,0,0,0,.9,3.818,2.073,2.073,0,0,0,1.552.739Zm.982-8.425h0a1.437,1.437,0,0,1,1.1.539,4.412,4.412,0,0,1,.751,3.34c-.249,2.139-1.545,3.94-2.836,3.94h0a1.436,1.436,0,0,1-1.1-.539,4.437,4.437,0,0,1-.752-3.34h0c.236-2.139,1.533-3.94,2.818-3.94Z" transform="translate(-272.743 -210.046)" fill="#931e27"/>
        <path id="Path_11965" data-name="Path 11965" d="M290.815,218.81l3,.388c-.067.133-.151.261-.23.388a4.583,4.583,0,0,1-3.115,1.727,6.383,6.383,0,0,0,.345-2.5Z" transform="translate(-260.849 -202.971)" opacity="0.2"/>
        <path id="Path_11966" data-name="Path 11966" d="M306,203.313c-1.667.279-4.782-1.612-4.055-4.133.933,1.17,4.055.776,4.055.776Z" transform="translate(-279.928 -195.239)" fill="#263238"/>
        <path id="Path_11967" data-name="Path 11967" d="M283.9,210.27c-.182,1.685,1.9,4.685,4.37,3.806-1.212-.861-1.018-4.006-1.018-4.006Z" transform="translate(-251.317 -199.528)" fill="#263238"/>
        <path id="Path_11968" data-name="Path 11968" d="M296.38,202.158c.448,3.6.9,5.691-.564,7.879-2.188,3.255-6.891,2.424-8.406-.952-1.364-3.03-1.867-8.431,1.358-10.5a4.952,4.952,0,0,1,7.612,3.576Z" transform="translate(-261.353 -194.689)" fill="#b55b52"/>
        <path id="Path_11969" data-name="Path 11969" d="M292.741,203.782c-.879.927-3.3-2.861-2.855-4.243a1.95,1.95,0,0,1-2.546-1.867c-2.721,1.455-6.667,2.606-6.728,0s2.424-4.576,4.849-4.782c-.291.782.479,1.115,2.061.782s7.679-3.14,7.006,2.467C296.808,196.273,297.105,199.158,292.741,203.782Z" transform="translate(-257.217 -192.677)" fill="#263238"/>
        <path id="Path_11970" data-name="Path 11970" d="M286.281,207.481a3.449,3.449,0,0,1-1.333,2.273c-.97.721-1.576-.042-1.667-1.182-.085-1.03,0-2.643,1.158-2.915a1.545,1.545,0,0,1,1.842,1.824Z" transform="translate(-248.975 -197.776)" fill="#b55b52"/>
        <path id="Path_11971" data-name="Path 11971" d="M306.715,279.382l-12.825-.952s-1.661,26.322-1.533,37.48c.127,11.613,5.455,40.08,5.455,40.08l6.194.1s-.491-27.613-.491-39.014c0-15.352,3.218-37.692,3.218-37.692" transform="translate(-274.906 -226.456)" fill="#263238"/>
        <path id="Path_11972" data-name="Path 11972" d="M309.269,325.15c-.17.758-4.94,22.1-6.479,34.547-.818-5.176-1.661-10.988-2.23-16.122Z" transform="translate(-282.418 -244.86)" opacity="0.2"/>
        <path id="Path_11973" data-name="Path 11973" d="M299.617,279.29s-9.764,23.916-11.964,34.407c-2.424,11.485-6.273,40.535-6.273,40.535l6.624,1.03s5.012-21.716,7.818-32.807c3.188-12.643,15.831-32.662,16.364-42.232Z" transform="translate(-273.712 -226.795)" fill="#263238"/>
        <path id="Path_11974" data-name="Path 11974" d="M318.29,402.062l8.231,1.927,1.036-3.17-8.988-1.539Z" transform="translate(-311.452 -274.061)" fill="#931e27"/>
        <path id="Path_11975" data-name="Path 11975" d="M296.974,404.991l7.382.115.036-2.382-8.243-.255Z" transform="translate(-274.869 -275.318)" fill="#931e27"/>
        <path id="Path_11976" data-name="Path 11976" d="M296.026,207.775c.055.291-.055.552-.242.606s-.388-.17-.442-.461.055-.552.248-.606S295.971,207.484,296.026,207.775Z" transform="translate(-266.017 -198.44)" fill="#263238"/>
        <path id="Path_11977" data-name="Path 11977" d="M301.946,209.036a.508.508,0,0,1-.242.606c-.188.055-.388-.17-.442-.461s.055-.558.242-.606S301.891,208.745,301.946,209.036Z" transform="translate(-275.525 -198.937)" fill="#263238"/>
        <path id="Path_11978" data-name="Path 11978" d="M299.391,209.22a10.554,10.554,0,0,1-.921,2.74,1.709,1.709,0,0,0,1.436,0Z" transform="translate(-271.789 -199.194)" fill="#a02724"/>
        <path id="Path_11979" data-name="Path 11979" d="M295.3,214.405a2.424,2.424,0,0,0,1.576-1.109.087.087,0,1,0-.152-.085,2.345,2.345,0,0,1-1.818,1.079.091.091,0,0,0,0,.176A2.32,2.32,0,0,0,295.3,214.405Z" transform="translate(-266.575 -200.748)" fill="#263238"/>
        <path id="Path_11980" data-name="Path 11980" d="M296.122,205.439a.346.346,0,0,0,.079-.048.188.188,0,0,0,0-.249,1.74,1.74,0,0,0-1.521-.442.176.176,0,0,0-.121.212.17.17,0,0,0,.206.121h0a1.388,1.388,0,0,1,1.212.37A.176.176,0,0,0,296.122,205.439Z" transform="translate(-265.755 -197.401)" fill="#263238"/>
        <path id="Path_11981" data-name="Path 11981" d="M302.954,206.935a.176.176,0,0,0,.115-.121,1.346,1.346,0,0,1,.812-.945.174.174,0,1,0-.1-.333,1.715,1.715,0,0,0-1.042,1.212.164.164,0,0,0,.121.212A.133.133,0,0,0,302.954,206.935Z" transform="translate(-278.467 -197.739)" fill="#263238"/>
        <path id="Path_11982" data-name="Path 11982" d="M333.65,410.027a4.241,4.241,0,0,0,.909.321.073.073,0,0,0,.091,0,.085.085,0,0,0,0-.1c-.079-.133-.794-1.321-1.249-1.321a.279.279,0,0,0-.249.151.527.527,0,0,0-.048.491A1.127,1.127,0,0,0,333.65,410.027Zm.746.1a1.776,1.776,0,0,1-1.127-.649.352.352,0,0,1,.042-.333c.036-.061.067-.067.1-.067C333.644,409.075,334.1,409.663,334.4,410.124Z" transform="translate(-327.515 -277.863)" fill="#931e27"/>
        <path id="Path_11983" data-name="Path 11983" d="M333.076,410.039h.048a.1.1,0,0,0,.073-.055,2.6,2.6,0,0,0,.206-1.521.49.49,0,0,0-.279-.273h0a.279.279,0,0,0-.345.079c-.261.327,0,1.376.267,1.733A.06.06,0,0,0,333.076,410.039Zm0-1.655a.309.309,0,0,1,.145.158,2.1,2.1,0,0,1-.145,1.212c-.2-.43-.339-1.182-.188-1.37,0,0,.048-.061.152,0h0Z" transform="translate(-326.05 -277.56)" fill="#931e27"/>
        <path id="Path_11984" data-name="Path 11984" d="M306.874,414.22a.085.085,0,0,0,0-.158c-.164-.091-1.624-.861-2.073-.606a.291.291,0,0,0-.145.23h0a.5.5,0,0,0,.158.424c.394.358,1.442.23,2.036.121Zm-1.976-.636a3.6,3.6,0,0,1,1.649.509,2.382,2.382,0,0,1-1.636-.121.315.315,0,0,1-.1-.285.1.1,0,0,1,.055-.091Z" transform="translate(-282.556 -279.625)" fill="#931e27"/>
        <path id="Path_11985" data-name="Path 11985" d="M306,413.674h0a.1.1,0,0,0,.036-.079,2.527,2.527,0,0,0-.545-1.418.667.667,0,0,0-.479-.158h0a.292.292,0,0,0-.327.242c-.073.412.788,1.212,1.212,1.418A.085.085,0,0,0,306,413.674Zm-1.036-1.473a.157.157,0,0,1,.085,0h0a.442.442,0,0,1,.352.115,2.024,2.024,0,0,1,.467,1.133c-.448-.273-1.03-.909-.988-1.152C304.878,412.261,304.89,412.225,304.963,412.2ZM305.042,412.1Z" transform="translate(-281.682 -279.079)" fill="#931e27"/>
        <path id="Path_11986" data-name="Path 11986" d="M267.34,234.036c1.212,2.152,2.424,4.449,3.515,6.709a52.521,52.521,0,0,1,2.818,6.837c.091.285.158.564.242.842.03.127.085.309.1.394s.036.141.048.212a3.539,3.539,0,0,1-.03,1.146,10.643,10.643,0,0,1-1.182,2.952,37.085,37.085,0,0,1-4.376,5.934l1.758,2.109a26.5,26.5,0,0,0,6.17-5.667,13.63,13.63,0,0,0,2.224-4.1,7.88,7.88,0,0,0,.382-2.746,6.416,6.416,0,0,0-.079-.758c-.03-.248-.067-.376-.1-.57-.073-.352-.139-.721-.218-1.067a46.067,46.067,0,0,0-2.752-7.843A67.015,67.015,0,0,0,272.1,231.2Z" transform="translate(-232.035 -207.852)" fill="#b55b52"/>
        <path id="Path_11987" data-name="Path 11987" d="M274.716,227.526c3.376.927,6.667,10.413,6.667,10.413l-8.128,2.255a26.188,26.188,0,0,1-3.376-6.5C268.171,229.084,270.631,226.411,274.716,227.526Z" transform="translate(-235.604 -206.305)" fill="#931e27"/>
        <g id="Group_10729" data-name="Group 10729" transform="translate(33.726 20.968)" opacity="0.2">
          <path id="Path_11988" data-name="Path 11988" d="M274.716,227.526c3.376.927,6.667,10.413,6.667,10.413l-8.128,2.255a26.188,26.188,0,0,1-3.376-6.5C268.171,229.084,270.631,226.411,274.716,227.526Z" transform="translate(-269.33 -227.273)"/>
        </g>
        <path id="Path_11989" data-name="Path 11989" d="M284.1,276.14l-3.709.976,1.473,3.485s3.327-.7,3.309-2.515Z" transform="translate(-246.096 -225.554)" fill="#b55b52"/>
        <path id="Path_11990" data-name="Path 11990" d="M285.85,280.114l1.1,2.758,1.8-1.636-1.473-3.485Z" transform="translate(-252.981 -226.189)" fill="#b55b52"/>
      </g>
    </g>
    <g id="freepik--Characters--inject-152" transform="translate(2282.698 1466.614)">
      <g id="Group_10721" data-name="Group 10721" transform="translate(55.146 137.428)" opacity="0.6">
        <path id="Path_11803" data-name="Path 11803" d="M590.606,431.247l-.052-1.147-13.522.6s-.624.279-.55.724Z" transform="translate(-576.476 -430.1)" fill="#fff"/>
      </g>
      <path id="Path_11804" data-name="Path 11804" d="M594.179,423.92c0,.07.349.1.689.314s.528.506.589.48-.044-.436-.462-.685S594.162,423.859,594.179,423.92Z" transform="translate(-531.311 -289.153)" fill="#263238"/>
      <path id="Path_11805" data-name="Path 11805" d="M590,425.493c0,.065.288.179.523.471s.31.593.38.593.109-.4-.2-.75S590,425.428,590,425.493Z" transform="translate(-528.955 -290.059)" fill="#263238"/>
      <path id="Path_11806" data-name="Path 11806" d="M587.409,427.938c.061,0,.153-.336-.026-.711s-.506-.519-.536-.462.174.257.318.567S587.348,427.929,587.409,427.938Z" transform="translate(-527.175 -290.785)" fill="#263238"/>
      <path id="Path_11849" data-name="Path 11849" d="M554.414,191.16l3.463,1.91a.955.955,0,0,1-1.361.436,30.253,30.253,0,0,1-2.787-1.544l-1.378.554-1.051-1.274Z" transform="translate(-507.135 -157.954)" fill="#aa6550"/>
      <path id="Path_11850" data-name="Path 11850" d="M537.29,198.018a3.489,3.489,0,0,0,3.236-.305c1.575-1.077,1.688-1.431,2.342-1.631.471-.144,2.669-.436,3.538-.65a.5.5,0,0,0,.2-.872,5.109,5.109,0,0,0-1.492-.305,6.029,6.029,0,0,0-1.365.144,3.6,3.6,0,0,1-1.954-.436l.026-.55,2.181-.388a8.724,8.724,0,0,0,2.412,1.352,2.866,2.866,0,0,0,1.439-.192v-.122l-3.1-2.22-2.9-.489-.872-.153-7.463,4.462,1.941,3.437Z" transform="translate(-497.116 -157.976)" fill="#b78876"/>
      <path id="Path_11857" data-name="Path 11857" d="M500.026,402.614l-1.243,7.664s7.415,3.193,7.328,4.632l-15-1.234,1.457-12.026Z" transform="translate(-473.199 -276.632)" fill="#ff725e"/>
      <path id="Path_11858" data-name="Path 11858" d="M497.629,418.61a.611.611,0,0,0-.51.641.593.593,0,0,0,.632.515.65.65,0,0,0,.536-.685.615.615,0,0,0-.72-.458" transform="translate(-476.586 -286.194)" fill="#ebebeb"/>
      <path id="Path_11859" data-name="Path 11859" d="M491.11,427.669l.148-1.2,14.176,1.444s.768.558.7,1.025Z" transform="translate(-473.199 -290.626)" fill="#ebebeb"/>
      <path id="Path_11860" data-name="Path 11860" d="M507.375,421.2c0,.07-.379.057-.768.249s-.619.471-.685.436.1-.436.576-.663S507.4,421.132,507.375,421.2Z" transform="translate(-481.543 -287.595)" fill="#263238"/>
      <path id="Path_11861" data-name="Path 11861" d="M511.235,423.207c0,.074-.323.161-.611.436s-.4.6-.471.584-.07-.436.3-.772S511.244,423.137,511.235,423.207Z" transform="translate(-483.916 -288.762)" fill="#263238"/>
      <path id="Path_11862" data-name="Path 11862" d="M514.1,426.274c-.07,0-.127-.366.113-.746s.6-.493.624-.436-.218.253-.406.567S514.176,426.279,514.1,426.274Z" transform="translate(-486.128 -289.841)" fill="#263238"/>
      <path id="Path_11863" data-name="Path 11863" d="M507.459,416.777c-.039.061-.362-.083-.776-.1s-.755.065-.785,0,.314-.292.8-.257S507.5,416.725,507.459,416.777Z" transform="translate(-481.535 -284.954)" fill="#263238"/>
      <path id="Path_11864" data-name="Path 11864" d="M507.191,411.821a1.41,1.41,0,0,1-.746-.1,3.45,3.45,0,0,1-1.156-.624.905.905,0,0,1-.205-.2.323.323,0,0,1,0-.393.41.41,0,0,1,.34-.126,1.09,1.09,0,0,1,.275.074,3.016,3.016,0,0,1,.436.218,2.7,2.7,0,0,1,.637.541c.305.366.388.654.362.663s-.174-.227-.5-.536a2.932,2.932,0,0,0-.619-.462,2.774,2.774,0,0,0-.414-.188c-.153-.061-.288-.079-.336,0s-.022.035,0,.087a.826.826,0,0,0,.153.148,3.339,3.339,0,0,0,.366.275,4.362,4.362,0,0,0,.689.371A5.267,5.267,0,0,1,507.191,411.821Z" transform="translate(-481.04 -281.551)" fill="#263238"/>
      <path id="Path_11865" data-name="Path 11865" d="M509.58,410.927a1.221,1.221,0,0,1-.1-.75,2.524,2.524,0,0,1,.205-.807,2.738,2.738,0,0,1,.249-.436.619.619,0,0,1,.523-.314.358.358,0,0,1,.288.244,1.216,1.216,0,0,1,.044.288,1.745,1.745,0,0,1-.48,1.234c-.345.353-.659.4-.663.375a3.224,3.224,0,0,0,.523-.493,1.746,1.746,0,0,0,.327-.672,1.6,1.6,0,0,0,.039-.436c0-.161-.048-.3-.109-.288a.539.539,0,0,0-.292.214,2.71,2.71,0,0,0-.236.379,2.833,2.833,0,0,0-.24.728C509.58,410.635,509.624,410.919,509.58,410.927Z" transform="translate(-483.543 -280.561)" fill="#263238"/>
      <path id="Path_11866" data-name="Path 11866" d="M481.323,404.636l-.637,7.742s7.651,2.6,7.672,4.035l-15.048-.044.5-12.1Z" transform="translate(-463.163 -278.109)" fill="#ff725e"/>
      <path id="Path_11867" data-name="Path 11867" d="M479.02,420.861a.615.615,0,0,0-.458.68.593.593,0,0,0,.672.458.646.646,0,0,0,.48-.724.611.611,0,0,0-.75-.4" transform="translate(-466.121 -287.459)" fill="#ebebeb"/>
      <path id="Path_11868" data-name="Path 11868" d="M473.31,430.438l.048-1.208,14.25.318s.807.5.781.968Z" transform="translate(-463.163 -292.182)" fill="#ebebeb"/>
      <path id="Path_11869" data-name="Path 11869" d="M488.963,422.6c0,.07-.375.087-.75.31s-.576.519-.646.484.065-.436.519-.707S488.981,422.531,488.963,422.6Z" transform="translate(-471.192 -288.397)" fill="#263238"/>
      <path id="Path_11870" data-name="Path 11870" d="M492.964,424.33c0,.074-.31.183-.576.48s-.349.628-.436.619-.1-.436.236-.789S492.964,424.26,492.964,424.33Z" transform="translate(-473.644 -289.402)" fill="#263238"/>
      <path id="Path_11871" data-name="Path 11871" d="M496.093,427.193c-.065,0-.153-.362.057-.755s.558-.536.585-.475-.192.266-.358.593S496.167,427.188,496.093,427.193Z" transform="translate(-475.966 -290.332)" fill="#263238"/>
      <path id="Path_11872" data-name="Path 11872" d="M488.642,418.241c-.035.065-.366-.052-.781-.044s-.746.127-.785.061.288-.314.781-.318S488.681,418.184,488.642,418.241Z" transform="translate(-470.923 -285.816)" fill="#263238"/>
      <path id="Path_11873" data-name="Path 11873" d="M487.991,413.319a1.43,1.43,0,0,1-.755-.039,3.308,3.308,0,0,1-.776-.279,3.554,3.554,0,0,1-.436-.249.91.91,0,0,1-.218-.188.327.327,0,0,1,0-.393.4.4,0,0,1,.331-.153.872.872,0,0,1,.279.052,2.441,2.441,0,0,1,.462.183,2.652,2.652,0,0,1,.676.489,1.321,1.321,0,0,1,.414.632c-.022.013-.2-.218-.537-.5a3.253,3.253,0,0,0-.654-.41,3.771,3.771,0,0,0-.436-.153c-.157-.048-.292-.057-.34,0s0,.039,0,.087a.905.905,0,0,0,.161.135,4.367,4.367,0,0,0,.388.244,4.176,4.176,0,0,0,.715.314A5.008,5.008,0,0,1,487.991,413.319Z" transform="translate(-470.171 -282.478)" fill="#263238"/>
      <path id="Path_11874" data-name="Path 11874" d="M490.447,412.231a1.182,1.182,0,0,1-.166-.737,2.5,2.5,0,0,1,.14-.82,3,3,0,0,1,.214-.436.632.632,0,0,1,.5-.358.34.34,0,0,1,.3.227.873.873,0,0,1,.065.279,1.622,1.622,0,0,1,0,.506,1.705,1.705,0,0,1-.358.763,1.174,1.174,0,0,1-.628.436,2.313,2.313,0,0,0,.484-.532,1.811,1.811,0,0,0,.27-.7,1.465,1.465,0,0,0,0-.436c0-.161-.07-.292-.131-.279a.544.544,0,0,0-.275.236,2.459,2.459,0,0,0-.2.4,2.552,2.552,0,0,0-.179.746C490.421,411.943,490.487,412.222,490.447,412.231Z" transform="translate(-472.728 -281.272)" fill="#263238"/>
      <path id="Path_11875" data-name="Path 11875" d="M474.47,145.939l8.5,1.745c.065-.96-.2-6.979-.2-6.979a4.122,4.122,0,0,0,3.533-3.926c.1-3.446-.388-11.31-.388-11.31h0a11.917,11.917,0,0,0-11.991,1.33l-.515.384Z" transform="translate(-463.219 -120.332)" fill="#b78876"/>
      <path id="Path_11876" data-name="Path 11876" d="M489.13,159.983a8.287,8.287,0,0,1-4.44-1.383,4.292,4.292,0,0,0,4.48,2.22Z" transform="translate(-469.579 -139.596)" fill="#aa6550"/>
      <path id="Path_11877" data-name="Path 11877" d="M471.277,138.847c-.061-.026-2.347-.728-2.307,1.614a1.753,1.753,0,0,0,2.39,1.745C471.364,142.127,471.277,138.847,471.277,138.847Z" transform="translate(-460.715 -128.392)" fill="#b78876"/>
      <path id="Path_11878" data-name="Path 11878" d="M471.376,142.271a.714.714,0,0,1-.109.065.436.436,0,0,1-.305,0,1.021,1.021,0,0,1-.484-.9,1.4,1.4,0,0,1,.1-.585.462.462,0,0,1,.305-.318.2.2,0,0,1,.24.1c.035.065,0,.113.031.118s.052-.039.031-.135a.249.249,0,0,0-.1-.148.323.323,0,0,0-.227-.057.58.58,0,0,0-.436.371,1.4,1.4,0,0,0-.131.659,1.064,1.064,0,0,0,.615,1,.436.436,0,0,0,.371-.07C471.371,142.327,471.384,142.275,471.376,142.271Z" transform="translate(-461.464 -129.342)" fill="#aa6550"/>
      <path id="Path_11879" data-name="Path 11879" d="M499.047,139.164a.489.489,0,0,1-.48.484.462.462,0,0,1-.5-.436.489.489,0,0,1,.48-.484.462.462,0,0,1,.5.436Z" transform="translate(-477.123 -128.391)" fill="#263238"/>
      <path id="Path_11880" data-name="Path 11880" d="M497.916,137.237c-.061.061-.436-.218-.955-.222s-.916.249-.973.183.035-.144.205-.262a1.308,1.308,0,0,1,.781-.227,1.274,1.274,0,0,1,.759.257C497.894,137.093,497.947,137.206,497.916,137.237Z" transform="translate(-475.94 -127.253)" fill="#263238"/>
      <path id="Path_11881" data-name="Path 11881" d="M487.3,138.985a.489.489,0,0,1-.48.489.475.475,0,0,1-.5-.436.493.493,0,0,1,.48-.489.467.467,0,0,1,.5.436Z" transform="translate(-470.498 -128.29)" fill="#263238"/>
      <path id="Path_11882" data-name="Path 11882" d="M486.048,137.317c-.061.061-.436-.218-.955-.222s-.92.249-.973.183.035-.144.2-.262a1.308,1.308,0,0,1,.781-.227,1.274,1.274,0,0,1,.759.257C486.022,137.16,486.079,137.273,486.048,137.317Z" transform="translate(-469.25 -127.298)" fill="#263238"/>
      <path id="Path_11883" data-name="Path 11883" d="M492.579,141.322a3.415,3.415,0,0,1,.872-.144c.135,0,.266-.035.288-.126a.689.689,0,0,0-.083-.4l-.384-1.029a17.8,17.8,0,0,1-.872-2.691,17,17,0,0,1,1.069,2.617c.131.362.253.707.366,1.038a.763.763,0,0,1,.061.528.322.322,0,0,1-.222.192.928.928,0,0,1-.227.031A3.537,3.537,0,0,1,492.579,141.322Z" transform="translate(-473.926 -127.378)" fill="#263238"/>
      <path id="Path_11884" data-name="Path 11884" d="M489.123,147.77c.087,0,.079.571.563.981s1.095.362,1.095.436-.135.109-.393.113a1.431,1.431,0,0,1-.916-.336,1.243,1.243,0,0,1-.436-.82C489.019,147.909,489.084,147.765,489.123,147.77Z" transform="translate(-472.028 -133.49)" fill="#263238"/>
      <path id="Path_11885" data-name="Path 11885" d="M485.827,132.707c-.057.144-.58.065-1.2.131s-1.121.227-1.2.1c-.039-.061.052-.192.257-.327a1.923,1.923,0,0,1,.872-.3,2,2,0,0,1,.938.126C485.736,132.524,485.854,132.637,485.827,132.707Z" transform="translate(-468.863 -124.765)" fill="#263238"/>
      <path id="Path_11886" data-name="Path 11886" d="M497.7,133.7c-.1.118-.436,0-.894-.026s-.807.07-.872-.057c-.035-.061.026-.179.188-.292a1.247,1.247,0,0,1,.728-.183,1.234,1.234,0,0,1,.707.249C497.7,133.512,497.765,133.634,497.7,133.7Z" transform="translate(-475.916 -125.238)" fill="#263238"/>
      <path id="Path_11887" data-name="Path 11887" d="M486.075,118.071a1.256,1.256,0,0,0-.436-1.138.9.9,0,0,0-1.165.07,1.042,1.042,0,0,0-.872-1.282c-.558-.044-1.043.371-1.583.51a2.5,2.5,0,0,1-1.6-.209c-.506-.209-.977-.5-1.487-.694a4.362,4.362,0,0,0-5.644,2.491,1.95,1.95,0,0,0-2.076.75,3.206,3.206,0,0,0-.523,2.242,7.245,7.245,0,0,0,.371,1.544v.131c0,1.889.188,4.1.99,4.126,1.4.044,1.108-2.617,1.108-2.617,1.745-.637,1.125-3.223,1.562-3.607s1.352-1.282,4.924.611a6.979,6.979,0,0,0,4.266.528h.14a3.244,3.244,0,0,0,.929-.375,1.845,1.845,0,0,0,.776-.837.994.994,0,0,0-.183-1.073A2.155,2.155,0,0,0,486.075,118.071Z" transform="translate(-461.669 -115.031)" fill="#263238"/>
      <path id="Path_11888" data-name="Path 11888" d="M523.1,220.42l5.67,2.408,1.745.022a1.906,1.906,0,0,1,1.357.6l2.368,2.355.209,2.709-1.8,1.361s-.659.061-.436-.694l-1.073.676h-1.152l-1.117-.157-1-1.339s-.2-.5.759-.218l.9.715.907-.916-1.78-1.37-2.757-.183a.986.986,0,0,1-.7-.34l-.842-.964-1.636-.262Z" transform="translate(-491.021 -174.451)" fill="#b78876"/>
      <path id="Path_11889" data-name="Path 11889" d="M545.031,233a8.052,8.052,0,0,1,.318,1.858,1.4,1.4,0,0,1-.048.781,1.344,1.344,0,0,1-.462.436c-.288.188-.406.34-.436.331s.065-.236.332-.436a1.478,1.478,0,0,0,.371-.4,1.347,1.347,0,0,0,0-.667,7.954,7.954,0,0,1-.074-1.9Z" transform="translate(-503.243 -181.544)" fill="#aa6550"/>
      <path id="Path_11890" data-name="Path 11890" d="M539.08,238.629a6.013,6.013,0,0,1,1.156-1.082.7.7,0,0,0,.183-.493c.022-.188.035-.358.044-.5,0-.288.026-.467.061-.467s.078.17.1.467a4.891,4.891,0,0,1,0,.515,1.755,1.755,0,0,1-.039.314.72.72,0,0,1-.192.323A5.233,5.233,0,0,1,539.08,238.629Z" transform="translate(-500.245 -183.286)" fill="#aa6550"/>
      <path id="Path_11891" data-name="Path 11891" d="M542.05,238.019a3.457,3.457,0,0,1,.8-.624h0c-.048.057,0,0-.022,0v-.318a1.629,1.629,0,0,1,.035-.406,7.909,7.909,0,0,1,.183-1.771,6.688,6.688,0,0,1,.044,1.793,2.067,2.067,0,0,1-.039.406l-.026.192v.144c0,.026,0,0-.052.1h0A3.141,3.141,0,0,1,542.05,238.019Z" transform="translate(-501.92 -182.615)" fill="#aa6550"/>
      <path id="Path_11896" data-name="Path 11896" d="M487.774,287c-.432-4.994-6.054-32.91-6.054-32.91l-6.612,1.745h0L462.27,253.39l-1.077,8.235a12.584,12.584,0,0,0,1.335,7.476l2.159,22.821,1.025,34.319,10.595-.3.035-1.788,6.826.672S488.2,292,487.774,287Zm-10.809,4.842-.092-1.832.118.558Z" transform="translate(-456.272 -193.04)" fill="#263238"/>
      <path id="Path_11897" data-name="Path 11897" d="M464.46,285.176a1.559,1.559,0,0,0,.039.284l.092.837c.074.746.183,1.836.327,3.241.275,2.822.672,6.914,1.169,12,.654,5.077.676,11.2.929,18.032s.458,14.394.711,22.4l-.118-.109,7.014-.2,3.581-.1-.109.113c.166-8.418.327-16.4.471-23.637.074-3.616.144-7.049.209-10.255.057-1.6,0-3.149,0-4.637s-.035-2.909-.052-4.27c-.065-5.435-.113-9.814-.148-12.85,0-1.5-.026-2.678-.031-3.489v-.9c0,.2,0,.51.022.9,0,.8.039,1.972.07,3.489.052,3.031.126,7.415.222,12.85q.035,2.041.065,4.27c0,1.487.079,3.053.026,4.637-.061,3.21-.122,6.639-.188,10.259-.14,7.236-.292,15.218-.436,23.637v.109h-.109l-3.577.1-7.014.2h-.113v-.109c-.244-8.008-.475-15.567-.685-22.4s-.249-12.955-.872-18.032c-.467-5.082-.842-9.16-1.1-12-.126-1.4-.222-2.495-.288-3.241-.031-.362-.052-.646-.07-.842A2.086,2.086,0,0,0,464.46,285.176Z" transform="translate(-458.173 -208.787)" fill="#455a64"/>
      <path id="Path_11898" data-name="Path 11898" d="M496.245,171s4,1.657,4.445,4.218c.144.833,2.5,12.183,2.5,12.183l9.025-3.978,3.437,4.842-14.582,9.544h0l-5.173-3.415Z" transform="translate(-475.9 -146.587)" fill="#455a64"/>
      <path id="Path_11899" data-name="Path 11899" d="M504.226,184.63a.919.919,0,0,1,.044.231l.065.659c.044.6.1,1.422.174,2.421.126,2.076.3,4.89.493,8s.388,5.919.523,8c.07,1,.131,1.819.174,2.421,0,.266.031.484.039.663a.787.787,0,0,1,0,.231.908.908,0,0,1-.044-.227c-.022-.179-.052-.393-.083-.659-.07-.567-.153-1.4-.249-2.416-.183-2.041-.4-4.868-.589-8s-.336-5.954-.436-8c-.044-1-.079-1.819-.1-2.425v-.663a.8.8,0,0,1-.013-.231Z" transform="translate(-480.592 -154.272)" fill="#263238"/>
      <path id="Path_11900" data-name="Path 11900" d="M473.128,166.512l-.872-2.674-1.13,3.83L463.4,163.04l-1.383,2.373-6.072,3.2c-.646,1.138-1.042,11.463-1.042,11.463,0,.554,3.489,15.131,3.489,15.131l-2.255,17.347,20.086.3.174-7.267,1.378,7.289,4.043-1.152-3.642-17.945-5.125-27.589" transform="translate(-452.783 -142.099)" fill="#455a64"/>
      <path id="Path_11901" data-name="Path 11901" d="M453.3,175.83h0c-3.533,3.005-3.537,6.717-2.578,10.468L453.8,196.4a7.651,7.651,0,0,0,8.187,5.714l20.021-1.688.222-5.557-19.659-2.006Z" transform="translate(-450.118 -149.31)" fill="#455a64"/>
      <path id="Path_11902" data-name="Path 11902" d="M453.224,175.83l-.079.079-.24.227-.4.362c-.161.144-.305.349-.493.558-.087.109-.188.218-.284.345l-.266.414a3.882,3.882,0,0,0-.284.458l-.257.528a8.681,8.681,0,0,0-.715,2.683,11.635,11.635,0,0,0,.2,3.441,18.421,18.421,0,0,0,.545,1.889l.637,2.02c.872,2.787,1.871,5.928,2.949,9.347h0a5.8,5.8,0,0,0,3.232,3.245,9.823,9.823,0,0,0,5,.532h0l12.03-1.016,7.136-.611-.1.109q.113-2.844.222-5.557l.1.113-19.659-2.037h-.048v-.048c-1.343-3.952-2.43-7.153-3.184-9.378-.366-1.1-.654-1.958-.851-2.552-.1-.288-.166-.51-.218-.667a1.986,1.986,0,0,1-.065-.227s.031.07.087.218l.236.659.9,2.543c.768,2.216,1.88,5.409,3.25,9.352l-.07-.052,19.663,1.976h.1v.1q-.1,2.709-.218,5.557v.1h-.1l-7.127.6-12.03,1.008h0a10.032,10.032,0,0,1-5.121-.558,6.015,6.015,0,0,1-3.337-3.363h0c-1.069-3.424-2.046-6.565-2.914-9.356l-.632-2.024a19.1,19.1,0,0,1-.537-1.906,11.73,11.73,0,0,1-.174-3.489,8.8,8.8,0,0,1,.75-2.709l.266-.528a5.243,5.243,0,0,1,.292-.462l.275-.414c.1-.122.2-.231.292-.34a7.42,7.42,0,0,1,.51-.55l.41-.358.253-.214A.663.663,0,0,1,453.224,175.83Z" transform="translate(-450.047 -149.31)" fill="#263238"/>
      <path id="Path_11903" data-name="Path 11903" d="M458.965,180.923a9.6,9.6,0,0,1-.9-.436,5.849,5.849,0,0,0-2.281-.571,3.9,3.9,0,0,0-2.22.637,9.267,9.267,0,0,0-.75.641,1.85,1.85,0,0,1,.654-.772,3.751,3.751,0,0,1,2.32-.733,5.234,5.234,0,0,1,2.351.654A2.844,2.844,0,0,1,458.965,180.923Z" transform="translate(-451.605 -151.485)" fill="#263238"/>
      <path id="Path_11904" data-name="Path 11904" d="M472.35,163.747l10.817,21.84,1.893.166-2.094-20.082L482.112,163l-1.147,3.625-7.751-5.082Z" transform="translate(-462.622 -141.253)" fill="#fff"/>
      <path id="Path_11905" data-name="Path 11905" d="M495.523,192.335a5.339,5.339,0,0,1-.2-.742c-.113-.48-.266-1.178-.436-2.041-.358-1.745-.82-4.118-1.309-6.765s-.872-5.051-1.152-6.8c-.135-.872-.236-1.579-.3-2.068a4.443,4.443,0,0,1-.07-.763,5.66,5.66,0,0,1,.157.75c.092.523.218,1.217.366,2.054.318,1.771.746,4.148,1.221,6.778s.907,5.007,1.23,6.778l.375,2.054A4.638,4.638,0,0,1,495.523,192.335Z" transform="translate(-473.735 -147.805)" fill="#263238"/>
      <path id="Path_11906" data-name="Path 11906" d="M480.965,169.474s0,.026-.052.061a.655.655,0,0,0-.144.157,2.469,2.469,0,0,0-.336.746,11.158,11.158,0,0,0-.327,2.909v.227l-.17-.148c-.689-.6-1.492-1.265-2.338-1.963-1.522-1.256-2.888-2.421-3.817-3.328-.467-.436-.829-.829-1.073-1.1a3.113,3.113,0,0,1-.358-.436,2.315,2.315,0,0,1,.436.375c.262.249.641.611,1.121,1.042.955.872,2.329,2.011,3.856,3.271.842.7,1.64,1.37,2.325,1.985l-.17.074a10.032,10.032,0,0,1,.414-2.944,2.181,2.181,0,0,1,.4-.755.654.654,0,0,1,.179-.144A.056.056,0,0,1,480.965,169.474Z" transform="translate(-462.622 -144.106)" fill="#263238"/>
      <path id="Path_11907" data-name="Path 11907" d="M494.09,171a3.1,3.1,0,0,1-.031.925c-.052.571-.183,1.348-.292,2.207v.07l-.07.545-.153-.523a7.563,7.563,0,0,0-.746-2,.589.589,0,0,0-.489-.292c-.14,0-.222.048-.231.026s.061-.078.222-.113a.65.65,0,0,1,.619.284,6.066,6.066,0,0,1,.842,2.033h-.222v-.074c.113-.872.266-1.636.362-2.181A4.457,4.457,0,0,1,494.09,171Z" transform="translate(-473.745 -146.587)" fill="#263238"/>
      <path id="Path_11908" data-name="Path 11908" d="M470.51,245.383a.918.918,0,0,1,.183-.039l.558-.087,2.1-.3,7.245-.96h.148l-.026.148-.606,3.1v.083H480c-4.253.371-8.039.689-10.438.872h-.109l.035-.1c.314-.846.563-1.527.746-2.024l.2-.528a.9.9,0,0,1,.079-.17.916.916,0,0,1-.052.2l-.17.55c-.166.493-.388,1.173-.667,2.015l-.074-.092c2.395-.236,6.176-.589,10.429-.96h.03l-.1.092c.214-1.073.436-2.115.611-3.1l.122.126-7.21.872-2.129.236-.576.057A.7.7,0,0,1,470.51,245.383Z" transform="translate(-460.987 -187.746)" fill="#263238"/>
      <path id="Path_11909" data-name="Path 11909" d="M482.659,190.126a.592.592,0,0,1-.14-.1l-.371-.327-1.378-1.243L476.1,184.09h0v-.026c-.327-.96-.676-1.993-1.034-3.053l-2.7-8.152-.794-2.478c-.083-.275-.153-.5-.2-.676a.985.985,0,0,1-.057-.244,1.312,1.312,0,0,1,.1.227l.244.667.872,2.456c.715,2.107,1.692,4.968,2.765,8.13l1.025,3.053-.026-.044,4.61,4.419,1.309,1.309.349.353a.682.682,0,0,1,.1.1Z" transform="translate(-462.035 -145.719)" fill="#263238"/>
      <path id="Path_11910" data-name="Path 11910" d="M475.745,214.7c.048.052-.646.659-1.213,1.614a19.827,19.827,0,0,0-.872,1.828,4.877,4.877,0,0,1,2.076-3.441Z" transform="translate(-463.36 -171.226)" fill="#263238"/>
      <path id="Path_11911" data-name="Path 11911" d="M502.569,234.09c.061,0,.3,2.809.528,6.29s.362,6.3.3,6.3-.3-2.813-.528-6.29S502.5,234.094,502.569,234.09Z" transform="translate(-479.651 -182.158)" fill="#263238"/>
      <g id="Group_10724" data-name="Group 10724" transform="translate(4.839 49.807)" opacity="0.3">
        <path id="Path_11912" data-name="Path 11912" d="M461.14,229.22s.977,5.513,4.414,5.1,13.085-2.983,13.085-2.983l-10.468.9S463.351,232.849,461.14,229.22Z" transform="translate(-461.14 -229.22)"/>
      </g>
      <g id="Group_10725" data-name="Group 10725" transform="translate(24 36.622)" opacity="0.3">
        <path id="Path_11913" data-name="Path 11913" d="M505.07,198.99l.061.266,1.858,8.061-1.422-.144" transform="translate(-505.07 -198.99)"/>
      </g>
    </g>
  </g>
</svg>
