<svg xmlns="http://www.w3.org/2000/svg" width="314.953" height="187.307" viewBox="0 0 314.953 187.307">
  <g id="City_driver-cuate" data-name="City driver-cuate" transform="translate(-47.51 -64.464)">
    <g id="freepik--background-complete--inject-101" transform="translate(61.695 64.464)">
      <path id="Path_11304" data-name="Path 11304" d="M77.01,110.737h24.865v30.193h6.4V123.836h31.616V150.9h4.183V87.387h27.476v17.436h14.084V126.51H189.9V112.872h24.976v40.709h7.309v-33.1h22.846V95.35h15.532V81.03h17.97v63.5h6.04v-26.5h29.6v37.925h4.1V125h30.015V97.11h15.315V204.255H77.01Z" transform="translate(-77.01 -73.064)" fill="#ebebeb"/>
      <rect id="Rectangle_2451" data-name="Rectangle 2451" width="4.208" height="5.77" transform="translate(3.049 41.472)" fill="#fff"/>
      <rect id="Rectangle_2452" data-name="Rectangle 2452" width="4.208" height="5.77" transform="translate(10.343 41.472)" fill="#fff"/>
      <rect id="Rectangle_2453" data-name="Rectangle 2453" width="4.208" height="5.77" transform="translate(17.633 41.472)" fill="#fff"/>
      <rect id="Rectangle_2454" data-name="Rectangle 2454" width="4.208" height="5.77" transform="translate(3.049 50.156)" fill="#fff"/>
      <rect id="Rectangle_2455" data-name="Rectangle 2455" width="4.208" height="5.77" transform="translate(10.343 50.156)" fill="#fff"/>
      <rect id="Rectangle_2456" data-name="Rectangle 2456" width="4.208" height="5.77" transform="translate(17.633 50.156)" fill="#fff"/>
      <rect id="Rectangle_2457" data-name="Rectangle 2457" width="4.208" height="5.77" transform="translate(3.049 58.841)" fill="#fff"/>
      <rect id="Rectangle_2458" data-name="Rectangle 2458" width="4.208" height="5.77" transform="translate(10.343 58.841)" fill="#fff"/>
      <rect id="Rectangle_2459" data-name="Rectangle 2459" width="4.208" height="5.77" transform="translate(17.633 58.841)" fill="#fff"/>
      <rect id="Rectangle_2460" data-name="Rectangle 2460" width="4.208" height="5.77" transform="translate(3.049 67.525)" fill="#fff"/>
      <rect id="Rectangle_2461" data-name="Rectangle 2461" width="4.208" height="5.77" transform="translate(10.343 67.525)" fill="#fff"/>
      <rect id="Rectangle_2462" data-name="Rectangle 2462" width="4.208" height="5.77" transform="translate(17.633 67.525)" fill="#fff"/>
      <rect id="Rectangle_2463" data-name="Rectangle 2463" width="4.208" height="4.813" transform="translate(148.681 51.546)" fill="#fff"/>
      <rect id="Rectangle_2464" data-name="Rectangle 2464" width="4.208" height="4.813" transform="translate(155.971 51.546)" fill="#fff"/>
      <rect id="Rectangle_2465" data-name="Rectangle 2465" width="4.208" height="4.813" transform="translate(163.261 51.546)" fill="#fff"/>
      <rect id="Rectangle_2466" data-name="Rectangle 2466" width="4.208" height="4.813" transform="translate(148.681 58.793)" fill="#fff"/>
      <rect id="Rectangle_2467" data-name="Rectangle 2467" width="4.208" height="4.813" transform="translate(155.971 58.793)" fill="#fff"/>
      <rect id="Rectangle_2468" data-name="Rectangle 2468" width="4.208" height="4.813" transform="translate(163.261 58.793)" fill="#fff"/>
      <rect id="Rectangle_2469" data-name="Rectangle 2469" width="4.208" height="4.813" transform="translate(148.681 66.039)" fill="#fff"/>
      <rect id="Rectangle_2470" data-name="Rectangle 2470" width="4.208" height="4.813" transform="translate(155.971 66.039)" fill="#fff"/>
      <rect id="Rectangle_2471" data-name="Rectangle 2471" width="4.208" height="4.813" transform="translate(163.261 66.039)" fill="#fff"/>
      <rect id="Rectangle_2472" data-name="Rectangle 2472" width="4.208" height="4.813" transform="translate(148.681 73.281)" fill="#fff"/>
      <rect id="Rectangle_2473" data-name="Rectangle 2473" width="4.208" height="4.813" transform="translate(155.971 73.281)" fill="#fff"/>
      <rect id="Rectangle_2474" data-name="Rectangle 2474" width="4.208" height="4.813" transform="translate(163.261 73.281)" fill="#fff"/>
      <rect id="Rectangle_2475" data-name="Rectangle 2475" width="4.208" height="4.813" transform="translate(148.681 80.71)" fill="#fff"/>
      <rect id="Rectangle_2476" data-name="Rectangle 2476" width="4.208" height="4.813" transform="translate(155.971 80.71)" fill="#fff"/>
      <rect id="Rectangle_2477" data-name="Rectangle 2477" width="4.208" height="4.813" transform="translate(163.261 80.71)" fill="#fff"/>
      <rect id="Rectangle_2478" data-name="Rectangle 2478" width="4.208" height="4.813" transform="translate(148.681 88.135)" fill="#fff"/>
      <rect id="Rectangle_2479" data-name="Rectangle 2479" width="4.208" height="4.813" transform="translate(155.971 88.135)" fill="#fff"/>
      <rect id="Rectangle_2480" data-name="Rectangle 2480" width="4.208" height="4.813" transform="translate(163.261 88.135)" fill="#fff"/>
      <rect id="Rectangle_2481" data-name="Rectangle 2481" width="4.208" height="4.813" transform="translate(148.681 95.559)" fill="#fff"/>
      <rect id="Rectangle_2482" data-name="Rectangle 2482" width="4.208" height="4.813" transform="translate(155.971 95.559)" fill="#fff"/>
      <rect id="Rectangle_2483" data-name="Rectangle 2483" width="4.208" height="4.813" transform="translate(163.261 95.559)" fill="#fff"/>
      <rect id="Rectangle_2484" data-name="Rectangle 2484" width="4.208" height="4.813" transform="translate(148.681 102.983)" fill="#fff"/>
      <rect id="Rectangle_2485" data-name="Rectangle 2485" width="4.208" height="4.813" transform="translate(155.971 102.983)" fill="#fff"/>
      <rect id="Rectangle_2486" data-name="Rectangle 2486" width="4.208" height="4.813" transform="translate(163.261 102.983)" fill="#fff"/>
      <rect id="Rectangle_2487" data-name="Rectangle 2487" width="24.216" height="3.611" transform="translate(34.853 54.474)" fill="#fff"/>
      <rect id="Rectangle_2488" data-name="Rectangle 2488" width="24.216" height="3.611" transform="translate(34.853 61.481)" fill="#fff"/>
      <rect id="Rectangle_2489" data-name="Rectangle 2489" width="24.216" height="3.611" transform="translate(34.853 68.487)" fill="#fff"/>
      <rect id="Rectangle_2490" data-name="Rectangle 2490" width="24.216" height="3.611" transform="translate(34.853 75.488)" fill="#fff"/>
      <rect id="Rectangle_2491" data-name="Rectangle 2491" width="24.216" height="3.611" transform="translate(34.853 82.494)" fill="#fff"/>
      <rect id="Rectangle_2492" data-name="Rectangle 2492" width="24.216" height="3.611" transform="translate(34.853 89.5)" fill="#fff"/>
      <rect id="Rectangle_2493" data-name="Rectangle 2493" width="24.216" height="3.611" transform="translate(34.853 96.506)" fill="#fff"/>
      <rect id="Rectangle_2494" data-name="Rectangle 2494" width="24.216" height="3.611" transform="translate(34.853 103.508)" fill="#fff"/>
      <rect id="Rectangle_2495" data-name="Rectangle 2495" width="22.264" height="3.611" transform="translate(211.135 48.334)" fill="#fff"/>
      <rect id="Rectangle_2496" data-name="Rectangle 2496" width="22.264" height="3.611" transform="translate(211.135 55.34)" fill="#fff"/>
      <rect id="Rectangle_2497" data-name="Rectangle 2497" width="22.264" height="3.611" transform="translate(211.135 62.341)" fill="#fff"/>
      <rect id="Rectangle_2498" data-name="Rectangle 2498" width="22.264" height="3.611" transform="translate(211.135 69.347)" fill="#fff"/>
      <rect id="Rectangle_2499" data-name="Rectangle 2499" width="22.264" height="3.611" transform="translate(211.135 76.354)" fill="#fff"/>
      <rect id="Rectangle_2500" data-name="Rectangle 2500" width="22.264" height="3.611" transform="translate(211.135 83.355)" fill="#fff"/>
      <rect id="Rectangle_2501" data-name="Rectangle 2501" width="22.264" height="3.611" transform="translate(211.135 90.361)" fill="#fff"/>
      <rect id="Rectangle_2502" data-name="Rectangle 2502" width="22.264" height="3.611" transform="translate(211.135 97.367)" fill="#fff"/>
      <rect id="Rectangle_2503" data-name="Rectangle 2503" width="22.264" height="3.611" transform="translate(211.135 104.022)" fill="#fff"/>
      <rect id="Rectangle_2504" data-name="Rectangle 2504" width="22.264" height="3.611" transform="translate(211.135 110.677)" fill="#fff"/>
      <rect id="Rectangle_2505" data-name="Rectangle 2505" width="22.264" height="3.611" transform="translate(211.135 117.332)" fill="#fff"/>
      <rect id="Rectangle_2506" data-name="Rectangle 2506" width="22.264" height="3.611" transform="translate(211.135 123.992)" fill="#fff"/>
      <rect id="Rectangle_2507" data-name="Rectangle 2507" width="23.519" height="3.611" transform="translate(245.882 56.792)" fill="#fff"/>
      <rect id="Rectangle_2508" data-name="Rectangle 2508" width="23.519" height="3.611" transform="translate(245.882 63.798)" fill="#fff"/>
      <rect id="Rectangle_2509" data-name="Rectangle 2509" width="23.519" height="3.611" transform="translate(245.882 70.804)" fill="#fff"/>
      <rect id="Rectangle_2510" data-name="Rectangle 2510" width="23.519" height="3.611" transform="translate(245.882 77.811)" fill="#fff"/>
      <rect id="Rectangle_2511" data-name="Rectangle 2511" width="23.519" height="3.611" transform="translate(245.882 84.812)" fill="#fff"/>
      <rect id="Rectangle_2512" data-name="Rectangle 2512" width="23.519" height="3.611" transform="translate(245.882 91.818)" fill="#fff"/>
      <rect id="Rectangle_2513" data-name="Rectangle 2513" width="23.519" height="3.611" transform="translate(245.882 98.824)" fill="#fff"/>
      <rect id="Rectangle_2514" data-name="Rectangle 2514" width="23.519" height="3.611" transform="translate(245.882 105.825)" fill="#fff"/>
      <rect id="Rectangle_2515" data-name="Rectangle 2515" width="23.519" height="3.611" transform="translate(245.882 112.096)" fill="#fff"/>
      <rect id="Rectangle_2516" data-name="Rectangle 2516" width="23.519" height="3.611" transform="translate(245.882 118.366)" fill="#fff"/>
      <rect id="Rectangle_2517" data-name="Rectangle 2517" width="23.519" height="3.611" transform="translate(245.882 124.637)" fill="#fff"/>
      <rect id="Rectangle_2518" data-name="Rectangle 2518" width="7.477" height="3.486" transform="translate(120.195 43.073)" fill="#fff"/>
      <rect id="Rectangle_2519" data-name="Rectangle 2519" width="7.477" height="3.486" transform="translate(120.195 49.839)" fill="#fff"/>
      <rect id="Rectangle_2520" data-name="Rectangle 2520" width="7.477" height="3.486" transform="translate(120.195 56.605)" fill="#fff"/>
      <rect id="Rectangle_2521" data-name="Rectangle 2521" width="7.477" height="3.486" transform="translate(120.195 63.37)" fill="#fff"/>
      <rect id="Rectangle_2522" data-name="Rectangle 2522" width="7.477" height="3.486" transform="translate(120.195 70.131)" fill="#fff"/>
      <rect id="Rectangle_2523" data-name="Rectangle 2523" width="7.477" height="3.486" transform="translate(120.195 76.897)" fill="#fff"/>
      <rect id="Rectangle_2524" data-name="Rectangle 2524" width="7.477" height="3.486" transform="translate(120.195 83.663)" fill="#fff"/>
      <rect id="Rectangle_2525" data-name="Rectangle 2525" width="7.477" height="3.486" transform="translate(120.195 90.428)" fill="#fff"/>
      <rect id="Rectangle_2526" data-name="Rectangle 2526" width="7.477" height="3.486" transform="translate(130.37 43.073)" fill="#fff"/>
      <rect id="Rectangle_2527" data-name="Rectangle 2527" width="7.477" height="3.486" transform="translate(130.37 49.839)" fill="#fff"/>
      <rect id="Rectangle_2528" data-name="Rectangle 2528" width="7.477" height="3.486" transform="translate(130.37 56.605)" fill="#fff"/>
      <rect id="Rectangle_2529" data-name="Rectangle 2529" width="7.477" height="3.486" transform="translate(130.37 63.37)" fill="#fff"/>
      <rect id="Rectangle_2530" data-name="Rectangle 2530" width="7.477" height="3.486" transform="translate(130.37 70.131)" fill="#fff"/>
      <rect id="Rectangle_2531" data-name="Rectangle 2531" width="7.477" height="3.486" transform="translate(130.37 76.897)" fill="#fff"/>
      <rect id="Rectangle_2532" data-name="Rectangle 2532" width="7.477" height="3.486" transform="translate(130.37 83.663)" fill="#fff"/>
      <rect id="Rectangle_2533" data-name="Rectangle 2533" width="7.477" height="3.486" transform="translate(130.37 90.428)" fill="#fff"/>
      <rect id="Rectangle_2534" data-name="Rectangle 2534" width="7.79" height="5.496" transform="translate(71.23 17.977)" fill="#fff"/>
      <rect id="Rectangle_2535" data-name="Rectangle 2535" width="7.79" height="5.496" transform="translate(82.842 17.977)" fill="#fff"/>
      <rect id="Rectangle_2536" data-name="Rectangle 2536" width="7.79" height="5.496" transform="translate(71.23 26.056)" fill="#fff"/>
      <rect id="Rectangle_2537" data-name="Rectangle 2537" width="7.79" height="5.496" transform="translate(82.842 26.056)" fill="#fff"/>
      <rect id="Rectangle_2538" data-name="Rectangle 2538" width="7.79" height="5.496" transform="translate(71.23 34.129)" fill="#fff"/>
      <rect id="Rectangle_2539" data-name="Rectangle 2539" width="7.79" height="5.496" transform="translate(82.842 34.129)" fill="#fff"/>
      <rect id="Rectangle_2540" data-name="Rectangle 2540" width="7.79" height="5.496" transform="translate(71.23 42.208)" fill="#fff"/>
      <rect id="Rectangle_2541" data-name="Rectangle 2541" width="7.79" height="5.496" transform="translate(82.842 42.208)" fill="#fff"/>
      <rect id="Rectangle_2542" data-name="Rectangle 2542" width="7.79" height="5.496" transform="translate(71.23 50.286)" fill="#fff"/>
      <rect id="Rectangle_2543" data-name="Rectangle 2543" width="7.79" height="5.496" transform="translate(82.842 50.286)" fill="#fff"/>
      <rect id="Rectangle_2544" data-name="Rectangle 2544" width="7.79" height="5.496" transform="translate(71.23 58.36)" fill="#fff"/>
      <rect id="Rectangle_2545" data-name="Rectangle 2545" width="7.79" height="5.496" transform="translate(82.842 58.36)" fill="#fff"/>
      <rect id="Rectangle_2546" data-name="Rectangle 2546" width="7.79" height="5.496" transform="translate(71.23 66.438)" fill="#fff"/>
      <rect id="Rectangle_2547" data-name="Rectangle 2547" width="7.79" height="5.496" transform="translate(82.842 66.438)" fill="#fff"/>
      <rect id="Rectangle_2548" data-name="Rectangle 2548" width="7.79" height="5.496" transform="translate(71.23 74.512)" fill="#fff"/>
      <rect id="Rectangle_2549" data-name="Rectangle 2549" width="7.79" height="5.496" transform="translate(82.842 74.512)" fill="#fff"/>
      <rect id="Rectangle_2550" data-name="Rectangle 2550" width="7.79" height="5.496" transform="translate(97.239 34.129)" fill="#fff"/>
      <rect id="Rectangle_2551" data-name="Rectangle 2551" width="7.79" height="5.496" transform="translate(97.239 42.208)" fill="#fff"/>
      <rect id="Rectangle_2552" data-name="Rectangle 2552" width="7.79" height="5.496" transform="translate(97.239 50.286)" fill="#fff"/>
      <rect id="Rectangle_2553" data-name="Rectangle 2553" width="7.79" height="5.496" transform="translate(97.239 58.36)" fill="#fff"/>
      <rect id="Rectangle_2554" data-name="Rectangle 2554" width="7.79" height="5.496" transform="translate(97.239 66.438)" fill="#fff"/>
      <rect id="Rectangle_2555" data-name="Rectangle 2555" width="7.79" height="5.496" transform="translate(97.239 74.512)" fill="#fff"/>
      <rect id="Rectangle_2556" data-name="Rectangle 2556" width="7.79" height="5.496" transform="translate(71.23 82.494)" fill="#fff"/>
      <rect id="Rectangle_2557" data-name="Rectangle 2557" width="7.79" height="5.496" transform="translate(82.842 82.494)" fill="#fff"/>
      <rect id="Rectangle_2558" data-name="Rectangle 2558" width="7.79" height="5.496" transform="translate(97.239 82.494)" fill="#fff"/>
      <rect id="Rectangle_2559" data-name="Rectangle 2559" width="7.79" height="5.496" transform="translate(71.23 90.476)" fill="#fff"/>
      <rect id="Rectangle_2560" data-name="Rectangle 2560" width="7.79" height="5.496" transform="translate(82.842 90.476)" fill="#fff"/>
      <rect id="Rectangle_2561" data-name="Rectangle 2561" width="7.79" height="5.496" transform="translate(97.239 90.476)" fill="#fff"/>
      <rect id="Rectangle_2562" data-name="Rectangle 2562" width="7.79" height="5.496" transform="translate(71.23 98.454)" fill="#fff"/>
      <rect id="Rectangle_2563" data-name="Rectangle 2563" width="7.79" height="5.496" transform="translate(82.842 98.454)" fill="#fff"/>
      <rect id="Rectangle_2564" data-name="Rectangle 2564" width="7.79" height="5.496" transform="translate(97.239 98.454)" fill="#fff"/>
      <rect id="Rectangle_2565" data-name="Rectangle 2565" width="7.79" height="5.496" transform="translate(71.23 106.436)" fill="#fff"/>
      <rect id="Rectangle_2566" data-name="Rectangle 2566" width="7.79" height="5.496" transform="translate(82.842 106.436)" fill="#fff"/>
      <rect id="Rectangle_2567" data-name="Rectangle 2567" width="7.79" height="5.496" transform="translate(97.239 106.436)" fill="#fff"/>
      <rect id="Rectangle_2568" data-name="Rectangle 2568" width="7.79" height="5.496" transform="translate(71.23 114.413)" fill="#fff"/>
      <rect id="Rectangle_2569" data-name="Rectangle 2569" width="7.79" height="5.496" transform="translate(82.842 114.413)" fill="#fff"/>
      <rect id="Rectangle_2570" data-name="Rectangle 2570" width="7.79" height="5.496" transform="translate(97.239 114.413)" fill="#fff"/>
      <rect id="Rectangle_2571" data-name="Rectangle 2571" width="4.208" height="4.813" transform="translate(171.19 25.825)" fill="#fff"/>
      <rect id="Rectangle_2572" data-name="Rectangle 2572" width="4.208" height="4.813" transform="translate(178.48 25.825)" fill="#fff"/>
      <rect id="Rectangle_2573" data-name="Rectangle 2573" width="4.208" height="4.813" transform="translate(171.19 33.071)" fill="#fff"/>
      <rect id="Rectangle_2574" data-name="Rectangle 2574" width="4.208" height="4.813" transform="translate(178.48 33.071)" fill="#fff"/>
      <rect id="Rectangle_2575" data-name="Rectangle 2575" width="4.208" height="4.813" transform="translate(171.19 40.318)" fill="#fff"/>
      <rect id="Rectangle_2576" data-name="Rectangle 2576" width="4.208" height="4.813" transform="translate(178.48 40.318)" fill="#fff"/>
      <rect id="Rectangle_2577" data-name="Rectangle 2577" width="4.208" height="4.813" transform="translate(171.19 47.565)" fill="#fff"/>
      <rect id="Rectangle_2578" data-name="Rectangle 2578" width="4.208" height="4.813" transform="translate(178.48 47.565)" fill="#fff"/>
      <rect id="Rectangle_2579" data-name="Rectangle 2579" width="4.208" height="4.813" transform="translate(171.19 54.989)" fill="#fff"/>
      <rect id="Rectangle_2580" data-name="Rectangle 2580" width="4.208" height="4.813" transform="translate(178.48 54.989)" fill="#fff"/>
      <rect id="Rectangle_2581" data-name="Rectangle 2581" width="4.208" height="4.813" transform="translate(171.19 62.413)" fill="#fff"/>
      <rect id="Rectangle_2582" data-name="Rectangle 2582" width="4.208" height="4.813" transform="translate(178.48 62.413)" fill="#fff"/>
      <rect id="Rectangle_2583" data-name="Rectangle 2583" width="4.208" height="4.813" transform="translate(171.19 69.838)" fill="#fff"/>
      <rect id="Rectangle_2584" data-name="Rectangle 2584" width="4.208" height="4.813" transform="translate(178.48 69.838)" fill="#fff"/>
      <rect id="Rectangle_2585" data-name="Rectangle 2585" width="4.208" height="4.813" transform="translate(171.19 77.262)" fill="#fff"/>
      <rect id="Rectangle_2586" data-name="Rectangle 2586" width="4.208" height="4.813" transform="translate(178.48 77.262)" fill="#fff"/>
      <rect id="Rectangle_2587" data-name="Rectangle 2587" width="4.208" height="4.813" transform="translate(171.19 84.769)" fill="#fff"/>
      <rect id="Rectangle_2588" data-name="Rectangle 2588" width="4.208" height="4.813" transform="translate(178.48 84.769)" fill="#fff"/>
      <rect id="Rectangle_2589" data-name="Rectangle 2589" width="4.208" height="4.813" transform="translate(171.19 92.275)" fill="#fff"/>
      <rect id="Rectangle_2590" data-name="Rectangle 2590" width="4.208" height="4.813" transform="translate(178.48 92.275)" fill="#fff"/>
      <rect id="Rectangle_2591" data-name="Rectangle 2591" width="4.208" height="4.813" transform="translate(171.19 99.776)" fill="#fff"/>
      <rect id="Rectangle_2592" data-name="Rectangle 2592" width="4.208" height="4.813" transform="translate(178.48 99.776)" fill="#fff"/>
      <rect id="Rectangle_2593" data-name="Rectangle 2593" width="4.208" height="4.813" transform="translate(171.19 107.282)" fill="#fff"/>
      <rect id="Rectangle_2594" data-name="Rectangle 2594" width="4.208" height="4.813" transform="translate(178.48 107.282)" fill="#fff"/>
      <rect id="Rectangle_2595" data-name="Rectangle 2595" width="4.208" height="5.674" transform="translate(273.902 26.609)" fill="#fff"/>
      <rect id="Rectangle_2596" data-name="Rectangle 2596" width="4.208" height="5.674" transform="translate(281.192 26.609)" fill="#fff"/>
      <rect id="Rectangle_2597" data-name="Rectangle 2597" width="4.208" height="5.674" transform="translate(273.902 35.144)" fill="#fff"/>
      <rect id="Rectangle_2598" data-name="Rectangle 2598" width="4.208" height="5.674" transform="translate(281.192 35.144)" fill="#fff"/>
      <rect id="Rectangle_2599" data-name="Rectangle 2599" width="4.208" height="5.674" transform="translate(273.902 43.684)" fill="#fff"/>
      <rect id="Rectangle_2600" data-name="Rectangle 2600" width="4.208" height="5.674" transform="translate(281.192 43.684)" fill="#fff"/>
      <rect id="Rectangle_2601" data-name="Rectangle 2601" width="4.208" height="5.674" transform="translate(273.902 52.219)" fill="#fff"/>
      <rect id="Rectangle_2602" data-name="Rectangle 2602" width="4.208" height="5.674" transform="translate(281.192 52.219)" fill="#fff"/>
      <rect id="Rectangle_2603" data-name="Rectangle 2603" width="4.208" height="5.674" transform="translate(273.902 60.966)" fill="#fff"/>
      <rect id="Rectangle_2604" data-name="Rectangle 2604" width="4.208" height="5.674" transform="translate(281.192 60.966)" fill="#fff"/>
      <rect id="Rectangle_2605" data-name="Rectangle 2605" width="4.208" height="5.674" transform="translate(273.902 69.713)" fill="#fff"/>
      <rect id="Rectangle_2606" data-name="Rectangle 2606" width="4.208" height="5.674" transform="translate(281.192 69.713)" fill="#fff"/>
      <rect id="Rectangle_2607" data-name="Rectangle 2607" width="4.208" height="5.674" transform="translate(273.902 78.46)" fill="#fff"/>
      <rect id="Rectangle_2608" data-name="Rectangle 2608" width="4.208" height="5.674" transform="translate(281.192 78.46)" fill="#fff"/>
      <rect id="Rectangle_2609" data-name="Rectangle 2609" width="4.208" height="5.674" transform="translate(273.902 87.211)" fill="#fff"/>
      <rect id="Rectangle_2610" data-name="Rectangle 2610" width="4.208" height="5.674" transform="translate(281.192 87.211)" fill="#fff"/>
      <rect id="Rectangle_2611" data-name="Rectangle 2611" width="4.208" height="5.674" transform="translate(273.902 96.05)" fill="#fff"/>
      <rect id="Rectangle_2612" data-name="Rectangle 2612" width="4.208" height="5.674" transform="translate(281.192 96.05)" fill="#fff"/>
      <rect id="Rectangle_2613" data-name="Rectangle 2613" width="4.208" height="5.674" transform="translate(273.902 104.892)" fill="#fff"/>
      <rect id="Rectangle_2614" data-name="Rectangle 2614" width="4.208" height="5.674" transform="translate(281.192 104.892)" fill="#fff"/>
      <rect id="Rectangle_2615" data-name="Rectangle 2615" width="4.208" height="5.674" transform="translate(273.902 113.731)" fill="#fff"/>
      <rect id="Rectangle_2616" data-name="Rectangle 2616" width="4.208" height="5.674" transform="translate(281.192 113.731)" fill="#fff"/>
      <rect id="Rectangle_2617" data-name="Rectangle 2617" width="4.208" height="5.674" transform="translate(273.902 122.574)" fill="#fff"/>
      <rect id="Rectangle_2618" data-name="Rectangle 2618" width="4.208" height="5.674" transform="translate(281.192 122.574)" fill="#fff"/>
      <rect id="Rectangle_2619" data-name="Rectangle 2619" width="4.208" height="4.813" transform="translate(186.78 25.825)" fill="#fff"/>
      <rect id="Rectangle_2620" data-name="Rectangle 2620" width="4.208" height="4.813" transform="translate(194.07 25.825)" fill="#fff"/>
      <rect id="Rectangle_2621" data-name="Rectangle 2621" width="4.208" height="4.813" transform="translate(186.78 18.396)" fill="#fff"/>
      <rect id="Rectangle_2622" data-name="Rectangle 2622" width="4.208" height="4.813" transform="translate(194.07 18.396)" fill="#fff"/>
      <rect id="Rectangle_2623" data-name="Rectangle 2623" width="4.208" height="4.813" transform="translate(186.78 10.966)" fill="#fff"/>
      <rect id="Rectangle_2624" data-name="Rectangle 2624" width="4.208" height="4.813" transform="translate(194.07 10.966)" fill="#fff"/>
      <rect id="Rectangle_2625" data-name="Rectangle 2625" width="4.208" height="4.813" transform="translate(186.78 33.071)" fill="#fff"/>
      <rect id="Rectangle_2626" data-name="Rectangle 2626" width="4.208" height="4.813" transform="translate(194.07 33.071)" fill="#fff"/>
      <rect id="Rectangle_2627" data-name="Rectangle 2627" width="4.208" height="4.813" transform="translate(186.78 40.318)" fill="#fff"/>
      <rect id="Rectangle_2628" data-name="Rectangle 2628" width="4.208" height="4.813" transform="translate(194.07 40.318)" fill="#fff"/>
      <rect id="Rectangle_2629" data-name="Rectangle 2629" width="4.208" height="4.813" transform="translate(186.78 47.565)" fill="#fff"/>
      <rect id="Rectangle_2630" data-name="Rectangle 2630" width="4.208" height="4.813" transform="translate(194.07 47.565)" fill="#fff"/>
      <rect id="Rectangle_2631" data-name="Rectangle 2631" width="4.208" height="4.813" transform="translate(186.78 54.989)" fill="#fff"/>
      <rect id="Rectangle_2632" data-name="Rectangle 2632" width="4.208" height="4.813" transform="translate(194.07 54.989)" fill="#fff"/>
      <rect id="Rectangle_2633" data-name="Rectangle 2633" width="4.208" height="4.813" transform="translate(186.78 62.413)" fill="#fff"/>
      <rect id="Rectangle_2634" data-name="Rectangle 2634" width="4.208" height="4.813" transform="translate(194.07 62.413)" fill="#fff"/>
      <rect id="Rectangle_2635" data-name="Rectangle 2635" width="4.208" height="4.813" transform="translate(186.78 69.838)" fill="#fff"/>
      <rect id="Rectangle_2636" data-name="Rectangle 2636" width="4.208" height="4.813" transform="translate(194.07 69.838)" fill="#fff"/>
      <rect id="Rectangle_2637" data-name="Rectangle 2637" width="4.208" height="4.813" transform="translate(186.78 77.262)" fill="#fff"/>
      <rect id="Rectangle_2638" data-name="Rectangle 2638" width="4.208" height="4.813" transform="translate(194.07 77.262)" fill="#fff"/>
      <rect id="Rectangle_2639" data-name="Rectangle 2639" width="4.208" height="4.813" transform="translate(186.78 84.769)" fill="#fff"/>
      <rect id="Rectangle_2640" data-name="Rectangle 2640" width="4.208" height="4.813" transform="translate(194.07 84.769)" fill="#fff"/>
      <rect id="Rectangle_2641" data-name="Rectangle 2641" width="4.208" height="4.813" transform="translate(186.78 92.275)" fill="#fff"/>
      <rect id="Rectangle_2642" data-name="Rectangle 2642" width="4.208" height="4.813" transform="translate(194.07 92.275)" fill="#fff"/>
      <rect id="Rectangle_2643" data-name="Rectangle 2643" width="4.208" height="4.813" transform="translate(186.78 99.776)" fill="#fff"/>
      <rect id="Rectangle_2644" data-name="Rectangle 2644" width="4.208" height="4.813" transform="translate(194.07 99.776)" fill="#fff"/>
      <rect id="Rectangle_2645" data-name="Rectangle 2645" width="4.208" height="4.813" transform="translate(186.78 107.282)" fill="#fff"/>
      <rect id="Rectangle_2646" data-name="Rectangle 2646" width="4.208" height="4.813" transform="translate(194.07 107.282)" fill="#fff"/>
      <path id="Path_11305" data-name="Path 11305" d="M138.3,114.359,96.18,114.3s2.1-2.726,4.4-3.063c0,0,4.51-13.363,12.021-13.464,6.992-.077,9.781,8.237,9.781,8.237s3.246-3.722,6.338-2.01,4.833,6.593,4.833,6.593S137.048,112.484,138.3,114.359Z" transform="translate(-86.962 -81.754)" fill="#ebebeb"/>
      <path id="Path_11306" data-name="Path 11306" d="M558.08,81.552l53.274.082s0-3.4-7.333-4.082c0,0-6.679-14.907-16.912-12.9-6.371,1.212-9.641,9.954-9.641,9.954s-4.809-6.891-8.656-5.564-6.155,8.655-6.155,8.655S558.686,79.628,558.08,81.552Z" transform="translate(-326.753 -64.464)" fill="#ebebeb"/>
      <path id="Path_11307" data-name="Path 11307" d="M289.3,81.688l36.228.053s-3.414-3.188-4.934-3.188-5.953-10.689-11.608-10.247-8.684,8.4-8.684,8.4S293.421,74.533,289.3,81.688Z" transform="translate(-187.219 -66.451)" fill="#ebebeb"/>
      <path id="Path_11308" data-name="Path 11308" d="M499.75,127.167l30.977.048s-1.539-2.01-3.236-2.26c0,0-3.284-9.838-8.814-9.915-5.14-.072-7.213,6.035-7.213,6.035s-2.375-2.746-4.65-1.5-3.578,4.837-3.578,4.837A12.2,12.2,0,0,0,499.75,127.167Z" transform="translate(-296.472 -90.719)" fill="#ebebeb"/>
    </g>
    <g id="freepik--Shadow--inject-101" transform="translate(70.904 213.11)">
      <ellipse id="Ellipse_544" data-name="Ellipse 544" cx="132.159" cy="11.17" rx="132.159" ry="11.17" transform="translate(0)" fill="#ebebeb"/>
      <ellipse id="Ellipse_545" data-name="Ellipse 545" cx="65.517" cy="8.766" rx="65.517" ry="8.766" transform="translate(118.974 21.129)" fill="#ebebeb"/>
    </g>
    <g id="freepik--Floor--inject-101" transform="translate(47.51 192.784)">
      <path id="Path_11309" data-name="Path 11309" d="M47.51,341.63l39.368-.115,39.368-.043,78.741-.082,78.741.082,39.368.043,39.368.115-39.368.12-39.368.043-78.741.077-78.741-.077-39.368-.043Z" transform="translate(-47.51 -336.548)" fill="#263238"/>
      <rect id="Rectangle_2647" data-name="Rectangle 2647" width="314.953" height="5.087" fill="#c7c7c7"/>
      <path id="Path_11310" data-name="Path 11310" d="M80.949,331.32a13.551,13.551,0,0,1,0,5.083,11.646,11.646,0,0,1-.24-2.539A11.969,11.969,0,0,1,80.949,331.32Z" transform="translate(-64.744 -331.32)" fill="#263238"/>
      <path id="Path_11311" data-name="Path 11311" d="M120.119,331.32a11.968,11.968,0,0,1,.24,2.544,11.645,11.645,0,0,1-.24,2.539,11.949,11.949,0,0,1-.24-2.539A12.285,12.285,0,0,1,120.119,331.32Z" transform="translate(-85.079 -331.32)" fill="#263238"/>
      <path id="Path_11312" data-name="Path 11312" d="M159.29,331.32a13.55,13.55,0,0,1,0,5.083,13.551,13.551,0,0,1,0-5.083Z" transform="translate(-105.415 -331.32)" fill="#263238"/>
      <path id="Path_11313" data-name="Path 11313" d="M198.47,331.32a13.825,13.825,0,0,1,0,5.083,13.55,13.55,0,0,1,0-5.083Z" transform="translate(-125.755 -331.32)" fill="#263238"/>
      <path id="Path_11314" data-name="Path 11314" d="M237.64,331.32a13.55,13.55,0,0,1,0,5.083,13.551,13.551,0,0,1,0-5.083Z" transform="translate(-146.09 -331.32)" fill="#263238"/>
      <path id="Path_11315" data-name="Path 11315" d="M276.809,331.32a12.286,12.286,0,0,1,.24,2.544,11.952,11.952,0,0,1-.24,2.539,11.644,11.644,0,0,1-.24-2.539A12.286,12.286,0,0,1,276.809,331.32Z" transform="translate(-166.423 -331.32)" fill="#263238"/>
      <path id="Path_11316" data-name="Path 11316" d="M315.98,331.32a11.97,11.97,0,0,1,.24,2.544,11.644,11.644,0,0,1-.24,2.539A13.549,13.549,0,0,1,315.98,331.32Z" transform="translate(-186.759 -331.32)" fill="#263238"/>
      <path id="Path_11317" data-name="Path 11317" d="M355.15,331.32a13.551,13.551,0,0,1,0,5.083A13.55,13.55,0,0,1,355.15,331.32Z" transform="translate(-207.094 -331.32)" fill="#263238"/>
      <path id="Path_11318" data-name="Path 11318" d="M394.33,331.32a13.551,13.551,0,0,1,0,5.083A13.551,13.551,0,0,1,394.33,331.32Z" transform="translate(-227.434 -331.32)" fill="#263238"/>
      <path id="Path_11319" data-name="Path 11319" d="M433.5,331.32a13.551,13.551,0,0,1,0,5.083,11.644,11.644,0,0,1-.24-2.539A11.968,11.968,0,0,1,433.5,331.32Z" transform="translate(-247.767 -331.32)" fill="#263238"/>
      <path id="Path_11320" data-name="Path 11320" d="M472.669,331.32a12.286,12.286,0,0,1,.24,2.544,11.648,11.648,0,0,1-.24,2.539,11.945,11.945,0,0,1-.24-2.539,12.284,12.284,0,0,1,.24-2.544Z" transform="translate(-268.103 -331.32)" fill="#263238"/>
      <path id="Path_11321" data-name="Path 11321" d="M511.84,331.32a13.552,13.552,0,0,1,0,5.083,13.549,13.549,0,0,1,0-5.083Z" transform="translate(-288.438 -331.32)" fill="#263238"/>
      <path id="Path_11322" data-name="Path 11322" d="M551.02,331.32a13.826,13.826,0,0,1,0,5.083,13.549,13.549,0,0,1,0-5.083Z" transform="translate(-308.778 -331.32)" fill="#263238"/>
      <path id="Path_11323" data-name="Path 11323" d="M590.19,331.32a13.552,13.552,0,0,1,0,5.083,13.549,13.549,0,0,1,0-5.083Z" transform="translate(-329.113 -331.32)" fill="#263238"/>
      <path id="Path_11324" data-name="Path 11324" d="M629.359,331.32a12.29,12.29,0,0,1,.241,2.544,11.953,11.953,0,0,1-.241,2.539,11.648,11.648,0,0,1-.24-2.539A11.974,11.974,0,0,1,629.359,331.32Z" transform="translate(-349.447 -331.32)" fill="#263238"/>
      <path id="Path_11325" data-name="Path 11325" d="M668.531,331.32a11.978,11.978,0,0,1,.24,2.544,11.659,11.659,0,0,1-.24,2.539,13.552,13.552,0,0,1,0-5.083Z" transform="translate(-369.783 -331.32)" fill="#263238"/>
    </g>
    <g id="freepik--traffic-light--inject-101" transform="translate(340.457 118.438)">
      <path id="Path_11326" data-name="Path 11326" d="M673.463,260.669H671.29l.553-46.393.048-3.866h.971l.048,3.866Z" transform="translate(-664.287 -194.205)" fill="#931e27"/>
      <path id="Path_11327" data-name="Path 11327" d="M673.508,214.276H672.44l.048-3.866h.971Z" transform="translate(-664.885 -194.205)" fill="#263238"/>
      <path id="Path_11328" data-name="Path 11328" d="M662.28,180.174l.851,15.142,1,.159.909.144V179.27l-1.933.635Z" transform="translate(-659.61 -178.039)" fill="#931e27"/>
      <path id="Path_11329" data-name="Path 11329" d="M660.34,184.83s-3.688.034-3.611.24,1.558.62,1.693.716,1.539,2.784,1.923,2.784S660.34,184.83,660.34,184.83Z" transform="translate(-656.728 -180.925)" fill="#931e27"/>
      <path id="Path_11330" data-name="Path 11330" d="M660.9,193.74s-3.683.038-3.611.245,1.563.62,1.693.716,1.544,2.779,1.923,2.779S660.9,193.74,660.9,193.74Z" transform="translate(-657.018 -185.551)" fill="#931e27"/>
      <path id="Path_11331" data-name="Path 11331" d="M661.47,202.66s-3.688.038-3.611.245,1.558.62,1.693.712,1.539,2.784,1.923,2.784S661.47,202.66,661.47,202.66Z" transform="translate(-657.314 -190.182)" fill="#931e27"/>
      <path id="Path_11332" data-name="Path 11332" d="M664,179.9l1.024,15.57.909.144V179.27Z" transform="translate(-660.503 -178.039)" opacity="0.1"/>
      <path id="Path_11333" data-name="Path 11333" d="M681.84,180.174l-.851,15.142-1,.159-.909.144V179.27l1.933.635Z" transform="translate(-668.332 -178.039)" fill="#931e27"/>
      <path id="Path_11334" data-name="Path 11334" d="M682.678,184.83s3.683.034,3.607.24-1.558.62-1.693.716-1.539,2.784-1.923,2.784S682.678,184.83,682.678,184.83Z" transform="translate(-670.107 -180.925)" fill="#931e27"/>
      <path id="Path_11335" data-name="Path 11335" d="M682.114,193.74s3.688.038,3.611.245-1.563.62-1.693.716-1.544,2.779-1.923,2.779S682.114,193.74,682.114,193.74Z" transform="translate(-669.817 -185.551)" fill="#931e27"/>
      <path id="Path_11336" data-name="Path 11336" d="M681.548,202.66s3.683.038,3.607.245-1.558.62-1.693.712-1.539,2.784-1.923,2.784S681.548,202.66,681.548,202.66Z" transform="translate(-669.52 -190.182)" fill="#931e27"/>
      <path id="Path_11337" data-name="Path 11337" d="M681.013,179.9l-1.024,15.57-.909.144V179.27Z" transform="translate(-668.332 -178.039)" opacity="0.1"/>
      <path id="Path_11338" data-name="Path 11338" d="M673.274,176.71l-.3,17.95h-6.319l-.3-17.95Z" transform="translate(-661.723 -176.71)" fill="#931e27"/>
      <path id="Path_11339" data-name="Path 11339" d="M673.371,180.9a2.25,2.25,0,1,1-2.25-2.25A2.25,2.25,0,0,1,673.371,180.9Z" transform="translate(-663.031 -177.717)" fill="#dd6a57"/>
      <path id="Path_11340" data-name="Path 11340" d="M673.371,204.57a2.25,2.25,0,1,1-2.25-2.25A2.25,2.25,0,0,1,673.371,204.57Z" transform="translate(-663.031 -190.005)" fill="#fff"/>
      <path id="Path_11341" data-name="Path 11341" d="M673.371,192.835a2.25,2.25,0,1,1-.657-1.594A2.251,2.251,0,0,1,673.371,192.835Z" transform="translate(-663.031 -183.91)" fill="#fff"/>
      <path id="Path_11342" data-name="Path 11342" d="M673.411,318.419H669.93l.3-9.117.091-2.832h2.63l.111,2.832Z" transform="translate(-663.581 -244.074)" fill="#931e27"/>
      <path id="Path_11343" data-name="Path 11343" d="M673.382,309.3H670.55l.091-2.832h2.63Z" transform="translate(-663.903 -244.074)" fill="#455a64"/>
    </g>
    <g id="freepik--Car--inject-101" transform="translate(73.166 127.214)">
      <path id="Path_11344" data-name="Path 11344" d="M140,326.431h57.222S190.971,299.7,168.616,299.7,140.962,320.463,140,326.431Z" transform="translate(-121.182 -249.335)" fill="#931e27"/>
      <path id="Path_11345" data-name="Path 11345" d="M140,326.431h57.222S190.971,299.7,168.616,299.7,140.962,320.463,140,326.431Z" transform="translate(-121.182 -249.335)" opacity="0.2"/>
      <path id="Path_11346" data-name="Path 11346" d="M485.3,332.431h57.222S536.271,305.7,513.916,305.7,486.286,326.463,485.3,332.431Z" transform="translate(-300.441 -252.45)" fill="#931e27"/>
      <path id="Path_11347" data-name="Path 11347" d="M485.3,332.431h57.222S536.271,305.7,513.916,305.7,486.286,326.463,485.3,332.431Z" transform="translate(-300.441 -252.45)" opacity="0.2"/>
      <path id="Path_11348" data-name="Path 11348" d="M106.59,223.3c-1.226,1.923-3.366,23.413-3.505,24.163s-1.923,4.039-1.923,4.664-.481,10.3-.216,10.925a27.279,27.279,0,0,0,1.972,3.289c.313.375,8.42,7.352,9.329,7.448s9.295.154,9.454,0,1.125-25.966,26.572-25.966,25.168,27.409,25.639,27.515,114.382,2.693,114.382,2.693c0-4.2.327-29.174,25.288-29.174a24.451,24.451,0,0,1,24.764,23.288c.115,4.116-.572,8.655-.346,8.655a25.011,25.011,0,0,0,3.755,0c.438-.188,5.77-3.7,6.2-3.823s3.505-.188,4.256-.375,6.011-4.809,6.107-4.977.25-2,.279-2.159,5.357-6.669,5.607-7.386a72.277,72.277,0,0,0,.341-7.266c0-.6-9.67-16.277-11.925-17.965s-18.311-7.323-23.009-8.175-30.52-4.7-31.458-5.352-45.032-25.942-52.7-27.822c-6.2-1.5-77.942.563-81.7.75s-14.152,2.068-15.152,2.068-12.5-.062-13.209.25,0,3.068.875,3.568S108.72,219.921,106.59,223.3Z" transform="translate(-100.865 -194.96)" fill="#f89b0e"/>
      <path id="Path_11349" data-name="Path 11349" d="M116.182,229.39a20.6,20.6,0,0,0,5.227.173c.471-.188,28.726-18.984,28.746-19.532,0-.274-5.289-.2-5.943-.173S115.663,228.918,116.182,229.39Z" transform="translate(-108.813 -202.678)" fill="#455a64"/>
      <path id="Path_11350" data-name="Path 11350" d="M181.573,225.9c1.226,3.616,149.633,10.377,150.446,8.627.6-1.3-12.675-11.959-18.874-15.436s-23.947-13.522-32.7-14.556-26.447-.962-41.883-.654c-15.311.279-33.338.654-39.724,3.366C193.258,209.653,180.6,223.026,181.573,225.9Z" transform="translate(-142.736 -199.488)" fill="#263238"/>
      <path id="Path_11351" data-name="Path 11351" d="M190.23,225.661c.37,1.361,33.146,4.885,71.557,6.669s57.376,2.063,57.847,1.875-1.318-10.42-1.972-11.267-28.173-14.931-32.492-15.311-27.659-.423-39.43-.236-36.338,1.6-40.522,3.284C201.53,212.168,189.85,224.3,190.23,225.661Z" transform="translate(-147.253 -201.359)" fill="#455a64"/>
      <g id="Group_10712" data-name="Group 10712" transform="translate(43.838 5.943)" opacity="0.1">
        <path id="Path_11352" data-name="Path 11352" d="M260.574,207.76l-22,22c-3.924-.346-7.554-.692-10.814-1.024l20.384-20.379C252.491,208.077,256.823,207.875,260.574,207.76Z" transform="translate(-210.579 -207.548)" fill="#fff"/>
        <path id="Path_11353" data-name="Path 11353" d="M444.259,248.564l-2.217,2.217q-3.366,0-11.613-.221l11.444-11.44a3.125,3.125,0,0,1,.481.341C442.831,240.067,443.88,245.463,444.259,248.564Z" transform="translate(-315.793 -223.829)" fill="#fff"/>
        <path id="Path_11354" data-name="Path 11354" d="M298.894,207.32,275.5,230.728c-1.875-.13-3.717-.264-5.511-.4l22.956-22.961C294.831,207.334,296.836,207.32,298.894,207.32Z" transform="translate(-232.502 -207.32)" fill="#fff"/>
        <path id="Path_11355" data-name="Path 11355" d="M411.065,226.522l-16.032,16.041-5.7-.212,17.792-17.792C408.473,225.219,409.8,225.878,411.065,226.522Z" transform="translate(-294.457 -216.27)" fill="#fff"/>
        <path id="Path_11356" data-name="Path 11356" d="M239.007,209.46l-19.787,19.8h0l-1.51-.168,19.5-19.5Z" transform="translate(-205.362 -208.431)" fill="#fff"/>
        <path id="Path_11357" data-name="Path 11357" d="M424.291,231.652l-14.426,14.455-1.625-.058L423.2,231.08Z" transform="translate(-304.274 -219.655)" fill="#fff"/>
        <path id="Path_11358" data-name="Path 11358" d="M371.657,211.1l-23.2,23.2-1.616-.067,23.639-23.62Z" transform="translate(-272.398 -209.028)" fill="#fff"/>
        <path id="Path_11359" data-name="Path 11359" d="M209.952,212.6l-16.561,16.542c-.553-.111-1.01-.216-1.361-.322L207.9,212.951C208.5,212.836,209.182,212.715,209.952,212.6Z" transform="translate(-192.03 -210.061)" fill="#fff"/>
      </g>
      <path id="Path_11360" data-name="Path 11360" d="M223.245,211.286c.154,0,.226.2.091.563-.769,2.13-6.775,14.195-8.276,17.013a1.327,1.327,0,0,1-.851.6l10.579,1.13a.861.861,0,0,1-.524-.962c.106-.668,4.034-14.849,5.289-18.335a1.486,1.486,0,0,1,.707-.741c.212,0-1.8.029-3.717.226C224.842,210.959,223.245,211.286,223.245,211.286Z" transform="translate(-159.707 -203.054)" fill="#263238"/>
      <path id="Path_11361" data-name="Path 11361" d="M262,209.335s.192.106.2.481c.067,3.337.442,20.047.12,20.961a.361.361,0,0,1-.154.221l2,.159a.962.962,0,0,1-.183-.481c-.226-2.823-.428-18.143-.389-20.975a.861.861,0,0,1,.188-.481Z" transform="translate(-184.517 -202.363)" fill="#263238"/>
      <path id="Path_11362" data-name="Path 11362" d="M329.594,208c.236.741.625,22.557.625,23.259s-.8.87-.8.87l12.4.577s-.8-.226-.962-.6-4.039-23.9-4.015-24.206.635-.6.635-.6H328.82A1.317,1.317,0,0,1,329.594,208Z" transform="translate(-219.206 -201.366)" fill="#263238"/>
      <path id="Path_11363" data-name="Path 11363" d="M110.82,260.264c-1.524.192-4.948,3.756-5.2,4.506s-1.188,5.823-.688,6.573,2.318,2.63,3.881,2.693,9.2-3.568,9.891-4.193,1.188-4.438.375-5.665S112.757,260.014,110.82,260.264Z" transform="translate(-102.902 -228.854)" fill="#fff"/>
      <path id="Path_11364" data-name="Path 11364" d="M119.464,270.5c-.688.625-8.328,4.256-9.891,4.193a5.752,5.752,0,0,1-3.323-2.01,5.068,5.068,0,0,0,3.058.962c.841-.077,8-3.154,8.915-4s.962-4.01.837-4.583-4.741-3.549-4.741-3.549c2.284.88,4.972,2.486,5.52,3.313C120.652,266.079,120.152,269.873,119.464,270.5Z" transform="translate(-103.661 -229.514)" fill="#ebebeb"/>
      <path id="Path_11365" data-name="Path 11365" d="M103.754,318.87c-.423.423-.567,3.6-.125,3.881a7.841,7.841,0,0,0,3.505,0,6.392,6.392,0,0,0,1.688-3.443C108.726,318.5,104.254,318.37,103.754,318.87Z" transform="translate(-102.16 -259.133)" fill="#fff"/>
      <path id="Path_11366" data-name="Path 11366" d="M579.128,277.69c1.351,2.188,11.271,6.059,14.979,6.67,2.337.385,10.425.894,10.9.481s-3.428-5.823-5.448-7.141-12.113-4.693-15.166-4.554S577.767,275.478,579.128,277.69Z" transform="translate(-348.997 -235.547)" fill="#fff"/>
      <path id="Path_11367" data-name="Path 11367" d="M605.007,284.8c-.481.423-8.559-.087-10.9-.481-3.707-.611-13.628-4.482-14.979-6.669s2.207-4.409,5.261-4.554a6.084,6.084,0,0,1,.712,0c-2.842,1.048-3.424,3.27-1.693,4.539a47.608,47.608,0,0,0,9.5,4.857c2.135.6,10.1,1.842,10.79,1.3a1.385,1.385,0,0,0,.3-1.144C604.732,283.769,605.184,284.644,605.007,284.8Z" transform="translate(-349 -235.52)" fill="#ebebeb"/>
      <g id="Group_10713" data-name="Group 10713" transform="translate(1.2 29.38)" opacity="0.5">
        <path id="Path_11368" data-name="Path 11368" d="M172.161,276a5.068,5.068,0,0,1-1.443,3.578,5.133,5.133,0,1,1,0-7.15A5.059,5.059,0,0,1,172.161,276Zm0,0a5.011,5.011,0,0,0-1.5-3.53,4.918,4.918,0,1,0,0,7.064A5.03,5.03,0,0,0,172.161,276Z" transform="translate(-133.755 -263.748)"/>
        <path id="Path_11369" data-name="Path 11369" d="M134.45,298.215c-.51-1.135-.962-2.279-1.443-3.433s-.885-2.308-1.327-3.467-.842-2.327-1.236-3.5-.789-2.351-1.135-3.544c.515,1.135.962,2.279,1.443,3.429s.885,2.313,1.332,3.472.842,2.327,1.236,3.5S134.095,297.022,134.45,298.215Z" transform="translate(-116.832 -270.705)"/>
        <path id="Path_11370" data-name="Path 11370" d="M103.36,313.227c2.467-.048,4.929-.043,7.4-.034l7.391.077,7.391.178c2.462.077,4.924.159,7.386.289-2.462.048-4.929.043-7.391.038l-7.4-.082-7.391-.178C108.284,313.438,105.822,313.357,103.36,313.227Z" transform="translate(-103.36 -285.717)"/>
        <path id="Path_11371" data-name="Path 11371" d="M345.34,263.4l.846,6.006.365,3.01c.058.5.111,1.005.149,1.515s0,1.01,0,1.52l-.082,12.127-.1,6.068-.053,3.029-.024,1.52-.115,1.51-.481,6.049-.51,6.02.308-6.054.346-6.049.087-1.515v-1.515l.029-3.029.063-6.054.207-12.118c0-.5.043-1.015,0-1.51s-.072-1.005-.12-1.505l-.3-3.015Z" transform="translate(-228.982 -259.87)"/>
        <path id="Path_11372" data-name="Path 11372" d="M348.386,262.345l1.043,6.035.481,3.039.125.755a4.1,4.1,0,0,1,.091.765c0,.51,0,1.019,0,1.534-.034,4.083-.135,8.175-.26,12.243q-.048,1.529-.13,3.058a11.315,11.315,0,0,1-.587,3.02c-.558,1.967-1.2,3.9-1.9,5.828a44.794,44.794,0,0,1-2.443,5.626l-.38.673c-.13.221-.279.433-.418.649a5.8,5.8,0,0,1-.481.62l-.25.3a.962.962,0,0,1-.447.135c-1.034.106-2.048.12-3.073.154-8.175.168-16.325.1-24.49.038s-16.325-.178-24.49-.327-16.32-.375-24.48-.673c-4.078-.168-8.175-.3-12.233-.668a9.4,9.4,0,0,1-1.548-.245c-.288-.111-.457-.245-.7-.351s-.452-.221-.683-.327c-.928-.418-1.88-.789-2.8-1.25a10.757,10.757,0,0,1-2.573-1.712,24.374,24.374,0,0,1-1.856-2.472c-2.3-3.366-4.5-6.819-6.689-10.257s-4.366-6.9-6.525-10.362-4.289-6.948-6.4-10.444l-.779-1.318-.188-.346-.091-.173a.88.88,0,0,1-.024-.192l-.077-.76c-.087-1.019-.163-2.039-.2-3.058v-.769a4.545,4.545,0,0,1,.163-.75c.139-.481.308-.962.481-1.443.341-.962.707-1.923,1.087-2.861q-.558,1.443-1.063,2.885c-.163.481-.327.962-.481,1.443a4.578,4.578,0,0,0-.159.745v.765c.043,1.015.135,2.034.226,3.049l.082.76a1.178,1.178,0,0,0,.029.188l.091.163c.063.106.115.212.183.322l.789,1.313c2.13,3.477,4.328,6.934,6.482,10.387,4.328,6.9,8.689,13.82,13.272,20.571a24.234,24.234,0,0,0,1.818,2.4,10.628,10.628,0,0,0,2.51,1.659c.909.447,1.856.813,2.794,1.236.236.106.481.212.7.327a6.216,6.216,0,0,0,.668.337,9.925,9.925,0,0,0,1.471.221c4.054.356,8.141.481,12.219.63,8.175.279,16.315.457,24.476.606s16.32.308,24.485.4,16.349.178,24.48.034c1.015-.029,2.044-.043,3.044-.144a1.174,1.174,0,0,0,.284-.053l.24-.289a5.024,5.024,0,0,0,.452-.6c.135-.212.284-.418.414-.635l.375-.659a44.071,44.071,0,0,0,2.486-5.607q1.063-2.885,1.923-5.8a11.352,11.352,0,0,0,.587-2.967l.139-3.058c.164-4.078.3-8.175.365-12.238v-1.524a4.537,4.537,0,0,0-.087-.76l-.12-.755-.481-3.02Z" transform="translate(-165.434 -256.06)"/>
        <path id="Path_11373" data-name="Path 11373" d="M577.74,290.71a27.887,27.887,0,0,1-3.366,2.428c-1.169.755-2.361,1.467-3.544,2.193s-2.4,1.4-3.611,2.073-2.433,1.332-3.679,1.952c1.159-.769,2.337-1.505,3.515-2.236l3.558-2.154,3.587-2.1,1.8-1.048A17.149,17.149,0,0,0,577.74,290.71Z" transform="translate(-342.259 -274.048)"/>
        <path id="Path_11374" data-name="Path 11374" d="M235.74,315.54l15.9.418,15.9.481,31.8.971,31.794,1.111,15.9.558,15.892.625-15.9-.418-15.9-.481-31.8-.971-31.794-1.111-15.9-.563Z" transform="translate(-172.084 -286.939)"/>
        <path id="Path_11375" data-name="Path 11375" d="M232.563,268.036l-.625.034h-.154c-.034,0-.038.029-.058.077a2.04,2.04,0,0,0-.058.3,8.034,8.034,0,0,0-.024,1.226,4.974,4.974,0,0,0,.053.606,1.175,1.175,0,0,0,.067.264h.163c.4.038.822.048,1.231.063,1.654.053,3.313.106,4.967.135l2.481.072h1.77a.961.961,0,0,0,.067-.154,2.465,2.465,0,0,0,.058-.284,6.761,6.761,0,0,0,.053-1.212,4.991,4.991,0,0,0-.053-.6.961.961,0,0,0-.067-.231.7.7,0,0,0-.231-.067c-.8-.139-1.64-.188-2.462-.269a22.839,22.839,0,0,1,2.5.067.668.668,0,0,1,.351.106.75.75,0,0,1,.144.346,4.807,4.807,0,0,1,.091.635,7.463,7.463,0,0,1,0,1.269,2.727,2.727,0,0,1-.053.327.582.582,0,0,1-.226.38.2.2,0,0,1-.12.038H240.6l-2.491-.034c-1.654-.062-3.313-.111-4.967-.231-.418-.039-.827-.063-1.25-.125a.621.621,0,0,1-.183-.038.313.313,0,0,1-.106-.038.246.246,0,0,1-.077-.111,1.164,1.164,0,0,1-.077-.337,4.7,4.7,0,0,1-.024-.635,7.807,7.807,0,0,1,.12-1.25,1.841,1.841,0,0,1,.087-.308.288.288,0,0,1,.038-.077.12.12,0,0,1,.1-.048h.154Z" transform="translate(-169.844 -262.222)"/>
        <path id="Path_11376" data-name="Path 11376" d="M359.089,271.171l-.62.034h-.154c-.034,0-.043.029-.062.077a1.553,1.553,0,0,0-.053.3,8.017,8.017,0,0,0-.029,1.226,4.189,4.189,0,0,0,.053.606,1.168,1.168,0,0,0,.072.264h.164c.4.038.822.048,1.231.063,1.654.053,3.308.106,4.962.135l2.486.072h1.746a.535.535,0,0,0,.063-.149,2.462,2.462,0,0,0,.063-.284,7.264,7.264,0,0,0,.053-1.212,4.985,4.985,0,0,0-.058-.6,1.039,1.039,0,0,0-.063-.231.7.7,0,0,0-.231-.067c-.808-.139-1.64-.188-2.462-.269a24,24,0,0,1,2.491.063.659.659,0,0,1,.351.111.765.765,0,0,1,.149.346c.043.212.067.423.091.635a7.472,7.472,0,0,1,0,1.269,2.717,2.717,0,0,1-.053.327c-.048.111-.029.231-.226.38a.207.207,0,0,1-.125.038H367.1l-2.486-.034c-1.659-.062-3.313-.111-4.972-.236-.414-.034-.822-.062-1.245-.12a.677.677,0,0,1-.188-.038.537.537,0,0,1-.1-.038.354.354,0,0,1-.082-.111,1.176,1.176,0,0,1-.072-.337,5.653,5.653,0,0,1-.029-.635,8.414,8.414,0,0,1,.125-1.25,1.824,1.824,0,0,1,.082-.308.4.4,0,0,1,.043-.077.116.116,0,0,1,.1-.048h.154Z" transform="translate(-235.518 -263.852)"/>
      </g>
      <circle id="Ellipse_546" data-name="Ellipse 546" cx="23.663" cy="23.663" r="23.663" transform="translate(13.455 78.352) rotate(-45)" fill="#263238"/>
      <circle id="Ellipse_547" data-name="Ellipse 547" cx="17.277" cy="17.277" r="17.277" transform="translate(22.486 78.352) rotate(-45)" fill="#dbdbdb"/>
      <circle id="Ellipse_548" data-name="Ellipse 548" cx="15.931" cy="15.931" r="15.931" transform="translate(30.989 62.425)" fill="#a6a6a6"/>
      <path id="Path_11377" data-name="Path 11377" d="M193.709,336.829H188.7c1.688-2.443-4.193-10.954-4.193-10.954l2.64-.875c1.75,3.005,2.625,3.885,4.068,3.885s2.313-.88,4.068-3.885l2.63.88S192.021,334.386,193.709,336.829Z" transform="translate(-144.289 -262.469)" fill="#dbdbdb"/>
      <path id="Path_11378" data-name="Path 11378" d="M178.047,342.266l-1.544,4.76c-1.8-2.361-11.714.606-11.714.606v-2.775c3.4-.736,4.506-1.3,4.953-2.669s-.125-2.472-2.438-5.073l1.649-2.226S175.205,343.117,178.047,342.266Z" transform="translate(-134.051 -267.604)" fill="#dbdbdb"/>
      <path id="Path_11379" data-name="Path 11379" d="M178.848,361.15l4.049,2.943c-2.8.962-3.044,11.324-3.044,11.324l-2.645-.832c.346-3.462.159-4.688-1.01-5.535s-2.4-.649-5.578.75L169,367.545S178.781,364.117,178.848,361.15Z" transform="translate(-136.237 -281.236)" fill="#dbdbdb"/>
      <path id="Path_11380" data-name="Path 11380" d="M199,364.093l4.049-2.943c.067,2.967,9.834,6.4,9.834,6.4l-1.611,2.26c-3.183-1.4-4.409-1.6-5.573-.755s-1.356,2.072-1.01,5.535l-2.645.832S201.789,365.074,199,364.093Z" transform="translate(-151.811 -281.236)" fill="#dbdbdb"/>
      <path id="Path_11381" data-name="Path 11381" d="M206.058,347.027l-1.548-4.76c2.842.851,9.136-7.376,9.136-7.376l1.654,2.231c-2.318,2.592-2.885,3.7-2.443,5.068s1.558,1.923,4.958,2.674l-.029,2.77S207.857,344.666,206.058,347.027Z" transform="translate(-154.671 -267.604)" fill="#dbdbdb"/>
      <circle id="Ellipse_549" data-name="Ellipse 549" cx="4.626" cy="4.626" r="4.626" transform="translate(42.294 73.615)" fill="#dbdbdb"/>
      <circle id="Ellipse_550" data-name="Ellipse 550" cx="23.663" cy="23.663" r="23.663" transform="matrix(0.94, -0.34, 0.34, 0.94, 182.432, 62.715)" fill="#263238"/>
      <circle id="Ellipse_551" data-name="Ellipse 551" cx="17.277" cy="17.277" r="17.277" transform="matrix(0.255, -0.967, 0.967, 0.255, 191.394, 90.66)" fill="#dbdbdb"/>
      <circle id="Ellipse_552" data-name="Ellipse 552" cx="15.931" cy="15.931" r="15.931" transform="translate(196.568 62.425)" fill="#a6a6a6"/>
      <path id="Path_11382" data-name="Path 11382" d="M538.058,336.824h-5.015c1.693-2.443-4.193-10.954-4.193-10.954l2.63-.88c1.75,3.005,2.625,3.885,4.068,3.885s2.313-.88,4.073-3.885l2.625.88S536.361,334.381,538.058,336.824Z" transform="translate(-323.05 -262.464)" fill="#dbdbdb"/>
      <path id="Path_11383" data-name="Path 11383" d="M522.361,342.266l-1.544,4.76c-1.8-2.361-11.714.606-11.714.606l-.024-2.775c3.4-.736,4.506-1.3,4.953-2.669s-.125-2.472-2.438-5.073l1.649-2.226S519.519,343.117,522.361,342.266Z" transform="translate(-312.786 -267.604)" fill="#dbdbdb"/>
      <path id="Path_11384" data-name="Path 11384" d="M523.2,361.15l4.049,2.943c-2.8.962-3.044,11.324-3.044,11.324l-2.645-.832c.351-3.462.159-4.688-1.005-5.535s-2.4-.649-5.578.75l-1.611-2.255S523.136,364.117,523.2,361.15Z" transform="translate(-315.013 -281.236)" fill="#dbdbdb"/>
      <path id="Path_11385" data-name="Path 11385" d="M543.32,364.093l4.049-2.943c.067,2.967,9.829,6.4,9.829,6.4l-1.611,2.26c-3.183-1.4-4.409-1.6-5.573-.755s-1.356,2.072-1.01,5.535l-2.645.832S546.119,365.074,543.32,364.093Z" transform="translate(-330.562 -281.236)" fill="#dbdbdb"/>
      <path id="Path_11386" data-name="Path 11386" d="M550.4,347.027l-1.548-4.76c2.842.851,9.136-7.376,9.136-7.376l1.649,2.231c-2.318,2.592-2.885,3.7-2.438,5.068s1.553,1.923,4.953,2.674l-.029,2.77S552.2,344.666,550.4,347.027Z" transform="translate(-333.433 -267.604)" fill="#dbdbdb"/>
      <circle id="Ellipse_553" data-name="Ellipse 553" cx="4.626" cy="4.626" r="4.626" transform="translate(207.873 73.615)" fill="#dbdbdb"/>
      <path id="Path_11387" data-name="Path 11387" d="M447.362,244.485c-.861.866-.784,8.578-.159,9.2s9.2,1.193,9.891-3.6S448.709,243.138,447.362,244.485Z" transform="translate(-280.415 -220.466)" fill="#931e27"/>
      <path id="Path_11388" data-name="Path 11388" d="M459.1,227.7h-6.977c-18.157-11.978-43.075-23.831-43.075-23.831l4.135-1c15.085,7.3,44.172,24,44.936,24.524A4.326,4.326,0,0,0,459.1,227.7Z" transform="translate(-260.857 -199.066)" fill="#455a64"/>
      <g id="Group_10714" data-name="Group 10714" transform="translate(18.818 2.14)" opacity="0.5">
        <path id="Path_11389" data-name="Path 11389" d="M140,309.045a30.51,30.51,0,0,1,5.289-6.511,33.442,33.442,0,0,1,6.819-4.962,33.05,33.05,0,0,1,16.263-4.005l2.116.1,1.058.053c.351.038.7.1,1.053.144l2.1.3c.692.144,1.375.327,2.063.481a26.062,26.062,0,0,1,7.761,3.328,27.111,27.111,0,0,1,6.28,5.616,37.7,37.7,0,0,1,4.438,7.146,39.345,39.345,0,0,0-4.65-6.968,26.865,26.865,0,0,0-6.3-5.429,30.553,30.553,0,0,0-15.916-4.212,33.967,33.967,0,0,0-8.276.89,32.985,32.985,0,0,0-7.79,2.933,33.355,33.355,0,0,0-6.838,4.785A31.843,31.843,0,0,0,140,309.045Z" transform="translate(-140 -248.288)" fill="#fff"/>
        <path id="Path_11390" data-name="Path 11390" d="M484.78,309.045a30.511,30.511,0,0,1,5.289-6.511,33.442,33.442,0,0,1,6.838-4.962,33.049,33.049,0,0,1,16.272-4.006l2.116.1,1.058.053c.351.038.7.1,1.048.144l2.1.3c.688.144,1.375.327,2.063.481a26.062,26.062,0,0,1,7.761,3.328,27.109,27.109,0,0,1,6.28,5.616,37.708,37.708,0,0,1,4.438,7.146,39.607,39.607,0,0,0-4.65-6.968,27.063,27.063,0,0,0-6.3-5.429,30.558,30.558,0,0,0-15.921-4.212,33.957,33.957,0,0,0-8.271.89,33.3,33.3,0,0,0-14.628,7.718A31.691,31.691,0,0,0,484.78,309.045Z" transform="translate(-318.99 -248.288)" fill="#fff"/>
        <path id="Path_11391" data-name="Path 11391" d="M147.1,220.895q5.532-4.328,11.194-8.492c3.765-2.784,7.574-5.52,11.493-8.112.481-.313.991-.63,1.505-.923.255-.154.515-.3.789-.433a4.808,4.808,0,0,1,.861-.322c1.135-.332,2.27-.62,3.4-.9,2.279-.563,4.559-1.1,6.862-1.548a40.505,40.505,0,0,1,7.011-.721c2.347-.048,4.688-.043,7.03.067q-3.513,0-7.016.212a40.268,40.268,0,0,0-6.934.866c-2.279.515-4.563,1.039-6.823,1.62-1.135.293-2.27.587-3.366.923a4.037,4.037,0,0,0-.779.3c-.25.13-.5.269-.75.418-.481.293-.991.606-1.481.923-3.919,2.539-7.694,5.289-11.541,7.987Z" transform="translate(-143.686 -199.41)" fill="#fff"/>
      </g>
      <path id="Path_11392" data-name="Path 11392" d="M370.7,308.54c-18.128,4.145-18.393,24.678-18.393,28.443,0,0-113.915-2.6-114.382-2.693-.38-.082-.264-18.056-13.709-24.908a34.012,34.012,0,0,1,16.705,20.778c.317,1.125,16.907,2.885,45.263,3.794s53.005.337,57.7-.322S354.037,308.468,370.7,308.54Z" transform="translate(-164.904 -253.924)" opacity="0.1"/>
      <path id="Path_11393" data-name="Path 11393" d="M606.3,323.095c-.25.721-5.578,7.213-5.6,7.386s-.187,1.971-.284,2.164-5.357,4.809-6.107,4.972-3.818.25-4.251.375-5.77,3.63-6.2,3.818a25,25,0,0,1-3.755,0c-.226,0,.481-4.525.346-8.655A24.825,24.825,0,0,0,567.25,312.54c4.669,1,12.459,7.372,15.6,13.945s2.337,7.059,3.073,7.852,3.174-.808,4.3-1.092,4.809-.375,6.2-.654,1.635-2.818,2.6-3.366A52.345,52.345,0,0,0,606.3,323.095Z" transform="translate(-342.985 -256.001)" opacity="0.1"/>
    </g>
    <g id="freepik--Locator--inject-101" transform="translate(192.904 72.517)">
      <path id="Path_11394" data-name="Path 11394" d="M373.977,93.183c-.6-6-4.732-11.973-12.021-11.973s-11.4,5.972-11.993,11.973c-.918,9.261,5.333,17.652,11.993,25.308C368.62,110.836,374.871,102.445,373.977,93.183Zm-12.021,6.679a6.564,6.564,0,1,1,4.652-1.919,6.573,6.573,0,0,1-4.652,1.919Z" transform="translate(-349.873 -81.21)" fill="#931e27"/>
    </g>
    <g id="freepik--Character--inject-101" transform="translate(232.334 98.404)">
      <path id="Path_11395" data-name="Path 11395" d="M434.137,410.425c.962.3,27.683-.043,28.693-.707.39-.245.563-4.145.644-8.862v-.149c0-.962.029-1.972.034-2.986V397.3l-1.284-13.873-17.893.178,1.765,13.743.024.543.106,2.847v.293s-10.175,4.708-11.209,5.554S433.2,410.151,434.137,410.425Z" transform="translate(-432.83 -263.992)" fill="#dd6a57"/>
      <path id="Path_11396" data-name="Path 11396" d="M434.133,425.4c.962.3,27.683-.043,28.693-.707.39-.245.563-4.145.644-8.862v-.149c0-.962.029-1.971.034-2.986v-.418l-17.426.048.024.543.106,2.847v.293s-10.175,4.708-11.209,5.554S433.2,425.129,434.133,425.4Z" transform="translate(-432.826 -278.969)" fill="#ebebeb"/>
      <path id="Path_11397" data-name="Path 11397" d="M434.133,429.089c.481.159,7.747.139,14.849,0,1.443-.029,2.847-.058,4.2-.1,5.063-.139,9.252-.346,9.617-.6s.563-4.034.64-8.655v-.346h0l-17.239.029v.3s-10.18,4.708-11.209,5.549S433.2,428.791,434.133,429.089Z" transform="translate(-432.826 -282.66)" fill="#931e27"/>
      <path id="Path_11398" data-name="Path 11398" d="M435.117,437.068c4.51-.168,22.7-.423,27.169-.25.038,0,.038.024,0,.029-4.462.264-22.658.375-27.164.3C435.025,437.14,435.025,437.072,435.117,437.068Z" transform="translate(-433.521 -291.678)" fill="#263238"/>
      <path id="Path_11399" data-name="Path 11399" d="M455.612,419.422a6.208,6.208,0,0,1,5.289,1.14c.053.048,0,.12-.072.106a24.864,24.864,0,0,0-5.232-1.019.115.115,0,0,1,.014-.226Z" transform="translate(-444.144 -282.601)" fill="#263238"/>
      <path id="Path_11400" data-name="Path 11400" d="M452.985,421.061A6.291,6.291,0,0,1,458.3,422.2c.053.053,0,.125-.072.106a24.857,24.857,0,0,0-5.232-1.015.115.115,0,0,1-.01-.226Z" transform="translate(-442.787 -283.452)" fill="#263238"/>
      <path id="Path_11401" data-name="Path 11401" d="M450.337,422.7a6.289,6.289,0,0,1,5.318,1.135c.053.048,0,.125-.077.106a24.754,24.754,0,0,0-5.227-1.015.115.115,0,0,1-.014-.226Z" transform="translate(-441.413 -284.301)" fill="#263238"/>
      <path id="Path_11402" data-name="Path 11402" d="M465.47,429.079c1.443-.029,2.847-.058,4.2-.1,5.063-.139,9.252-.346,9.617-.6s.563-4.034.64-8.655v-.346h0C477.578,421.025,469.254,426.564,465.47,429.079Z" transform="translate(-449.314 -282.655)" fill="#263238"/>
      <path id="Path_11403" data-name="Path 11403" d="M454.629,317.622h19.263s-3.881-44.984-3.727-45.773c.192-1.005,1.327-5.559,2.842-11.507l1.515-5.929c1.443-5.592,3.02-11.709,4.4-17.032,2.073-7.977,3.688-14.171,3.688-14.171H466.261s-1.923,6.03-4.3,13.878c-3.909,12.752-9.136,30.294-9.646,34.574C451.508,278.547,454.629,317.622,454.629,317.622Z" transform="translate(-442.416 -180.815)" fill="#455a64"/>
      <path id="Path_11404" data-name="Path 11404" d="M458.973,412.573c2.943-.062,2.1-.087,5.039-.115,1.443,0,10.9-.1,12.247.125.029,0,.029.058,0,.063-1.346.221-10.8.139-12.247.125-2.943-.029-2.1-.053-5.039-.111C458.939,412.655,458.939,412.573,458.973,412.573Z" transform="translate(-445.928 -279.051)" fill="#263238"/>
      <path id="Path_11405" data-name="Path 11405" d="M481.5,273.52c.63-2.784,1.572-5.515,2.4-8.247q2.505-8.333,5.039-16.652,1.265-4.159,2.539-8.319c.433-1.4.861-2.8,1.3-4.193s.914-2.722,1.3-4.1c.154-.563.24-.255.038.481-.4,1.443-.808,2.885-1.226,4.328q-1.241,4.256-2.505,8.511-2.5,8.463-5.049,16.917l-2.553,8.473a35.592,35.592,0,0,0-1.039,4.1,18.593,18.593,0,0,0-.168,4.385c.183,2.948.524,5.891.8,8.833s.543,5.891.817,8.838q.808,8.79,1.611,17.59c.067.741.135,1.486.192,2.231,0,.245-.361.226-.385,0-.635-5.8-1.12-11.618-1.669-17.422s-1.082-11.541-1.62-17.335c-.135-1.443-.289-2.885-.293-4.361a18.089,18.089,0,0,1,.461-4.056Z" transform="translate(-457.397 -185.232)" fill="#263238"/>
      <path id="Path_11406" data-name="Path 11406" d="M485.36,223.21c1.135,8.771,3.294,25.207,4.871,37.132,3.683-14.45,9.617-37.132,9.617-37.132Z" transform="translate(-459.64 -180.815)" fill="#263238"/>
      <path id="Path_11407" data-name="Path 11407" d="M476.555,411.07c.933.308,27.678.058,28.693-.6.39-.24.577-4.14.673-8.857v-.149c0-.962.038-1.971.043-2.986v-.418c.063-6.809-.428-13.878-.428-13.878l-17.484.115.524,13.743v.543l.1,2.847v.289s-10.194,4.679-11.233,5.515S475.632,410.767,476.555,411.07Z" transform="translate(-454.855 -264.382)" fill="#dd6a57"/>
      <path id="Path_11408" data-name="Path 11408" d="M476.555,426.031c.933.308,27.678.058,28.693-.6.39-.24.577-4.14.673-8.857v-.149c0-.962.038-1.972.043-2.986v-.418L488.577,413v.543l.1,2.847v.289s-10.194,4.679-11.233,5.515S475.632,425.728,476.555,426.031Z" transform="translate(-454.855 -279.343)" fill="#ebebeb"/>
      <path id="Path_11409" data-name="Path 11409" d="M476.553,429.7c.933.308,27.678.058,28.693-.6.389-.24.577-4.14.673-8.857v-.149l-17.253-.029v.289s-10.194,4.679-11.233,5.515S475.63,429.393,476.553,429.7Z" transform="translate(-454.853 -283.008)" fill="#931e27"/>
      <path id="Path_11410" data-name="Path 11410" d="M477.562,437.689c4.506-.154,22.7-.341,27.168-.154.034,0,.034.029,0,.029-4.467.25-22.663.293-27.168.2C477.466,437.761,477.466,437.718,477.562,437.689Z" transform="translate(-455.554 -292.04)" fill="#263238"/>
      <path id="Path_11411" data-name="Path 11411" d="M498.093,420.044a6.211,6.211,0,0,1,5.289,1.154c.053.048,0,.12-.077.106a24.738,24.738,0,0,0-5.227-1.039.111.111,0,0,1,.014-.221Z" transform="translate(-466.189 -282.925)" fill="#263238"/>
      <path id="Path_11412" data-name="Path 11412" d="M495.455,421.674a6.214,6.214,0,0,1,5.289,1.154c.053.048,0,.12-.072.106a24.8,24.8,0,0,0-5.227-1.039.111.111,0,1,1,.01-.221Z" transform="translate(-464.821 -283.772)" fill="#263238"/>
      <path id="Path_11413" data-name="Path 11413" d="M492.841,423.3a6.232,6.232,0,0,1,5.289,1.159c.053.048,0,.12-.072.106a24.8,24.8,0,0,0-5.184-1.039.115.115,0,0,1-.034-.226Z" transform="translate(-463.481 -284.616)" fill="#263238"/>
      <path id="Path_11414" data-name="Path 11414" d="M482.61,223.194a72.158,72.158,0,0,0,2.164,14c.144.51.3,1.015.481,1.5a29.289,29.289,0,0,1,4.7,2.4s.188,6.285.375,13.291c.212,7.838.428,16.575.385,18.426-.163,6.934.866,45.066.866,45.066l19.234.077s-3.481-42.58-3.457-45.119c.034-4.082-.933-22.119-1.683-35.29-.481-8.112-.832-14.363-.832-14.363Z" transform="translate(-458.212 -180.8)" fill="#455a64"/>
      <path id="Path_11415" data-name="Path 11415" d="M502.579,412.892c2.943-.053,2.1-.077,5.039-.1,1.443,0,10.9-.048,12.247.183a.029.029,0,1,1,0,.058c-1.346.216-10.81.1-12.247.072-2.943-.038-2.1-.058-5.039-.135a.043.043,0,0,1,0-.082Z" transform="translate(-468.564 -279.235)" fill="#263238"/>
      <path id="Path_11416" data-name="Path 11416" d="M525.344,228.924c.356,10.742.731,21.485,1.212,32.218s1.13,21.547,2.034,32.294c.481,6.006.962,14.455,1.625,20.446a.031.031,0,1,1-.062,0c-1.4-10.656-2.183-23.836-2.885-34.559s-1.154-21.466-1.52-32.217c-.207-6.078-.365-12.151-.548-18.229C525.21,228.838,525.339,228.847,525.344,228.924Z" transform="translate(-480.322 -183.745)" fill="#263238"/>
      <path id="Path_11417" data-name="Path 11417" d="M486.214,254.456a35.478,35.478,0,0,1,5.506,2.885.064.064,0,0,1-.058.115c-1.856-.9-3.755-1.774-5.559-2.775a.126.126,0,0,1,.111-.226Z" transform="translate(-459.989 -197.03)" fill="#263238"/>
      <path id="Path_11418" data-name="Path 11418" d="M483.907,236.463c.154.827.351,1.645.529,2.462s.293,1.558.481,2.318a3.957,3.957,0,0,0,1.077,1.923c.3.279.635.529.962.784l.543.414c-.024-.111-.043-.221-.063-.332l-.159-.938c-.12-.7-.231-1.394-.337-2.092-.207-1.37-.4-2.755-.688-4.111a.043.043,0,0,1,.087,0c.341,1.342.716,2.674,1.015,4.03.144.664.664,3.943.688,4.179s.043.481.053.721a2.693,2.693,0,0,1,0,.736c0,.058-.087.048-.111,0h0a3.067,3.067,0,0,1-.207-.716,7.129,7.129,0,0,1-.154-.707l-.043-.264c-.322-.2-.62-.457-.923-.673s-.659-.481-.962-.726a3.694,3.694,0,0,1-1.178-1.842,12.979,12.979,0,0,1-.385-2.361c-.106-.928-.183-1.866-.313-2.8C483.82,236.429,483.907,236.405,483.907,236.463Z" transform="translate(-458.84 -187.677)" fill="#263238"/>
      <path id="Path_11419" data-name="Path 11419" d="M448.182,145.784l2.318,12.565c.111.375-.091.659-.447.635l-6.381-.409a1.048,1.048,0,0,1-.846-.716l-2.318-12.57c-.111-.37.091-.654.447-.63l6.381.409a1.039,1.039,0,0,1,.846.716Z" transform="translate(-436.339 -140.035)" fill="#37474f"/>
      <path id="Path_11420" data-name="Path 11420" d="M446.623,145.614l2.323,12.584c.111.37-.091.654-.447.63l-6.386-.409a1.034,1.034,0,0,1-.842-.716l-2.3-12.579c-.111-.375.091-.654.447-.635l6.386.414A1.029,1.029,0,0,1,446.623,145.614Z" transform="translate(-435.54 -139.947)" fill="#455a64"/>
      <path id="Path_11421" data-name="Path 11421" d="M451.209,147.209a.539.539,0,1,0,.173-.377A.543.543,0,0,0,451.209,147.209Z" transform="translate(-441.911 -141.09)" fill="#263238"/>
      <path id="Path_11422" data-name="Path 11422" d="M463.5,182.073c-4.039,7.5-12.709,17.042-16.066,16.9-1.6-.067-4.472.159-6.468-1.794-4.352-4.256-7.751-12.127-8.285-16.556-.192-1.572,7.583-4.535,8.631-3.2,2.457,3.121,5.188,9.136,5.655,9.136,1.721-.038,8.752-5.261,13.661-8.939C466.591,173.109,465.115,179.087,463.5,182.073Z" transform="translate(-432.293 -156.301)" fill="#dd6a57"/>
      <path id="Path_11423" data-name="Path 11423" d="M433.22,159c.962-3.121,1.712-3.775,1.135-6.847-.375-2.015.75-3.121,2.073-1.443,2.164,2.741,1.745,7.035,1.173,8.478Z" transform="translate(-432.572 -142.754)" fill="#dd6a57"/>
      <path id="Path_11424" data-name="Path 11424" d="M432.559,169.167s-1.168-4.491-.457-7.92c.481-2.371,2.145-7.415,8.987-9.742,1.625-.553,4.328-.188,2.005,1.678-1.649,1.322-3.1,1.664-3.919,2.611,0,0,3.39.87,3.881,2.52a31.731,31.731,0,0,1,.962,4.4,6.837,6.837,0,0,1-.808.255,5.126,5.126,0,0,1-.842,3.664Z" transform="translate(-431.872 -143.468)" fill="#dd6a57"/>
      <path id="Path_11425" data-name="Path 11425" d="M434.08,163.286a19.062,19.062,0,0,1,5.414-3.039c2.476-.755,7.453-1.548,7.992.289.394,1.342-1.476,1.813-1.476,1.813s2.125.106,2.217,1.4c.082,1.178-1.39,1.443-1.39,1.443s1.279.289,1.14,1.443c-.164,1.385-2.813.558-4.193,1.813C443.476,168.734,434.08,163.286,434.08,163.286Z" transform="translate(-433.018 -147.694)" fill="#dd6a57"/>
      <path id="Path_11426" data-name="Path 11426" d="M446.084,165.927a10.348,10.348,0,0,1,6.112-.688c.053,0,.067.058,0,.058a25.485,25.485,0,0,0-6.126.654S446.07,165.932,446.084,165.927Z" transform="translate(-439.243 -150.624)" fill="#263238"/>
      <path id="Path_11427" data-name="Path 11427" d="M447.824,171.363a11.627,11.627,0,0,1,6.141-.322c.053,0,.067.063,0,.058a27.313,27.313,0,0,0-6.155.288S447.81,171.363,447.824,171.363Z" transform="translate(-440.146 -153.593)" fill="#263238"/>
      <path id="Path_11428" data-name="Path 11428" d="M432.17,183.818s5.549,12.618,9.083,14.238a12.21,12.21,0,0,0,7.069,1.293,3.7,3.7,0,0,0,1.443-.606c3.784-2.4,10.81-11.242,13.743-16.272,2.2-3.775,2.169-7.309-.9-6.338a10.069,10.069,0,0,0-2.885,1.62c-5.77,4.328-12.459,8.405-12.757,8.227s-3.2-5.39-3.2-5.39Z" transform="translate(-432.027 -156.292)" fill="#931e27"/>
      <path id="Path_11429" data-name="Path 11429" d="M461.649,202.29a3.366,3.366,0,0,1-.24,1.669,3.142,3.142,0,0,1,0-.851A2.927,2.927,0,0,1,461.649,202.29Z" transform="translate(-447.191 -169.955)" fill="#fff"/>
      <path id="Path_11430" data-name="Path 11430" d="M446.6,208.78a3.149,3.149,0,0,1,0,.851,2.97,2.97,0,0,1-.231.817,3.154,3.154,0,0,1,0-.851,3.1,3.1,0,0,1,.231-.817Z" transform="translate(-439.383 -173.324)" fill="#fff"/>
      <path id="Path_11431" data-name="Path 11431" d="M473.155,215.11a3.154,3.154,0,0,1,0,.851,2.928,2.928,0,0,1-.231.817,3.231,3.231,0,0,1,.24-1.669Z" transform="translate(-453.172 -176.61)" fill="#fff"/>
      <path id="Path_11432" data-name="Path 11432" d="M480.44,189.33a3.147,3.147,0,0,1,0,.851,2.927,2.927,0,0,1-.231.817,3.149,3.149,0,0,1,0-.851,2.972,2.972,0,0,1,.231-.817Z" transform="translate(-456.951 -163.227)" fill="#fff"/>
      <path id="Path_11433" data-name="Path 11433" d="M481.269,199.609a3.366,3.366,0,0,1-1.669-.24,3.149,3.149,0,0,1,.851,0A2.971,2.971,0,0,1,481.269,199.609Z" transform="translate(-456.65 -168.423)" fill="#fff"/>
      <path id="Path_11434" data-name="Path 11434" d="M450.533,202.721a3.144,3.144,0,0,1-.851,0,3,3,0,0,1-.822-.226,2.8,2.8,0,0,1,.851,0,3,3,0,0,1,.822.226Z" transform="translate(-440.691 -170.044)" fill="#fff"/>
      <path id="Path_11435" data-name="Path 11435" d="M466.2,211.891a2.8,2.8,0,0,1-.851,0,2.92,2.92,0,0,1-.817-.226,3.3,3.3,0,0,1,1.669.236Z" transform="translate(-448.826 -174.81)" fill="#fff"/>
      <path id="Path_11436" data-name="Path 11436" d="M436.453,193.625a2.962,2.962,0,0,1-.851,0,3,3,0,0,1-.822-.226,3.144,3.144,0,0,1,.851,0,3,3,0,0,1,.822.226Z" transform="translate(-433.382 -165.324)" fill="#fff"/>
      <path id="Path_11437" data-name="Path 11437" d="M451.663,220.47a3.323,3.323,0,0,1-1.673-.236,2.8,2.8,0,0,1,.851,0,3,3,0,0,1,.822.236Z" transform="translate(-441.278 -179.254)" fill="#fff"/>
      <path id="Path_11438" data-name="Path 11438" d="M498.64,177.14a2.823,2.823,0,0,0,.731.212,1.34,1.34,0,0,0-.135-.226A2.255,2.255,0,0,0,498.64,177.14Z" transform="translate(-466.534 -156.884)" fill="#fff"/>
      <path id="Path_11439" data-name="Path 11439" d="M469.43,195.84a3.088,3.088,0,0,1,.591.611,2.885,2.885,0,0,1,.418.741,2.848,2.848,0,0,1-.591-.611A2.731,2.731,0,0,1,469.43,195.84Z" transform="translate(-451.37 -166.606)" fill="#fff"/>
      <path id="Path_11440" data-name="Path 11440" d="M455,210.51a3.115,3.115,0,0,1,.6.611,3.012,3.012,0,0,1,.418.741,2.885,2.885,0,0,1-.6-.611,3.011,3.011,0,0,1-.418-.741Z" transform="translate(-443.879 -174.222)" fill="#fff"/>
      <path id="Path_11441" data-name="Path 11441" d="M446.77,191.07a3.093,3.093,0,0,1,.6.606,3.013,3.013,0,0,1,.418.741,2.886,2.886,0,0,1-.6-.611,3.075,3.075,0,0,1-.418-.736Z" transform="translate(-439.606 -164.13)" fill="#fff"/>
      <path id="Path_11442" data-name="Path 11442" d="M478.55,208.68a3.087,3.087,0,0,1,.591.611,2.887,2.887,0,0,1,.418.741A3.342,3.342,0,0,1,478.55,208.68Z" transform="translate(-456.105 -173.272)" fill="#fff"/>
      <path id="Path_11443" data-name="Path 11443" d="M489.42,184a2.964,2.964,0,0,1,.6.606,3.011,3.011,0,0,1,.418.741,3.094,3.094,0,0,1-.6-.606A3.2,3.2,0,0,1,489.42,184Z" transform="translate(-461.748 -160.46)" fill="#fff"/>
      <path id="Path_11444" data-name="Path 11444" d="M490.13,194.975a3.241,3.241,0,0,1,1.346-1.015,2.962,2.962,0,0,1-.606.6A3.2,3.2,0,0,1,490.13,194.975Z" transform="translate(-462.116 -165.63)" fill="#fff"/>
      <path id="Path_11445" data-name="Path 11445" d="M439.07,200.755a2.886,2.886,0,0,1,.611-.6,3.01,3.01,0,0,1,.741-.418A3.294,3.294,0,0,1,439.07,200.755Z" transform="translate(-435.609 -168.631)" fill="#fff"/>
      <path id="Path_11446" data-name="Path 11446" d="M454.78,196.03a2.938,2.938,0,0,1,.606-.591,2.886,2.886,0,0,1,.741-.418,3.068,3.068,0,0,1-.606.591A2.948,2.948,0,0,1,454.78,196.03Z" transform="translate(-443.765 -166.181)" fill="#fff"/>
      <path id="Path_11447" data-name="Path 11447" d="M472.08,205.72a2.937,2.937,0,0,1,.606-.591,2.885,2.885,0,0,1,.741-.418,3.067,3.067,0,0,1-.606.591,3.1,3.1,0,0,1-.741.418Z" transform="translate(-452.746 -171.211)" fill="#fff"/>
      <path id="Path_11448" data-name="Path 11448" d="M461.67,220.17a3.085,3.085,0,0,1,.611-.591,2.732,2.732,0,0,1,.741-.418,2.964,2.964,0,0,1-.611.591A2.886,2.886,0,0,1,461.67,220.17Z" transform="translate(-447.341 -178.713)" fill="#fff"/>
      <path id="Path_11449" data-name="Path 11449" d="M468.8,198.744c3.784-2.4,10.81-11.242,13.743-16.272,2.2-3.775,2.169-7.309-.9-6.338C479.956,179.1,472.483,192.094,468.8,198.744Z" transform="translate(-451.043 -156.292)" opacity="0.1"/>
      <path id="Path_11450" data-name="Path 11450" d="M435.09,193.5c.423-.207,4.409-1.51,5.289-1.774s4.419-1.38,5.342-1.577a.034.034,0,0,1,0,.063c-.866.365-4.443,1.5-5.328,1.789s-4.847,1.491-5.289,1.563C435.066,193.569,435.061,193.516,435.09,193.5Z" transform="translate(-433.533 -163.652)" fill="#263238"/>
      <path id="Path_11451" data-name="Path 11451" d="M474.979,206.334c.385.481,27.515,2.173,27.664,2.01.409-.433-5.924-30.241-11.723-35.511-1.245-1.13-5.044-.245-6.092.587-.659.524-2.366,4.107-3.563,7.093C478.879,186.493,474.638,205.91,474.979,206.334Z" transform="translate(-454.241 -154.384)" fill="#263238"/>
      <path id="Path_11452" data-name="Path 11452" d="M495.4,171.655c-1.164.673-2.457,4.679-.077,5.515s5.1-2.76,5.573-3.972S497.909,170.208,495.4,171.655Z" transform="translate(-464.12 -153.77)" fill="#931e27"/>
      <path id="Path_11453" data-name="Path 11453" d="M495.463,171.823c1.5.37,4.087-1.895,5.126-3.736.067-.13-.111-1.471-.255-3.111-.082-1-.154-2.106-.144-3.126l-6.4,1.486a16.085,16.085,0,0,1,.572,3.919,1.925,1.925,0,0,1-.048.414.482.482,0,0,1,0,.072C494.17,168.534,494.021,171.462,495.463,171.823Z" transform="translate(-464.016 -148.961)" fill="#dd6a57"/>
      <path id="Path_11454" data-name="Path 11454" d="M499.867,162c-.212,1.274-1.226,5.818-4.924,5.866a4.643,4.643,0,0,1-.659-.043.273.273,0,0,1,0-.072,2.263,2.263,0,0,0,.048-.414,16.394,16.394,0,0,0-.582-3.919Z" transform="translate(-463.996 -149.039)" fill="#263238"/>
      <path id="Path_11455" data-name="Path 11455" d="M496.523,141.742c.842,2.212.082,8.824-1.443,10.387-2.188,2.265-5.992,2.722-7.973.038-1.923-2.6-.779-11.194.928-12.637C490.566,137.4,495.283,138.468,496.523,141.742Z" transform="translate(-460.027 -136.802)" fill="#dd6a57"/>
      <path id="Path_11456" data-name="Path 11456" d="M495.26,154.49s.034,0,.029.043c-.062.442-.062.962.327,1.154v.024C495.125,155.591,495.13,154.9,495.26,154.49Z" transform="translate(-464.74 -145.14)" fill="#263238"/>
      <path id="Path_11457" data-name="Path 11457" d="M495.724,153.61c.721.029.62,1.471-.048,1.443S495.114,153.591,495.724,153.61Z" transform="translate(-464.758 -144.683)" fill="#263238"/>
      <path id="Path_11458" data-name="Path 11458" d="M489.523,154.15a.04.04,0,0,0-.038.038c0,.447-.111.962-.524,1.077v.029C489.46,155.256,489.58,154.559,489.523,154.15Z" transform="translate(-461.509 -144.963)" fill="#263238"/>
      <path id="Path_11459" data-name="Path 11459" d="M488.689,153.115c-.716-.1-.87,1.337-.212,1.443S489.29,153.206,488.689,153.115Z" transform="translate(-461.041 -144.423)" fill="#263238"/>
      <path id="Path_11460" data-name="Path 11460" d="M496.379,151.191c-.192-.067-.361-.154-.543-.236a.961.961,0,0,1-.51-.351.308.308,0,0,1,.072-.365.769.769,0,0,1,.769,0,1.111,1.111,0,0,1,.606.529.327.327,0,0,1-.394.423Z" transform="translate(-464.797 -142.879)" fill="#263238"/>
      <path id="Path_11461" data-name="Path 11461" d="M487.9,151.2a5.887,5.887,0,0,0,.582-.106.986.986,0,0,0,.577-.226.308.308,0,0,0,0-.375.755.755,0,0,0-.741-.192,1.116,1.116,0,0,0-.712.375.327.327,0,0,0,.293.524Z" transform="translate(-460.771 -142.949)" fill="#263238"/>
      <path id="Path_11462" data-name="Path 11462" d="M495.335,163.232c-.115.1-.231.231-.394.236a1.279,1.279,0,0,1-.481-.144h0a.606.606,0,0,0,.548.284.481.481,0,0,0,.38-.37C495.388,163.227,495.354,163.218,495.335,163.232Z" transform="translate(-464.364 -149.674)" fill="#263238"/>
      <path id="Path_11463" data-name="Path 11463" d="M492.717,155.048a1.539,1.539,0,0,1-1.063.606,2.1,2.1,0,0,1-.548,0H491l-.1-.024a.106.106,0,0,1-.082-.106h0a.135.135,0,0,1,0-.043h0v-.038a6.683,6.683,0,0,1,.087-.866c-.13.053-.793.3-.769.12a22.956,22.956,0,0,1,.914-4.568.043.043,0,0,1,.082,0c-.13,1.443-.51,2.832-.664,4.27a2.447,2.447,0,0,1,.736-.168c.048,0-.154,1.005-.149,1.159h0a2.121,2.121,0,0,0,1.611-.375C492.712,154.98,492.746,155.014,492.717,155.048Z" transform="translate(-462.121 -142.861)" fill="#263238"/>
      <path id="Path_11464" data-name="Path 11464" d="M492.69,160.832a1.77,1.77,0,0,0,.726.543.808.808,0,0,0,.481,0c.351-.1.356-.423.289-.7a1.98,1.98,0,0,0-.168-.423A2.328,2.328,0,0,1,492.69,160.832Z" transform="translate(-463.445 -148.13)" fill="#263238"/>
      <path id="Path_11465" data-name="Path 11465" d="M494.2,161.832a.808.808,0,0,0,.481,0c.351-.1.356-.423.289-.7a.837.837,0,0,0-.769.7Z" transform="translate(-464.229 -148.587)" fill="#f392b9"/>
      <path id="Path_11466" data-name="Path 11466" d="M504.393,154.278s1.375-2.183,2.361-1.7,0,3.6-1.092,4.073a1.144,1.144,0,0,1-1.563-.539Z" transform="translate(-469.369 -144.11)" fill="#dd6a57"/>
      <path id="Path_11467" data-name="Path 11467" d="M507.132,154.5v.029a2.885,2.885,0,0,0-1.409,1.88.63.63,0,0,1,.928-.226s0,.048,0,.043a.707.707,0,0,0-.765.279,3.306,3.306,0,0,0-.341.644c-.034.077-.164.043-.139-.038h0C505.338,156.1,506.054,154.649,507.132,154.5Z" transform="translate(-470.044 -145.145)" fill="#263238"/>
      <path id="Path_11468" data-name="Path 11468" d="M487.08,140.659c2.159,1.37,4.963-.918,4.963-.918a2.3,2.3,0,0,0,2.4,1.37s.539,3.554,1.481,3.515c1.443-.058,1.7-4.943,1.217-5.881a2.558,2.558,0,0,0-1.712-1.144,2.356,2.356,0,0,0-1.024-1.385c-1-.712-4.328.414-4.328.414a3.13,3.13,0,0,0-.909-1.135.885.885,0,0,0-1.269.159,2.115,2.115,0,0,1,.375.87c.207,1.039-.649,1.067-.673.12a1.5,1.5,0,0,1,.3-.991c-.442-.6-1.14-.779-1.544-.433C485.58,135.851,485.282,139.52,487.08,140.659Z" transform="translate(-459.84 -135.045)" fill="#263238"/>
      <path id="Path_11469" data-name="Path 11469" d="M511.011,177.513c8.126,8.458,19.975,29.876,21.437,32.948,1,2.087-9.906,7.583-10.367,6.064-.591-1.923-10.1-25.913-12.608-34.958C508.078,176.58,509.333,175.763,511.011,177.513Z" transform="translate(-471.846 -156.656)" fill="#dd6a57"/>
      <path id="Path_11470" data-name="Path 11470" d="M535.27,250.252c.38,1.039,1.673,5.453,2.582,6s5.655.433,8.049.433,2.885-.668,2.828-1.5-5.063-.962-5.063-.962,6.708,1.923,8.4,2.241,5.578,1.293,6.141-.106c.25-.63-.813-1.269-.813-1.269s1.63.481,1.89-.337c.3-.923-1-1.443-1-1.443s1.019.2,1.043-.548c.053-1.683-6.328-2.51-6.328-2.51s4.885,2.38,5.039,1.01c.221-1.923-9.795-3.982-10.838-4.809a7.054,7.054,0,0,1-1.669-2.058Z" transform="translate(-485.55 -191.816)" fill="#dd6a57"/>
      <path id="Path_11471" data-name="Path 11471" d="M557.708,265.419a.731.731,0,0,0-.226-.639,2.125,2.125,0,0,0-.587-.38,8,8,0,0,0-1.37-.442c-.962-.24-1.924-.409-2.885-.659a11.8,11.8,0,0,1,2.957.332,5.43,5.43,0,0,1,1.414.539,1.863,1.863,0,0,1,.587.51A.755.755,0,0,1,557.708,265.419Z" transform="translate(-494.568 -201.626)" fill="#263238"/>
      <path id="Path_11472" data-name="Path 11472" d="M572.491,263.983c-.692-.168-1.37-.365-2.048-.558s-1.356-.409-2.034-.611l-2.02-.635c-.673-.212-1.346-.418-2.029-.62a14.728,14.728,0,0,1,2.1.375c.692.154,1.375.356,2.053.558s1.351.433,2.01.688S571.847,263.695,572.491,263.983Z" transform="translate(-500.652 -200.724)" fill="#263238"/>
      <path id="Path_11473" data-name="Path 11473" d="M567.73,258.07a13.136,13.136,0,0,1,1.923.269,18.556,18.556,0,0,1,1.895.481,16.845,16.845,0,0,1,1.832.688,13.472,13.472,0,0,1,1.736.894c-.615-.216-1.217-.452-1.832-.654s-1.221-.418-1.837-.606-1.236-.375-1.856-.558S568.341,258.243,567.73,258.07Z" transform="translate(-502.402 -198.913)" fill="#263238"/>
      <path id="Path_11474" data-name="Path 11474" d="M569.78,254.74a12.959,12.959,0,0,1,5.919,2.048c-1-.356-1.957-.726-2.943-1.058S570.785,255.062,569.78,254.74Z" transform="translate(-503.466 -197.184)" fill="#263238"/>
      <path id="Path_11475" data-name="Path 11475" d="M509.394,183.545c1.923,8.29,11.141,30.967,11.141,30.967l8.28-3.991,4.174-2.015s-14.219-22.216-20.028-29.481c-.452-.558-.861-1.039-1.236-1.443C508.124,173.735,507.9,177.149,509.394,183.545Z" transform="translate(-471.667 -156.287)" fill="#931e27"/>
      <path id="Path_11476" data-name="Path 11476" d="M532.046,245.04a118.146,118.146,0,0,1,11.358-5.52c.043,0,.072.053.029.072-.962.4-7.011,3.64-11.358,5.525C532.012,245.136,532.012,245.04,532.046,245.04Z" transform="translate(-483.865 -189.282)" fill="#263238"/>
      <path id="Path_11477" data-name="Path 11477" d="M528.151,201.86a3.144,3.144,0,0,1,0,.851,2.917,2.917,0,0,1-.226.817,2.771,2.771,0,0,1,0-.846A2.993,2.993,0,0,1,528.151,201.86Z" transform="translate(-481.72 -169.732)" fill="#fff"/>
      <path id="Path_11478" data-name="Path 11478" d="M520.191,217a3.149,3.149,0,0,1,0,.851,2.966,2.966,0,0,1-.226.817,2.806,2.806,0,0,1,0-.851A2.921,2.921,0,0,1,520.191,217Z" transform="translate(-477.588 -177.591)" fill="#fff"/>
      <path id="Path_11479" data-name="Path 11479" d="M540.25,240.91a3.114,3.114,0,0,1,0,.846,3.007,3.007,0,0,1-.231.822,3.144,3.144,0,0,1,0-.851A2.926,2.926,0,0,1,540.25,240.91Z" transform="translate(-488.001 -190.004)" fill="#fff"/>
      <path id="Path_11480" data-name="Path 11480" d="M539.643,214.69a2.767,2.767,0,0,1,0,.846,3,3,0,0,1-.226.822,2.959,2.959,0,0,1,0-.851A2.919,2.919,0,0,1,539.643,214.69Z" transform="translate(-487.687 -176.392)" fill="#fff"/>
      <path id="Path_11481" data-name="Path 11481" d="M545.721,225.74a3.144,3.144,0,0,1,0,.851,3,3,0,0,1-.226.822,2.8,2.8,0,0,1,0-.851A2.993,2.993,0,0,1,545.721,225.74Z" transform="translate(-490.841 -182.129)" fill="#fff"/>
      <path id="Path_11482" data-name="Path 11482" d="M517.2,185.075a2.963,2.963,0,0,1-.851,0,2.918,2.918,0,0,1-.817-.226,3.116,3.116,0,0,1,.846,0A3.007,3.007,0,0,1,517.2,185.075Z" transform="translate(-475.302 -160.885)" fill="#fff"/>
      <path id="Path_11483" data-name="Path 11483" d="M517.029,202.239a3.366,3.366,0,0,1-1.669-.24,3.148,3.148,0,0,1,.851,0A2.972,2.972,0,0,1,517.029,202.239Z" transform="translate(-475.214 -169.789)" fill="#fff"/>
      <path id="Path_11484" data-name="Path 11484" d="M532.639,211.458a3.117,3.117,0,0,1-.846,0,3.005,3.005,0,0,1-.822-.231,2.962,2.962,0,0,1,.851,0A2.919,2.919,0,0,1,532.639,211.458Z" transform="translate(-483.318 -174.578)" fill="#fff"/>
      <path id="Path_11485" data-name="Path 11485" d="M548.2,246.251a3.117,3.117,0,0,1-.846,0,3.174,3.174,0,0,1-.822-.226,2.8,2.8,0,0,1,.851,0,2.918,2.918,0,0,1,.818.226Z" transform="translate(-491.396 -192.643)" fill="#fff"/>
      <path id="Path_11486" data-name="Path 11486" d="M531.949,246.831a3.115,3.115,0,0,1-.846,0,3,3,0,0,1-.822-.226,2.8,2.8,0,0,1,.851,0,2.919,2.919,0,0,1,.818.226Z" transform="translate(-482.96 -192.944)" fill="#fff"/>
      <path id="Path_11487" data-name="Path 11487" d="M527.2,229.63a3.148,3.148,0,0,1-.851,0,2.973,2.973,0,0,1-.817-.231,3.149,3.149,0,0,1,.851,0A3.1,3.1,0,0,1,527.2,229.63Z" transform="translate(-480.494 -184.013)" fill="#fff"/>
      <path id="Path_11488" data-name="Path 11488" d="M544.44,234.6a3.082,3.082,0,0,1,.591.611,2.735,2.735,0,0,1,.418.741,2.962,2.962,0,0,1-.591-.611,2.884,2.884,0,0,1-.418-.74Z" transform="translate(-490.311 -186.728)" fill="#fff"/>
      <path id="Path_11489" data-name="Path 11489" d="M521.48,210.09a3.069,3.069,0,0,1,.591.606,3.032,3.032,0,0,1,.418.74,2.938,2.938,0,0,1-.591-.606A2.8,2.8,0,0,1,521.48,210.09Z" transform="translate(-478.391 -174.004)" fill="#fff"/>
      <path id="Path_11490" data-name="Path 11490" d="M513.27,190.64a2.964,2.964,0,0,1,.591.611,2.883,2.883,0,0,1,.418.741,2.966,2.966,0,0,1-.591-.611A2.732,2.732,0,0,1,513.27,190.64Z" transform="translate(-474.129 -163.907)" fill="#fff"/>
      <path id="Path_11491" data-name="Path 11491" d="M537,222.94a2.961,2.961,0,0,1,.6.606,3.2,3.2,0,0,1,.418.741,2.96,2.96,0,0,1-.6-.606A3.1,3.1,0,0,1,537,222.94Z" transform="translate(-486.448 -180.675)" fill="#fff"/>
      <path id="Path_11492" data-name="Path 11492" d="M529.94,238.1a3.113,3.113,0,0,1,.6.611,3.009,3.009,0,0,1,.418.741,3.293,3.293,0,0,1-1.015-1.351Z" transform="translate(-482.783 -188.545)" fill="#fff"/>
      <path id="Path_11493" data-name="Path 11493" d="M551.26,238.655a3.294,3.294,0,0,1,1.351-1.015A3.294,3.294,0,0,1,551.26,238.655Z" transform="translate(-493.851 -188.306)" fill="#fff"/>
      <path id="Path_11494" data-name="Path 11494" d="M537,251.12a2.964,2.964,0,0,1,.611-.591,2.733,2.733,0,0,1,.741-.418,2.964,2.964,0,0,1-.611.591,2.883,2.883,0,0,1-.74.418Z" transform="translate(-486.448 -194.78)" fill="#fff"/>
      <path id="Path_11495" data-name="Path 11495" d="M535.57,233a3.293,3.293,0,0,1,1.351-1.015,3.117,3.117,0,0,1-.611.6,3.011,3.011,0,0,1-.741.418Z" transform="translate(-485.706 -185.373)" fill="#fff"/>
      <path id="Path_11496" data-name="Path 11496" d="M521.28,195.6a2.962,2.962,0,0,1,.606-.6,3.011,3.011,0,0,1,.741-.418,2.888,2.888,0,0,1-.611.6A3.075,3.075,0,0,1,521.28,195.6Z" transform="translate(-478.287 -165.957)" fill="#fff"/>
      <path id="Path_11497" data-name="Path 11497" d="M509.4,181.255a2.961,2.961,0,0,1,.606-.6,3.1,3.1,0,0,1,.741-.418,2.963,2.963,0,0,1-.606.6A3.2,3.2,0,0,1,509.4,181.255Z" transform="translate(-472.12 -158.508)" fill="#fff"/>
      <path id="Path_11498" data-name="Path 11498" d="M528.17,219.745a3.091,3.091,0,0,1,.606-.6,3.2,3.2,0,0,1,.74-.418,2.962,2.962,0,0,1-.606.6A3.2,3.2,0,0,1,528.17,219.745Z" transform="translate(-481.864 -178.49)" fill="#fff"/>
    </g>
  </g>
</svg>
