<svg xmlns="http://www.w3.org/2000/svg" width="348.309" height="259.532" viewBox="0 0 348.309 259.532">
  <g id="Order_ride-rafiki" data-name="Order ride-rafiki" transform="translate(0 -55)">
    <g id="freepik--background-complete--inject-36" transform="translate(0 55)">
      <rect id="Rectangle_2648" data-name="Rectangle 2648" width="348.309" height="0.174" transform="translate(0 228.073)" fill="#ebebeb"/>
      <rect id="Rectangle_2649" data-name="Rectangle 2649" width="23.072" height="0.174" transform="translate(290.337 239.281)" fill="#ebebeb"/>
      <rect id="Rectangle_2650" data-name="Rectangle 2650" width="6.054" height="0.174" transform="translate(224.68 241.176)" fill="#ebebeb"/>
      <rect id="Rectangle_2651" data-name="Rectangle 2651" width="13.368" height="0.174" transform="translate(276.272 232.817)" fill="#ebebeb"/>
      <rect id="Rectangle_2652" data-name="Rectangle 2652" width="30.087" height="0.174" transform="translate(36.545 233.987)" fill="#ebebeb"/>
      <rect id="Rectangle_2653" data-name="Rectangle 2653" width="4.41" height="0.174" transform="translate(72.838 233.987)" fill="#ebebeb"/>
      <rect id="Rectangle_2654" data-name="Rectangle 2654" width="65.259" height="0.174" transform="translate(91.584 236.927)" fill="#ebebeb"/>
      <path id="Path_11499" data-name="Path 11499" d="M176.691,252H42.181a3.978,3.978,0,0,1-3.971-3.978V58.943A3.978,3.978,0,0,1,42.181,55h134.51a3.978,3.978,0,0,1,3.978,3.978V248.026A3.978,3.978,0,0,1,176.691,252ZM42.181,55.139a3.8,3.8,0,0,0-3.8,3.8V248.026a3.8,3.8,0,0,0,3.8,3.8h134.51a3.811,3.811,0,0,0,3.8-3.8V58.943a3.811,3.811,0,0,0-3.8-3.8Z" transform="translate(-11.592 -55)" fill="#ebebeb"/>
      <path id="Path_11500" data-name="Path 11500" d="M392.995,252H258.478a3.985,3.985,0,0,1-3.978-3.978V58.943A3.985,3.985,0,0,1,258.478,55H392.995a3.978,3.978,0,0,1,3.964,3.943V248.026A3.978,3.978,0,0,1,392.995,252ZM258.478,55.139a3.81,3.81,0,0,0-3.8,3.8V248.026a3.811,3.811,0,0,0,3.8,3.8H392.995a3.811,3.811,0,0,0,3.8-3.8V58.943a3.811,3.811,0,0,0-3.8-3.8Z" transform="translate(-77.211 -55)" fill="#ebebeb"/>
      <path id="Path_11501" data-name="Path 11501" d="M383.607,359.185c.153-1.825-.091-4.18-2.222-4.876-3.608-1.191-5.747-3.985-5.629-7.14s-3.678-6.235-6.52-3.274-2.473-2.278-6.27-3.553-7.015,1.818-5.977,4.639-2.7,4.584-7.189,2.187-9.425,1.964-8.478,5.385.174,3.8-2.668,2.654c-2.292-.92-6.047,1.01-6.465,3.992Z" transform="translate(-100.78 -141.478)" fill="#e0e0e0"/>
      <path id="Path_11502" data-name="Path 11502" d="M113.236,360.866c.181-1.442.1-3.553-1.693-4.145-2.786-.92-4.458-3.093-4.368-5.573s-2.849-4.841-5.064-2.536-1.916-1.769-4.876-2.786-5.448,1.393-4.639,3.6-2.09,3.56-5.573,1.693-7.314,1.526-6.576,4.18.132,2.947-2.09,2.09c-1.867-.745-4.974.94-5.037,3.448Z" transform="translate(-22.244 -143.158)" fill="#e0e0e0"/>
      <path id="Path_11503" data-name="Path 11503" d="M137.29,355.729h65.552c.926-3.079-1.463-6.764-4.054-7.287-3.2-.634-6.4-6.27-6.555-9.829s-5.893-14.594-14.831-7.781-6.221,1-12.685-.906-10.54,3.581-7.7,7.663c0,0-6.492-1.63-9.167,4.437s0,9.829,0,9.829S139.638,351.654,137.29,355.729Z" transform="translate(-41.651 -138.022)" fill="#e0e0e0"/>
      <path id="Path_11504" data-name="Path 11504" d="M285.31,114.842a3.086,3.086,0,0,1,3.079-3.086,3.051,3.051,0,0,1,.885.132,7.066,7.066,0,0,1-.063-.947,6.527,6.527,0,0,1,6.527-6.527,6.786,6.786,0,0,1,1.2.111,5.705,5.705,0,0,1,10.582,2.884h.1a5.259,5.259,0,0,1,0,10.519h-19.31A3.079,3.079,0,0,1,285.31,114.842Z" transform="translate(-86.558 -69.192)" fill="#f5f5f5"/>
      <path id="Path_11505" data-name="Path 11505" d="M129.34,140.935a3.079,3.079,0,0,1,3.086-3.079,3.128,3.128,0,0,1,.885.132,6.13,6.13,0,0,1-.07-.947,6.527,6.527,0,0,1,6.527-6.534,6.269,6.269,0,0,1,1.205.118,5.705,5.705,0,0,1,10.582,2.912h.091a5.259,5.259,0,0,1,0,10.519h-19.31A3.079,3.079,0,0,1,129.34,140.935Z" transform="translate(-39.239 -77.111)" fill="#f5f5f5"/>
      <path id="Path_11506" data-name="Path 11506" d="M229.78,130.253a1.916,1.916,0,0,1,1.916-1.916,2.089,2.089,0,0,1,.55.077,3.994,3.994,0,0,1-.042-.585,4.054,4.054,0,0,1,4.054-4.061,4.445,4.445,0,0,1,.752.07,3.546,3.546,0,0,1,6.576,1.8h.056a3.274,3.274,0,1,1,0,6.541h-12A1.916,1.916,0,0,1,229.78,130.253Z" transform="translate(-69.711 -75.367)" fill="#f5f5f5"/>
      <path id="Path_11507" data-name="Path 11507" d="M77.79,124.876a1.916,1.916,0,0,1,1.916-1.916,1.783,1.783,0,0,1,.55.084,4.182,4.182,0,0,1-.042-.592,4.061,4.061,0,0,1,4.061-4.054,3.8,3.8,0,0,1,.745.07,3.546,3.546,0,0,1,6.576,1.79h.063a3.267,3.267,0,0,1,0,6.534H79.65a1.916,1.916,0,0,1-1.86-1.916Z" transform="translate(-23.6 -73.737)" fill="#f5f5f5"/>
      <path id="Path_11508" data-name="Path 11508" d="M384.57,141.466a1.916,1.916,0,0,1,1.916-1.916,1.819,1.819,0,0,1,.55.084,4.183,4.183,0,0,1-.042-.592,4.054,4.054,0,0,1,4.054-4.054,3.823,3.823,0,0,1,.752.07,3.546,3.546,0,0,1,6.576,1.79h.063a3.267,3.267,0,1,1,0,6.534H386.43A1.916,1.916,0,0,1,384.57,141.466Z" transform="translate(-116.671 -78.77)" fill="#f5f5f5"/>
      <path id="Path_11509" data-name="Path 11509" d="M143.482,213.427a5.865,5.865,0,0,1-.181-1.2c-.146-2.487-2.522-2.09-4.542-2.431-1.574-.258,2.6-4.242-.578-5.531a2.821,2.821,0,0,1-1.54-1.066,1.811,1.811,0,0,1,.7-2.208,4.235,4.235,0,0,1,2.41-.606c.522-.627.1-1.581-.4-2.222s-1.115-1.393-.926-2.173c.286-1.2,1.964-1.24,3.177-1a8.47,8.47,0,0,0,.655-2.459c.216-.829.871-1.686,1.714-1.581s1.289,1,2.09,1.177c.906.216,1.686-.585,2.4-1.191s1.951-.975,2.445-.181c.293.474.111,1.135.418,1.6.529.808,1.783.307,2.564-.265s2.013-1.094,2.564-.3a3.365,3.365,0,0,1,.3.829c.369,1.066,1.519,1.6,2.41,2.278s1.6,2.034.843,2.863c-.369.411-1.031.578-1.212,1.1-.23.648.432,1.233.961,1.686.878.745,1.038,2.982-.125,3.595-.488.258-1.2.334-1.324.871s.383.857.7,1.226a2.313,2.313,0,0,1-.7,3.441c-.279.132-.62.244-.7.536a1.108,1.108,0,0,0,.07.648,3.42,3.42,0,0,1,.111,1.247.571.571,0,0,1-.153.39.557.557,0,0,1-.369.1c-1.679.077-2.487-.516-3.483.947a1.261,1.261,0,0,1-.348.369,1.142,1.142,0,0,1-.46.111c-1.156.1-1.909-.62-2.961-.759-1.463-.181-1.776.571-3.065,1.177C144.84,215.4,143.858,214.807,143.482,213.427Z" transform="translate(-41.414 -96.047)" fill="#ebebeb"/>
      <path id="Path_11510" data-name="Path 11510" d="M171.216,210.415a5.866,5.866,0,0,1-.181-1.2c-.146-2.48-2.522-2.09-4.535-2.424-1.581-.265,2.6-4.249-.585-5.573a2.787,2.787,0,0,1-1.533-1.066,1.818,1.818,0,0,1,.7-2.208,4.375,4.375,0,0,1,2.417-.606c.516-.627.1-1.574-.4-2.222s-1.122-1.393-.926-2.166c.286-1.2,1.964-1.247,3.17-1.01a8.267,8.267,0,0,0,.655-2.452c.216-.822.878-1.693,1.721-1.588s1.282,1,2.09,1.184c.906.209,1.693-.592,2.4-1.191s1.957-.975,2.445-.188c.293.474.118,1.135.425,1.6.529.815,1.776.307,2.557-.265s2.02-1.094,2.564-.3a3.148,3.148,0,0,1,.3.836c.369,1.059,1.519,1.588,2.41,2.271s1.6,2.034.85,2.863c-.376.411-1.031.578-1.219,1.1-.23.655.439,1.24.968,1.686.878.745,1.038,2.982-.125,3.595-.488.258-1.205.334-1.324.878s.383.85.7,1.226a2.306,2.306,0,0,1-.7,3.434c-.279.132-.62.244-.7.536a1.094,1.094,0,0,0,.063.648,3.281,3.281,0,0,1,.111,1.247.6.6,0,0,1-.146.39.634.634,0,0,1-.369.1c-1.679.077-2.487-.522-3.483.94a1.178,1.178,0,0,1-.348.369,1.079,1.079,0,0,1-.467.118c-1.149.091-1.909-.627-2.961-.759-1.463-.188-1.769.564-3.058,1.17C172.581,212.387,171.6,211.8,171.216,210.415Z" transform="translate(-49.83 -95.125)" fill="#ebebeb"/>
      <path id="Path_11511" data-name="Path 11511" d="M173.892,192.767a5.418,5.418,0,0,1-.181-1.2c-.153-2.487-2.522-2.09-4.542-2.431-1.574-.258,2.6-4.242-.585-5.531a2.828,2.828,0,0,1-1.533-1.066,1.811,1.811,0,0,1,.7-2.208,4.222,4.222,0,0,1,2.41-.606c.522-.627.1-1.581-.4-2.222s-1.115-1.393-.926-2.173c.286-1.2,1.964-1.24,3.177-1a8.47,8.47,0,0,0,.655-2.459c.216-.829.871-1.686,1.714-1.581s1.282,1,2.09,1.177c.913.216,1.693-.585,2.4-1.191s1.957-.975,2.445-.181c.3.474.118,1.135.425,1.6.529.808,1.783.307,2.557-.265s2.02-1.094,2.564-.3a3.115,3.115,0,0,1,.307.829c.369,1.066,1.512,1.6,2.41,2.278s1.6,2.034.843,2.863c-.376.411-1.031.578-1.212,1.1-.237.648.432,1.233.961,1.686.878.745,1.038,2.982-.125,3.595-.488.258-1.205.334-1.324.871s.383.857.7,1.226a2.32,2.32,0,0,1-.7,3.441c-.279.132-.62.244-.7.536a1.052,1.052,0,0,0,.07.648,3.581,3.581,0,0,1,.111,1.247.571.571,0,0,1-.153.39.557.557,0,0,1-.369.1c-1.679.077-2.487-.516-3.483.947a1.261,1.261,0,0,1-.348.369,1.177,1.177,0,0,1-.467.111c-1.149.1-1.9-.62-2.961-.759-1.463-.181-1.769.571-3.058,1.177C175.251,194.739,174.268,194.147,173.892,192.767Z" transform="translate(-50.639 -89.779)" fill="#ebebeb"/>
      <path id="Path_11512" data-name="Path 11512" d="M192.162,201.567a5.483,5.483,0,0,1-.181-1.2c-.153-2.487-2.522-2.09-4.542-2.431-1.574-.265,2.6-4.249-.578-5.531a2.786,2.786,0,0,1-1.54-1.073,1.8,1.8,0,0,1,.7-2.2,4.221,4.221,0,0,1,2.41-.606c.522-.634.1-1.581-.4-2.222s-1.115-1.393-.926-2.173c.286-1.2,1.964-1.24,3.177-1.01a8.483,8.483,0,0,0,.655-2.452c.216-.822.871-1.686,1.714-1.581s1.282,1,2.09,1.177c.913.216,1.693-.585,2.4-1.191s1.957-.975,2.445-.181c.3.474.118,1.135.425,1.6.529.808,1.783.307,2.557-.265s2.02-1.1,2.564-.3a3.114,3.114,0,0,1,.306.829c.369,1.066,1.512,1.6,2.41,2.271s1.6,2.034.843,2.87c-.376.411-1.031.571-1.212,1.094-.237.655.432,1.24.961,1.693.878.745,1.038,2.982-.125,3.595-.488.258-1.205.334-1.324.871s.383.857.7,1.226a2.32,2.32,0,0,1-.7,3.441c-.279.132-.62.244-.7.529a1.073,1.073,0,0,0,.07.655,3.546,3.546,0,0,1,.111,1.24.551.551,0,0,1-.153.39.564.564,0,0,1-.369.1c-1.679.077-2.487-.516-3.483.94a1.281,1.281,0,0,1-.348.376,1.177,1.177,0,0,1-.467.111c-1.149.1-1.9-.627-2.961-.759-1.463-.188-1.769.571-3.058,1.177C193.521,203.532,192.539,202.947,192.162,201.567Z" transform="translate(-56.182 -92.449)" fill="#ebebeb"/>
      <path id="Path_11513" data-name="Path 11513" d="M210.624,197.507a6.019,6.019,0,0,1-.181-1.2c-.146-2.487-2.522-2.09-4.542-2.431-1.574-.265,2.605-4.249-.578-5.531a2.786,2.786,0,0,1-1.533-1.073,1.79,1.79,0,0,1,.7-2.2,4.263,4.263,0,0,1,2.417-.606c.516-.634.1-1.581-.4-2.229s-1.122-1.393-.926-2.166c.286-1.2,1.957-1.24,3.17-1.01a8.483,8.483,0,0,0,.655-2.452c.216-.822.871-1.686,1.721-1.588s1.282,1,2.09,1.184c.906.209,1.693-.592,2.4-1.191s1.958-.975,2.445-.188c.293.481.118,1.135.425,1.6.522.815,1.776.313,2.557-.265s2.013-1.094,2.564-.293a3.365,3.365,0,0,1,.3.829c.369,1.059,1.519,1.588,2.41,2.271s1.6,2.034.85,2.863c-.376.411-1.031.578-1.219,1.1-.23.655.439,1.24.961,1.686.885.752,1.038,2.988-.118,3.595-.488.258-1.205.341-1.324.878s.383.857.7,1.226a2.306,2.306,0,0,1-.7,3.434c-.279.132-.627.244-.7.536a1.094,1.094,0,0,0,.063.648,3.42,3.42,0,0,1,.111,1.247.557.557,0,0,1-.153.39.6.6,0,0,1-.362.1c-1.679.077-2.487-.522-3.483.94a1.2,1.2,0,0,1-.355.369,1.024,1.024,0,0,1-.46.118c-1.156.091-1.909-.627-2.961-.759-1.463-.188-1.769.564-3.058,1.17C211.989,199.472,211.007,198.887,210.624,197.507Z" transform="translate(-61.784 -91.217)" fill="#ebebeb"/>
      <path id="Path_11514" data-name="Path 11514" d="M211.506,219.4a4.681,4.681,0,0,1-.139-.947c-.118-1.957-1.985-1.644-3.574-1.909-1.247-.209,2.041-3.344-.46-4.361a2.208,2.208,0,0,1-1.212-.843,1.393,1.393,0,0,1,.55-1.735,3.365,3.365,0,0,1,1.9-.474c.4-.495.077-1.247-.32-1.755s-.878-1.08-.7-1.707c.23-.94,1.546-.975,2.5-.794a7.106,7.106,0,0,0,.515-1.93c.167-.648.7-1.331,1.351-1.247s1.01.78,1.623.926c.7.167,1.331-.46,1.895-.933s1.54-.773,1.923-.146c.23.369.1.892.334,1.261.418.634,1.393.244,2.013-.209s1.588-.864,2.02-.237a2.627,2.627,0,0,1,.237.655c.293.836,1.2,1.254,1.9,1.79s1.261,1.6.7,2.257c-.293.32-.808.453-.954.864s.341.975.759,1.331c.7.585.815,2.348-.1,2.828-.383.2-.947.265-1.045.7s.3.7.557.961a1.818,1.818,0,0,1-.557,2.71c-.216.1-.488.188-.571.418a.885.885,0,0,0,.056.516,2.7,2.7,0,0,1,.084.975.446.446,0,0,1-.118.313.453.453,0,0,1-.286.077c-1.324.063-1.964-.4-2.786.745a.933.933,0,0,1-.279.293.9.9,0,0,1-.362.091c-.906.07-1.5-.495-2.334-.6-1.149-.146-1.393.446-2.41.92C212.579,220.946,211.805,220.486,211.506,219.4Z" transform="translate(-62.499 -99.351)" fill="#ebebeb"/>
      <path id="Path_11515" data-name="Path 11515" d="M221.212,210.415a5.865,5.865,0,0,1-.181-1.2c-.146-2.48-2.522-2.09-4.542-2.424-1.574-.265,2.6-4.249-.578-5.573a2.821,2.821,0,0,1-1.54-1.066,1.811,1.811,0,0,1,.7-2.208,4.368,4.368,0,0,1,2.41-.606c.522-.627.1-1.574-.4-2.222s-1.115-1.393-.926-2.166c.293-1.2,1.964-1.247,3.177-1.01a8.484,8.484,0,0,0,.655-2.452c.216-.822.871-1.693,1.714-1.588s1.289,1,2.09,1.184c.906.209,1.693-.592,2.4-1.191s1.951-.975,2.445-.188c.293.474.118,1.135.418,1.6.529.815,1.783.307,2.564-.265s2.013-1.094,2.564-.3a3.413,3.413,0,0,1,.3.836c.369,1.059,1.519,1.588,2.41,2.271s1.6,2.034.843,2.863c-.369.411-1.024.578-1.212,1.1-.23.655.432,1.24.961,1.686.878.745,1.038,2.982-.125,3.595-.488.258-1.2.334-1.317.878s.376.85.7,1.226a2.3,2.3,0,0,1-.7,3.434c-.279.132-.62.244-.7.536a1.1,1.1,0,0,0,.07.648,3.42,3.42,0,0,1,.111,1.247.571.571,0,0,1-.153.39.606.606,0,0,1-.369.1c-1.679.077-2.487-.522-3.483.94a1.177,1.177,0,0,1-.348.369,1.045,1.045,0,0,1-.46.118c-1.156.091-1.909-.627-2.961-.759-1.463-.188-1.776.564-3.065,1.17C222.57,212.387,221.588,211.8,221.212,210.415Z" transform="translate(-64.995 -95.125)" fill="#ebebeb"/>
      <path id="Path_11516" data-name="Path 11516" d="M192.162,179.824a5.419,5.419,0,0,1-.181-1.2c-.153-2.487-2.522-2.09-4.542-2.424-1.574-.265,2.6-4.249-.578-5.573a2.821,2.821,0,0,1-1.54-1.066,1.811,1.811,0,0,1,.7-2.208,4.277,4.277,0,0,1,2.41-.606c.522-.627.1-1.574-.4-2.222s-1.115-1.393-.926-2.166c.286-1.205,1.964-1.247,3.177-1.01a8.47,8.47,0,0,0,.655-2.459c.216-.829.871-1.686,1.714-1.581s1.282,1,2.09,1.177c.913.216,1.693-.585,2.4-1.184s1.958-.982,2.445-.188c.3.474.118,1.135.425,1.6.529.808,1.783.307,2.557-.265s2.02-1.094,2.564-.3a3.079,3.079,0,0,1,.307.836c.369,1.059,1.512,1.588,2.41,2.271s1.6,2.034.843,2.863c-.376.411-1.031.578-1.212,1.1-.237.655.432,1.24.961,1.686.878.745,1.038,2.982-.125,3.595-.488.258-1.205.334-1.324.878s.383.85.7,1.226a2.313,2.313,0,0,1-.7,3.434c-.279.132-.62.244-.7.536a1.052,1.052,0,0,0,.07.648,3.581,3.581,0,0,1,.111,1.247.571.571,0,0,1-.153.39.606.606,0,0,1-.369.1c-1.679.07-2.487-.522-3.483.94a1.177,1.177,0,0,1-.348.369.982.982,0,0,1-.467.111c-1.149.1-1.9-.62-2.961-.752-1.463-.188-1.769.564-3.058,1.17C193.52,181.8,192.538,181.2,192.162,179.824Z" transform="translate(-56.182 -85.843)" fill="#ebebeb"/>
      <path id="Path_11517" data-name="Path 11517" d="M168.435,181.057a6.568,6.568,0,0,1-.181-1.2c-.146-2.487-2.515-2.09-4.535-2.431-1.581-.265,2.6-4.249-.585-5.531a2.787,2.787,0,0,1-1.533-1.073,1.8,1.8,0,0,1,.7-2.2,4.221,4.221,0,0,1,2.41-.606c.522-.634.1-1.581-.4-2.229s-1.115-1.393-.926-2.166c.286-1.2,1.964-1.24,3.177-1.01a8.711,8.711,0,0,0,.655-2.452c.223-.822.871-1.686,1.714-1.588s1.282,1,2.09,1.184c.906.209,1.693-.592,2.4-1.191s1.957-.975,2.445-.188c.293.481.118,1.135.425,1.6.529.815,1.783.313,2.557-.265s2.02-1.094,2.564-.293a3.379,3.379,0,0,1,.307.829c.362,1.059,1.512,1.588,2.41,2.271s1.6,2.034.843,2.863c-.376.411-1.031.578-1.212,1.1-.237.655.432,1.24.961,1.686.878.752,1.038,2.988-.125,3.595-.488.258-1.205.341-1.324.878s.383.857.7,1.226a2.306,2.306,0,0,1-.7,3.434c-.279.132-.62.244-.7.536a1.094,1.094,0,0,0,.063.648,3.427,3.427,0,0,1,.118,1.247.592.592,0,0,1-.153.39.606.606,0,0,1-.369.1c-1.679.077-2.487-.522-3.483.94a1.178,1.178,0,0,1-.348.369,1.079,1.079,0,0,1-.467.118c-1.149.091-1.9-.627-2.961-.759-1.463-.188-1.769.564-3.058,1.17C169.8,183.057,168.8,182.437,168.435,181.057Z" transform="translate(-48.986 -86.227)" fill="#ebebeb"/>
      <path id="Path_11518" data-name="Path 11518" d="M154.032,190.759a5.418,5.418,0,0,1-.181-1.2c-.153-2.48-2.522-2.09-4.542-2.424-1.574-.265,2.6-4.249-.578-5.538a2.821,2.821,0,0,1-1.54-1.066,1.811,1.811,0,0,1,.7-2.208,4.277,4.277,0,0,1,2.41-.606c.522-.627.1-1.574-.4-2.222s-1.115-1.393-.926-2.166c.286-1.205,1.964-1.247,3.177-1.01a8.483,8.483,0,0,0,.655-2.452c.216-.822.871-1.693,1.714-1.588s1.282,1,2.09,1.177c.913.216,1.693-.585,2.4-1.184s1.957-.982,2.445-.188c.3.474.118,1.135.425,1.6.529.808,1.783.307,2.557-.265s2.02-1.094,2.571-.3a3.316,3.316,0,0,1,.3.836c.369,1.059,1.512,1.588,2.41,2.271s1.6,2.034.843,2.863c-.369.411-1.031.578-1.212,1.1-.237.655.432,1.24.961,1.686.878.745,1.038,2.982-.125,3.595-.488.258-1.2.334-1.324.878s.383.85.7,1.226a2.313,2.313,0,0,1-.7,3.434c-.279.132-.62.244-.7.536a1.052,1.052,0,0,0,.07.648,3.581,3.581,0,0,1,.111,1.247.571.571,0,0,1-.153.39.606.606,0,0,1-.369.1c-1.679.07-2.487-.522-3.483.94a1.177,1.177,0,0,1-.348.369,1.08,1.08,0,0,1-.467.118c-1.149.091-1.9-.627-2.961-.759-1.456-.188-1.769.564-3.058,1.17C155.377,192.731,154.408,192.145,154.032,190.759Z" transform="translate(-44.614 -89.171)" fill="#ebebeb"/>
      <path id="Path_11519" data-name="Path 11519" d="M161.427,206.7s4.18,5.935,5.65,7.816,8.68,13.612,9.669,21.372c.1.829.209,1.54.307,2.16-3.114,20.55-2.619,58.14-2.515,64.577H184.4c.091-7.259.926-73.6,1.24-75.625.327-2.139,4.451-10.3,10.818-13.654S208.3,198.89,208.3,198.89h-2.027s-3.762,6.806-9.119,10.568a20.282,20.282,0,0,1-2.41,1.393,34.281,34.281,0,0,0-2.132-12l-1.094,1.017c1.477,6.054,1.282,9.941.836,12.17a21.964,21.964,0,0,0-5.573,3.706c-5.455-7.2-8.617-23.748-8.617-23.748l-1.393.78a83.229,83.229,0,0,0,1.839,10.129,168.126,168.126,0,0,0,5.524,15.98,38.133,38.133,0,0,0-4.2,7.941,3.2,3.2,0,0,0-.536-.641c-3.622-3.274-10.449-18.732-10.449-18.732-1.644-3.595.871-13.027.871-13.027h-1.9l-.85,8.248-4.779-5.211-.871.7,5.071,6.513,2.612,8.22-6.806-7.53Z" transform="translate(-48.972 -96.563)" fill="#e6e6e6"/>
      <path id="Path_11520" data-name="Path 11520" d="M398.378,247.55a4.473,4.473,0,0,0,.139-.92c.118-1.909,1.937-1.609,3.483-1.867,1.212-.2-1.992-3.26.446-4.242a2.159,2.159,0,0,0,1.177-.822,1.393,1.393,0,0,0-.529-1.693,3.274,3.274,0,0,0-1.853-.467c-.4-.481-.07-1.212.314-1.707s.857-1.052.7-1.665c-.223-.92-1.5-.954-2.438-.773a6.751,6.751,0,0,1-.5-1.881c-.167-.634-.7-1.3-1.317-1.219s-.982.766-1.581.906-1.3-.446-1.846-.913-1.5-.745-1.874-.139c-.23.362-.091.871-.327,1.226-.4.627-1.393.237-1.964-.2s-1.546-.836-1.964-.23a2.271,2.271,0,0,0-.23.641c-.286.815-1.163,1.219-1.853,1.742s-1.226,1.56-.648,2.2c.286.313.794.439.933.843s-.334.947-.738,1.3c-.7.571-.794,2.285.1,2.786.369.2.92.258,1.01.7s-.293.655-.536.94a1.769,1.769,0,0,0,.536,2.64c.216.1.481.181.557.4a.9.9,0,0,1-.049.5,2.453,2.453,0,0,0-.084.954.411.411,0,0,0,.111.3.446.446,0,0,0,.286.077c1.289.063,1.909-.4,2.689.7a.969.969,0,0,0,.272.286.864.864,0,0,0,.355.091c.885.07,1.463-.481,2.271-.585,1.122-.139,1.358.439,2.348.9C397.333,249.055,398.093,248.609,398.378,247.55Z" transform="translate(-116.91 -108.032)" fill="#ebebeb"/>
      <path id="Path_11521" data-name="Path 11521" d="M377.1,245.27a4.477,4.477,0,0,0,.139-.92c.118-1.909,1.937-1.609,3.483-1.867,1.212-.2-1.992-3.26.446-4.242a2.159,2.159,0,0,0,1.177-.822,1.393,1.393,0,0,0-.529-1.693,3.274,3.274,0,0,0-1.853-.467c-.4-.481-.077-1.212.313-1.707s.857-1.052.7-1.665c-.223-.92-1.5-.954-2.438-.773a6.748,6.748,0,0,1-.5-1.881c-.167-.634-.7-1.3-1.317-1.219s-.982.766-1.581.906-1.3-.446-1.846-.913-1.5-.745-1.874-.139c-.23.362-.091.871-.327,1.233-.4.62-1.393.23-1.964-.209s-1.547-.836-1.964-.23a2.272,2.272,0,0,0-.23.641c-.286.815-1.163,1.219-1.853,1.742s-1.226,1.56-.648,2.2c.286.313.794.439.933.843s-.334.947-.738,1.3c-.7.571-.794,2.285.091,2.786.376.2.927.258,1.017.7s-.293.655-.543.94a1.776,1.776,0,0,0,.543,2.64c.216.1.481.181.557.4a.9.9,0,0,1-.049.5,2.592,2.592,0,0,0-.091.954.446.446,0,0,0,.118.3.494.494,0,0,0,.286.084c1.289.056,1.909-.4,2.689.7a.892.892,0,0,0,.272.286.864.864,0,0,0,.355.091c.885.07,1.463-.481,2.271-.585,1.122-.139,1.358.439,2.348.9C376.053,246.761,376.805,246.315,377.1,245.27Z" transform="translate(-110.453 -107.34)" fill="#ebebeb"/>
      <path id="Path_11522" data-name="Path 11522" d="M375.047,231.693a4.333,4.333,0,0,0,.139-.92c.118-1.9,1.937-1.6,3.483-1.86,1.212-.2-1.992-3.26.446-4.249a2.146,2.146,0,0,0,1.177-.815,1.393,1.393,0,0,0-.529-1.693,3.274,3.274,0,0,0-1.853-.467c-.4-.481-.077-1.212.313-1.707s.857-1.052.7-1.665c-.223-.92-1.5-.954-2.438-.773a6.821,6.821,0,0,1-.5-1.881c-.167-.634-.7-1.3-1.317-1.219s-.982.766-1.581.906-1.3-.453-1.846-.913-1.5-.752-1.874-.139c-.23.362-.091.871-.327,1.226-.4.62-1.393.237-1.964-.2s-1.546-.843-1.964-.23a2.273,2.273,0,0,0-.23.641c-.286.815-1.163,1.219-1.853,1.742s-1.226,1.56-.648,2.2c.286.313.787.439.933.843s-.334.947-.738,1.289c-.7.578-.8,2.292.091,2.786.376.2.926.258,1.017.7s-.293.655-.543.94a1.769,1.769,0,0,0,.543,2.633c.216.1.481.188.557.411a.9.9,0,0,1-.049.5,2.592,2.592,0,0,0-.091.926.341.341,0,0,0,.4.376c1.282.063,1.909-.4,2.689.7a1.059,1.059,0,0,0,.272.286.766.766,0,0,0,.355.084c.885.077,1.463-.474,2.271-.578,1.122-.146,1.358.432,2.348.9C374,233.2,374.754,232.752,375.047,231.693Z" transform="translate(-109.83 -103.223)" fill="#ebebeb"/>
      <path id="Path_11523" data-name="Path 11523" d="M361.035,238.444a4.356,4.356,0,0,0,.132-.92c.118-1.9,1.937-1.6,3.483-1.86,1.212-.2-1.992-3.26.446-4.249a2.146,2.146,0,0,0,1.177-.815,1.393,1.393,0,0,0-.529-1.693,3.274,3.274,0,0,0-1.853-.467c-.4-.481-.07-1.212.313-1.707s.857-1.052.7-1.665c-.223-.92-1.5-.954-2.438-.773a6.821,6.821,0,0,1-.5-1.881c-.167-.634-.7-1.3-1.317-1.219s-.982.766-1.581.906-1.3-.453-1.846-.913-1.5-.745-1.874-.139c-.23.362-.091.871-.327,1.226-.4.62-1.393.237-1.964-.2s-1.547-.843-1.964-.23a2.507,2.507,0,0,0-.23.641c-.286.815-1.163,1.219-1.853,1.742s-1.226,1.56-.648,2.2c.286.313.794.439.933.843s-.334.947-.738,1.289c-.7.578-.794,2.292.1,2.786.369.2.92.258,1.01.7s-.293.655-.536.94a1.762,1.762,0,0,0,.536,2.633c.216.1.481.188.557.411a.836.836,0,0,1-.049.5,2.452,2.452,0,0,0-.084.954.411.411,0,0,0,.111.3.453.453,0,0,0,.286.077c1.289.063,1.909-.4,2.7.7a.94.94,0,0,0,.265.286.864.864,0,0,0,.355.091c.885.07,1.463-.481,2.271-.585,1.122-.146,1.358.432,2.348.9C359.983,239.956,360.743,239.5,361.035,238.444Z" transform="translate(-105.578 -105.272)" fill="#ebebeb"/>
      <path id="Path_11524" data-name="Path 11524" d="M346.865,235.33a5.008,5.008,0,0,0,.139-.92c.111-1.909,1.93-1.609,3.483-1.867,1.205-.2-2-3.26.446-4.242a2.188,2.188,0,0,0,1.177-.822,1.393,1.393,0,0,0-.536-1.693,3.26,3.26,0,0,0-1.853-.467c-.4-.481-.07-1.212.313-1.707s.857-1.052.7-1.665c-.216-.92-1.5-.947-2.431-.773a6.528,6.528,0,0,1-.509-1.881c-.167-.634-.7-1.3-1.317-1.219s-.982.766-1.581.906-1.3-.446-1.846-.913-1.5-.745-1.874-.139c-.223.362-.091.871-.327,1.233-.4.62-1.393.23-1.957-.209s-1.547-.836-1.971-.23a2.787,2.787,0,0,0-.23.641c-.279.815-1.163,1.219-1.846,1.742s-1.233,1.56-.655,2.2c.293.313.794.439.933.843s-.334.947-.738,1.3c-.7.571-.794,2.285.1,2.786.376.2.92.258,1.017.7s-.293.655-.543.94a1.776,1.776,0,0,0,.543,2.64c.209.1.474.181.55.4a.781.781,0,0,1-.049.5,2.592,2.592,0,0,0-.084.954.418.418,0,0,0,.118.3.474.474,0,0,0,.279.084c1.289.056,1.909-.4,2.7.7a.871.871,0,0,0,.265.286.927.927,0,0,0,.355.091c.885.07,1.463-.481,2.271-.585,1.122-.139,1.393.439,2.348.9C345.792,236.835,346.573,236.389,346.865,235.33Z" transform="translate(-101.279 -104.324)" fill="#ebebeb"/>
      <path id="Path_11525" data-name="Path 11525" d="M347.891,252.141a3.108,3.108,0,0,0,.111-.7c.091-1.5,1.526-1.261,2.745-1.463.947-.16-1.574-2.571.348-3.344a1.686,1.686,0,0,0,.927-.648,1.087,1.087,0,0,0-.418-1.331,2.571,2.571,0,0,0-1.456-.369c-.313-.383-.063-.954.244-1.344s.7-.829.557-1.31c-.174-.7-1.184-.752-1.916-.606a5.31,5.31,0,0,1-.4-1.484c-.132-.5-.529-1.024-1.038-.961s-.773.606-1.247.7-1.024-.355-1.449-.7-1.184-.592-1.477-.111c-.181.286-.07.7-.258.961-.32.495-1.073.188-1.547-.16s-1.219-.662-1.547-.174a1.722,1.722,0,0,0-.181.5c-.223.641-.919.961-1.456,1.393s-.968,1.226-.516,1.728c.23.251.627.348.738.7s-.265.745-.585,1.017c-.529.453-.627,1.8.077,2.173.293.153.7.2.8.522s-.23.522-.432.745a1.393,1.393,0,0,0,.432,2.09c.167.077.376.146.439.32a.7.7,0,0,1-.042.4,2.09,2.09,0,0,0-.07.752.341.341,0,0,0,.091.23.321.321,0,0,0,.223.063c1.017.049,1.5-.314,2.125.571a.641.641,0,0,0,.209.223.634.634,0,0,0,.279.07c.7.056,1.156-.376,1.79-.46.885-.111,1.073.348,1.846.7C347.069,253.333,347.647,252.977,347.891,252.141Z" transform="translate(-102.437 -110.582)" fill="#ebebeb"/>
      <path id="Path_11526" data-name="Path 11526" d="M338.738,245.27a4.475,4.475,0,0,0,.139-.92c.118-1.909,1.937-1.609,3.483-1.867,1.212-.2-1.992-3.26.446-4.242a2.159,2.159,0,0,0,1.177-.822,1.393,1.393,0,0,0-.529-1.693,3.274,3.274,0,0,0-1.853-.467c-.4-.481-.077-1.212.313-1.707s.857-1.052.7-1.665c-.223-.92-1.5-.954-2.438-.773a6.75,6.75,0,0,1-.5-1.881c-.167-.634-.7-1.3-1.317-1.219s-.982.766-1.581.906-1.3-.446-1.846-.913-1.5-.745-1.874-.139c-.23.362-.091.871-.327,1.233-.4.62-1.393.23-1.964-.209s-1.547-.836-1.964-.23a2.271,2.271,0,0,0-.23.641c-.286.815-1.163,1.219-1.853,1.742s-1.226,1.56-.648,2.2c.286.313.794.439.933.843s-.334.947-.738,1.3c-.7.571-.794,2.285.091,2.786.376.2.927.258,1.017.7s-.293.655-.543.94a1.776,1.776,0,0,0,.543,2.64c.216.1.481.181.557.4a.9.9,0,0,1-.049.5,2.451,2.451,0,0,0-.084.954.411.411,0,0,0,.111.3.5.5,0,0,0,.286.084c1.289.056,1.909-.4,2.689.7a.892.892,0,0,0,.272.286.864.864,0,0,0,.355.091c.885.07,1.463-.481,2.271-.585,1.122-.139,1.358.439,2.348.9C337.693,246.761,338.452,246.315,338.738,245.27Z" transform="translate(-98.816 -107.34)" fill="#ebebeb"/>
      <path id="Path_11527" data-name="Path 11527" d="M361.035,221.774a4.356,4.356,0,0,0,.132-.92c.118-1.9,1.937-1.6,3.483-1.86,1.212-.2-1.992-3.26.446-4.249a2.146,2.146,0,0,0,1.177-.815,1.393,1.393,0,0,0-.529-1.693,3.274,3.274,0,0,0-1.853-.467c-.4-.481-.07-1.212.313-1.707s.857-1.052.7-1.665c-.223-.92-1.5-.954-2.438-.773a6.821,6.821,0,0,1-.5-1.881c-.167-.634-.7-1.3-1.317-1.219s-.982.766-1.581.906-1.3-.453-1.846-.913-1.5-.745-1.874-.139c-.23.362-.091.871-.327,1.226-.4.62-1.393.237-1.964-.2s-1.547-.843-1.964-.23a2.507,2.507,0,0,0-.23.641c-.286.815-1.163,1.219-1.853,1.742s-1.226,1.56-.648,2.2c.286.313.794.439.933.843s-.334.947-.738,1.289c-.7.578-.794,2.292.1,2.786.369.2.92.258,1.01.7s-.293.655-.536.94a1.762,1.762,0,0,0,.536,2.633c.216.1.481.188.557.411a.836.836,0,0,1-.049.5,2.452,2.452,0,0,0-.084.954.411.411,0,0,0,.111.3.453.453,0,0,0,.286.077c1.289.063,1.909-.4,2.7.7a.941.941,0,0,0,.265.286.864.864,0,0,0,.355.091c.885.07,1.463-.481,2.271-.585,1.122-.146,1.358.432,2.348.9C359.983,223.286,360.743,222.819,361.035,221.774Z" transform="translate(-105.578 -100.214)" fill="#ebebeb"/>
      <path id="Path_11528" data-name="Path 11528" d="M379.238,222.7a4.828,4.828,0,0,0,.139-.92c.111-1.9,1.93-1.6,3.483-1.86,1.212-.2-1.992-3.26.446-4.249a2.167,2.167,0,0,0,1.184-.815,1.393,1.393,0,0,0-.536-1.693,3.274,3.274,0,0,0-1.853-.467c-.4-.481-.07-1.212.313-1.707s.857-1.052.7-1.665c-.223-.92-1.5-.954-2.438-.773a6.821,6.821,0,0,1-.5-1.881c-.167-.634-.7-1.3-1.317-1.219s-.982.766-1.581.906-1.3-.453-1.846-.913-1.5-.745-1.874-.139c-.223.362-.091.871-.327,1.226-.4.627-1.393.237-1.964-.2s-1.546-.843-1.964-.23a2.787,2.787,0,0,0-.23.641c-.286.815-1.163,1.219-1.853,1.742s-1.226,1.56-.648,2.2c.286.313.794.439.933.843s-.334.947-.738,1.3c-.7.571-.794,2.285.1,2.786.369.2.92.251,1.01.7s-.293.655-.536.94a1.769,1.769,0,0,0,.536,2.633c.216.1.481.188.557.411a.836.836,0,0,1-.049.5,2.452,2.452,0,0,0-.084.954.411.411,0,0,0,.112.3.453.453,0,0,0,.286.077c1.289.063,1.909-.4,2.7.7a.94.94,0,0,0,.265.286.863.863,0,0,0,.355.091c.885.07,1.463-.481,2.271-.585,1.122-.146,1.358.439,2.348.9C378.186,224.216,378.946,223.8,379.238,222.7Z" transform="translate(-111.103 -100.496)" fill="#ebebeb"/>
      <path id="Path_11529" data-name="Path 11529" d="M390.327,230.153a4.329,4.329,0,0,0,.139-.92c.111-1.9,1.937-1.6,3.483-1.86,1.212-.2-1.992-3.26.446-4.249a2.146,2.146,0,0,0,1.177-.815,1.393,1.393,0,0,0-.529-1.693,3.274,3.274,0,0,0-1.853-.467c-.4-.481-.077-1.212.307-1.707s.857-1.059.7-1.665c-.216-.92-1.5-.954-2.431-.773a6.818,6.818,0,0,1-.5-1.881c-.167-.634-.7-1.3-1.317-1.219s-.989.766-1.588.906-1.3-.453-1.839-.913-1.5-.752-1.881-.139c-.223.362-.091.871-.32,1.226-.4.62-1.393.237-1.964-.2s-1.547-.843-1.964-.23a2.521,2.521,0,0,0-.237.641c-.279.815-1.163,1.219-1.846,1.742s-1.233,1.56-.648,2.2c.286.313.787.439.933.843s-.334.947-.738,1.289c-.7.578-.8,2.292.091,2.786.376.2.926.258,1.017.7s-.293.655-.543.94a1.769,1.769,0,0,0,.543,2.633c.216.1.474.188.557.411a.843.843,0,0,1-.056.5,2.745,2.745,0,0,0-.084.954.46.46,0,0,0,.118.3.432.432,0,0,0,.279.077c1.289.056,1.909-.4,2.7.7a.962.962,0,0,0,.272.286.766.766,0,0,0,.355.084c.885.077,1.463-.474,2.271-.578,1.122-.146,1.358.432,2.348.9C389.254,231.665,390.006,231.212,390.327,230.153Z" transform="translate(-114.466 -102.755)" fill="#ebebeb"/>
      <path id="Path_11530" data-name="Path 11530" d="M376.952,242.4s-3.218,4.549-4.333,6-6.66,10.449-7.419,16.384c-.077.634-.16,1.184-.237,1.665,2.389,15.764,2.013,44.584,1.93,49.543h-7.565c-.07-5.573-.7-56.468-.954-58.021s-3.441-7.907-8.318-10.484S341,236.4,341,236.4h1.56s2.884,5.218,6.966,8.109a16.056,16.056,0,0,0,1.846,1.094,26.228,26.228,0,0,1,1.637-9.2l.843.773c-1.135,4.653-.989,7.628-.641,9.342a16.788,16.788,0,0,1,4.242,2.842c4.263-5.573,6.66-18.217,6.66-18.217l1.094.592a64.972,64.972,0,0,1-1.393,7.774,129.4,129.4,0,0,1-4.242,12.26,29.041,29.041,0,0,1,3.218,6.047,2.542,2.542,0,0,1,.411-.495c2.786-2.508,8-14.371,8-14.371,1.261-2.786-.7-9.99-.7-9.99h1.456l.655,6.325,3.664-4,.7.557-3.929,4.995-2,6.332,5.218-5.775Z" transform="translate(-103.453 -108.438)" fill="#e6e6e6"/>
      <rect id="Rectangle_2655" data-name="Rectangle 2655" width="4.814" height="155.109" transform="translate(86.207 218.871) rotate(180)" fill="#e6e6e6"/>
      <path id="Path_11531" data-name="Path 11531" d="M61,368.048v9.014H314.944v-9.014a2.682,2.682,0,0,0-2.661-2.828H63.631A2.682,2.682,0,0,0,61,368.048Z" transform="translate(-18.505 -149.115)" fill="#e0e0e0"/>
      <rect id="Rectangle_2656" data-name="Rectangle 2656" width="15.792" height="11.843" transform="translate(266.171 216.105)" fill="#f5f5f5"/>
      <rect id="Rectangle_2657" data-name="Rectangle 2657" width="15.131" height="11.843" transform="translate(236.565 216.105)" fill="#f5f5f5"/>
      <rect id="Rectangle_2658" data-name="Rectangle 2658" width="15.792" height="11.843" transform="translate(206.297 216.105)" fill="#f5f5f5"/>
      <rect id="Rectangle_2659" data-name="Rectangle 2659" width="15.131" height="11.843" transform="translate(176.69 216.105)" fill="#f5f5f5"/>
      <rect id="Rectangle_2660" data-name="Rectangle 2660" width="15.131" height="11.843" transform="translate(147.084 216.105)" fill="#f5f5f5"/>
      <rect id="Rectangle_2661" data-name="Rectangle 2661" width="15.792" height="11.843" transform="translate(116.816 216.105)" fill="#f5f5f5"/>
      <rect id="Rectangle_2662" data-name="Rectangle 2662" width="15.131" height="11.843" transform="translate(87.21 216.105)" fill="#f5f5f5"/>
      <rect id="Rectangle_2663" data-name="Rectangle 2663" width="15.792" height="11.843" transform="translate(56.949 216.105)" fill="#f5f5f5"/>
      <circle id="Ellipse_554" data-name="Ellipse 554" cx="15.716" cy="15.716" r="15.716" transform="translate(68.087 56.454)" fill="#e0e0e0"/>
      <circle id="Ellipse_555" data-name="Ellipse 555" cx="12.86" cy="12.86" r="12.86" transform="translate(70.944 59.31)" fill="#ebebeb"/>
      <path id="Path_11532" data-name="Path 11532" d="M110.68,160.928l1.289-2.863a9.655,9.655,0,0,0,5.42,1.714c2.25,0,3.17-.752,3.17-1.762,0-3.072-9.551-.961-9.551-7.064,0-2.786,2.25-5.113,6.917-5.113a11.027,11.027,0,0,1,5.705,1.456l-1.177,2.884a9.307,9.307,0,0,0-4.549-1.289c-2.25,0-3.121.843-3.121,1.874,0,3.03,9.551.94,9.551,6.966,0,2.745-2.278,5.085-6.966,5.085A11.691,11.691,0,0,1,110.68,160.928Z" transform="translate(-33.578 -82.558)" fill="#e0e0e0"/>
    </g>
    <g id="freepik--Shadow--inject-36" transform="translate(39.087 298.761)">
      <ellipse id="freepik--path--inject-36" cx="135.067" cy="7.886" rx="135.067" ry="7.886" fill="#f5f5f5"/>
    </g>
    <g id="freepik--Device--inject-36" transform="translate(178.355 89.74)">
      <rect id="Rectangle_2664" data-name="Rectangle 2664" width="120.933" height="217.519" rx="10.4" fill="#263238"/>
      <path id="Path_11533" data-name="Path 11533" d="M374.655,114.147V316.7a2.961,2.961,0,0,1-3,2.961H264.568a2.654,2.654,0,0,1-2.689-2.717V113.917a2.4,2.4,0,0,1,2.306-2.487h26.771a1.881,1.881,0,0,1,1.721,1.205l1.108,2.731a1.888,1.888,0,0,0,1.728,1.191h45.573a1.867,1.867,0,0,0,1.728-1.17l1.108-2.745a1.888,1.888,0,0,1,1.721-1.212h26.388A2.7,2.7,0,0,1,374.655,114.147Z" transform="translate(-257.804 -106.86)" fill="#931e27"/>
      <rect id="Rectangle_2665" data-name="Rectangle 2665" width="112.776" height="184.2" transform="translate(4.075 17.213)" fill="#fff" opacity="0.3" style="isolation: isolate"/>
      <rect id="Rectangle_2666" data-name="Rectangle 2666" width="1.393" height="1.86" transform="translate(17.903 12.72) rotate(180)" fill="#fff" opacity="0.6" style="isolation: isolate"/>
      <rect id="Rectangle_2667" data-name="Rectangle 2667" width="1.393" height="2.48" transform="translate(15.625 12.72) rotate(180)" fill="#fff" opacity="0.6" style="isolation: isolate"/>
      <rect id="Rectangle_2668" data-name="Rectangle 2668" width="1.393" height="3.093" transform="translate(13.354 12.72) rotate(180)" fill="#fff" opacity="0.6" style="isolation: isolate"/>
      <rect id="Rectangle_2669" data-name="Rectangle 2669" width="1.393" height="3.713" transform="translate(11.09 12.713) rotate(180)" fill="#fff" opacity="0.6" style="isolation: isolate"/>
      <rect id="Rectangle_2670" data-name="Rectangle 2670" width="0.829" height="1.86" transform="translate(103.26 10.185)" fill="#fff" opacity="0.6" style="isolation: isolate"/>
      <rect id="Rectangle_2671" data-name="Rectangle 2671" width="6.576" height="3.211" transform="translate(111.236 12.72) rotate(180)" fill="#fff" opacity="0.6" style="isolation: isolate"/>
      <rect id="Rectangle_2672" data-name="Rectangle 2672" width="109.613" height="60.362" rx="4.37" transform="translate(5.657 34.281)" fill="#fff" opacity="0.4" style="isolation: isolate"/>
      <rect id="Rectangle_2673" data-name="Rectangle 2673" width="59.247" height="57.192" rx="3.64" transform="translate(30.839 35.869)" fill="#fff"/>
      <path id="Path_11534" data-name="Path 11534" d="M284.159,197.954a3.824,3.824,0,1,1-3.824-3.824,3.824,3.824,0,0,1,3.824,3.824Z" transform="translate(-262.243 -131.95)" fill="#263238"/>
      <path id="Path_11535" data-name="Path 11535" d="M283.284,198.622A2.292,2.292,0,1,1,281,196.33a2.292,2.292,0,0,1,2.285,2.292Z" transform="translate(-262.908 -132.617)" opacity="0.2" style="isolation: isolate"/>
      <path id="Path_11536" data-name="Path 11536" d="M268.79,190.357l1-1.47s3.783.46,5.434-1.108h4.862l.23.188-5.468,4.235-5.023-.7Z" transform="translate(-259.901 -130.023)" fill="#263238"/>
      <path id="Path_11537" data-name="Path 11537" d="M282,191.9h1.825l2.8,4.41h.641l-2.02-4.41V190.29h-1.7Z" transform="translate(-263.909 -130.785)" fill="#263238"/>
      <path id="Path_11538" data-name="Path 11538" d="M264.15,185.41l.1.334-.1.446Z" transform="translate(-258.493 -129.304)" fill="#263238"/>
      <path id="Path_11539" data-name="Path 11539" d="M265.073,181.264l-.418.759.655.313.174.474-.209.244.7.529a.348.348,0,0,1-.237.474l-.9-.474h-.7v-1.63h.307l.376-.829s-.307-.752,1-1.275l.307.244v.655l-.411.376Z" transform="translate(-258.49 -127.618)" fill="#263238"/>
      <path id="Path_11540" data-name="Path 11540" d="M264.631,187.117l-.481.683V186.65Z" transform="translate(-258.493 -129.681)" fill="#931e27"/>
      <path id="Path_11541" data-name="Path 11541" d="M281.21,188.485l-1.24,1.832-.139-.111-.362-.3-2.348,1.24-.209.1-4.751,2.2.32.4h2.48l.279.439-.8,1.052-1.5,1.971-.592.78h-8.2v-6.674a4.242,4.242,0,0,0,1.923.927.216.216,0,0,0,.118,0,.634.634,0,0,0,.132-.091h.035a.549.549,0,0,0,.084-.1.283.283,0,0,0,.035-.063.445.445,0,0,0,.042-.125.92.92,0,0,0-.146-.613l1.01-.822h0c5.643.139,7.21-1.282,7.21-1.282l4.263-1.108h0Z" transform="translate(-258.493 -130.13)" fill="#931e27"/>
      <path id="Path_11542" data-name="Path 11542" d="M275.24,196.526l-.8,1.052-1.5,1.971-.592.78h-8.2v-.355l1.442-.244-.272-1.56,3.608-2.64,1.442.557,1.79-.4.32.4h2.48Z" transform="translate(-258.493 -132.375)" fill="#263238"/>
      <path id="Path_11543" data-name="Path 11543" d="M266.079,193.767a2.682,2.682,0,0,1-.7.258l-1.212-.606v-.578a4.243,4.243,0,0,0,1.909.927Z" transform="translate(-258.5 -131.558)" fill="#263238"/>
      <path id="Path_11544" data-name="Path 11544" d="M264.631,187.117l-.481.683V186.65Z" transform="translate(-258.493 -129.681)" opacity="0.2" style="isolation: isolate"/>
      <path id="Path_11545" data-name="Path 11545" d="M268.072,193l-2.2,2.236-1.721-.968V192.81a4.242,4.242,0,0,0,1.923.927.216.216,0,0,0,.118,0,.634.634,0,0,0,.132-.091h.035a.551.551,0,0,0,.084-.1.285.285,0,0,0,.035-.063.446.446,0,0,0,.042-.125.92.92,0,0,0-.146-.613Z" transform="translate(-258.493 -131.528)" opacity="0.2" style="isolation: isolate"/>
      <path id="Path_11546" data-name="Path 11546" d="M281.21,188.64l-1.24,1.832-.139-.111-.362-.3-2.348,1.24-.209.1-4.751,2.2.32.4h2.48l.279.439-.8,1.052-1.5,1.971-.592.78h-8.2v-4.716l1.992,1.066,2.717-1.8,2.731.348,1.442-.724,1.268-.648,3.755-1.895.16-.084,1-.509Z" transform="translate(-258.493 -130.284)" opacity="0.2" style="isolation: isolate"/>
      <path id="Path_11547" data-name="Path 11547" d="M312.51,194.495h41.344l-.829-7.405-11.912-2.55-11.069,1.93-13.333,1.31-3.309,3.79Z" transform="translate(-273.165 -129.04)" fill="#263238"/>
      <path id="Path_11548" data-name="Path 11548" d="M312.51,194.495h41.344l-.829-7.405-11.912-2.55-11.069,1.93-13.333,1.31-3.309,3.79Z" transform="translate(-273.165 -129.04)" opacity="0.2" style="isolation: isolate"/>
      <path id="Path_11549" data-name="Path 11549" d="M325.19,196.925a4.375,4.375,0,1,1-4.375-4.375,4.375,4.375,0,0,1,4.375,4.375Z" transform="translate(-274.357 -131.47)" fill="#263238"/>
      <circle id="Ellipse_556" data-name="Ellipse 556" cx="2.926" cy="2.926" r="2.926" transform="translate(43.546 62.528)" opacity="0.2" style="isolation: isolate"/>
      <path id="Path_11550" data-name="Path 11550" d="M366.19,196.925a4.375,4.375,0,1,1-4.375-4.375A4.375,4.375,0,0,1,366.19,196.925Z" transform="translate(-286.796 -131.47)" fill="#263238"/>
      <circle id="Ellipse_557" data-name="Ellipse 557" cx="2.926" cy="2.926" r="2.926" transform="translate(72.107 62.528)" opacity="0.2" style="isolation: isolate"/>
      <path id="Path_11551" data-name="Path 11551" d="M355.835,188.143l-.481,3.42-2.689.85s-.07-5.782-5.921-5.782-5.1,6.89-5.1,6.89h-1.024l-1.93-.829H326.055l-1.1.857h-.745s.62-6.89-5.413-6.89-5.266,6.89-5.266,6.89l-3.448-1.484-.341-3.483,1.442-.9.348-2.09c.153-.118.313-.23.474-.334a22.283,22.283,0,0,1,9.551-3.065c4.744-4.828,6.667-5.51,6.667-5.51a133.053,133.053,0,0,1,21.275.411l3.17,4.061.745.606.773.634a17.2,17.2,0,0,1,.341,4.277Z" transform="translate(-272.325 -126.582)" fill="#f89b0e"/>
      <path id="Path_11552" data-name="Path 11552" d="M315.631,189.171l-2.417,2.208H311.82l.348-2.09c.153-.118.314-.23.474-.334l1.755-.265Z" transform="translate(-272.956 -130.299)" fill="#fff" opacity="0.6" style="isolation: isolate"/>
      <path id="Path_11553" data-name="Path 11553" d="M373.138,188.931l-.878-.327a8.359,8.359,0,0,0-1.1-3.671l.864-.913.773.634a17.2,17.2,0,0,1,.341,4.277Z" transform="translate(-290.958 -128.883)" fill="#fff" opacity="0.6" style="isolation: isolate"/>
      <path id="Path_11554" data-name="Path 11554" d="M357.811,181.1c-5.733,1.393-31.111,1.038-31.111,1.038l.432-.432a34.429,34.429,0,0,1,5.266-4.535,5,5,0,0,1,.968-.543,133.054,133.054,0,0,1,21.275.411Z" transform="translate(-277.47 -126.564)" fill="#263238"/>
      <path id="Path_11555" data-name="Path 11555" d="M333.771,177.5l-4.138,4.521H327.32a34.428,34.428,0,0,1,5.266-4.535Z" transform="translate(-277.658 -126.902)" fill="#fff" opacity="0.6" style="isolation: isolate"/>
      <path id="Path_11556" data-name="Path 11556" d="M332.32,182.042l3.65-4.542h5.448L341,182.042Z" transform="translate(-279.175 -126.905)" fill="#fff" opacity="0.6" style="isolation: isolate"/>
      <path id="Path_11557" data-name="Path 11557" d="M346.66,182.025l.481-4.535h7.51l1.31,4.11S351.418,182.025,346.66,182.025Z" transform="translate(-283.525 -126.902)" fill="#fff" opacity="0.6" style="isolation: isolate"/>
      <path id="Path_11558" data-name="Path 11558" d="M359.4,177.51l1.393,4a40.387,40.387,0,0,0,5.03-.55L364,178.464a1.958,1.958,0,0,0-1.351-.7A24.136,24.136,0,0,0,359.4,177.51Z" transform="translate(-287.391 -126.908)" fill="#fff" opacity="0.6" style="isolation: isolate"/>
      <path id="Path_11559" data-name="Path 11559" d="M355.835,191.845l-.481,3.42-2.689.85s-.07-5.782-5.921-5.782-5.1,6.89-5.1,6.89h-1.024l-1.93-.829H326.055l-1.1.857h-.745s.62-6.89-5.413-6.89-5.266,6.89-5.266,6.89l-3.448-1.484-.341-3.483h2.842a7.941,7.941,0,0,1,6.618-3.379,6.383,6.383,0,0,1,6.012,3.379H339.8s2.48-3.427,6.13-3.608a9.753,9.753,0,0,1,5.789,1.331h1.916l.878.327Z" transform="translate(-272.325 -130.285)" opacity="0.2" style="isolation: isolate"/>
      <path id="Path_11560" data-name="Path 11560" d="M415.281,187.67v9.349H401s.947-3.2,1.686-5.371a8.652,8.652,0,0,1,.794-1.978C405.382,188.638,409.812,188.018,415.281,187.67Z" transform="translate(-300.011 -129.99)" fill="#263238"/>
      <path id="Path_11561" data-name="Path 11561" d="M415.281,187.67v9.349H401s.947-3.2,1.686-5.371a8.652,8.652,0,0,1,.794-1.978C405.382,188.638,409.812,188.018,415.281,187.67Z" transform="translate(-300.011 -129.99)" opacity="0.2" style="isolation: isolate"/>
      <circle id="Ellipse_558" data-name="Ellipse 558" cx="4.166" cy="4.166" r="4.166" transform="translate(104.764 61.491)" fill="#263238"/>
      <circle id="Ellipse_559" data-name="Ellipse 559" cx="3.685" cy="3.685" r="3.685" transform="translate(105.245 61.971)" fill="#fff" opacity="0.2" style="isolation: isolate"/>
      <path id="Path_11562" data-name="Path 11562" d="M408.437,180.656c2.041-1.247,3.8-2.264,5.357-3.086v17.645h-1.358l-.23-1.233-.529-2.849a3.588,3.588,0,0,0-3.532-2.94H406.48A3.588,3.588,0,0,0,403,190.806l-.9,3.177-.348,1.233-5.65-.731.7-4.8.111-.759,1.1-.731,2.16-4.96,2.006-.627Z" transform="translate(-298.525 -126.926)" fill="#931e27"/>
      <path id="Path_11563" data-name="Path 11563" d="M404.145,185.108l-2.654,4.5-2.57.738,2.16-4.96,2.006-.627A9.057,9.057,0,0,1,404.145,185.108Z" transform="translate(-299.38 -129.107)" fill="#fff" opacity="0.7" style="isolation: isolate"/>
      <path id="Path_11564" data-name="Path 11564" d="M419.7,179.3v2.689a22.131,22.131,0,0,1-4.138-.279S417.552,180.519,419.7,179.3Z" transform="translate(-304.428 -127.451)" opacity="0.4" style="isolation: isolate"/>
      <path id="Path_11565" data-name="Path 11565" d="M413.794,193.86v5.42h-1.358l-.23-1.233-.529-2.849a3.588,3.588,0,0,0-3.532-2.94H406.48A3.588,3.588,0,0,0,403,194.87l-.9,3.177-.348,1.233-5.65-.731.7-4.8,4.242-1.24.125.167.794,1.052s1.393-2.668,6.116-2.668C411.9,191.06,413.362,193.059,413.794,193.86Z" transform="translate(-298.525 -131.018)" opacity="0.2" style="isolation: isolate"/>
      <path id="Path_11566" data-name="Path 11566" d="M347.12,227.633h-20.2a3.288,3.288,0,0,1-3.288-3.3h0a3.288,3.288,0,0,1,3.288-3.288h20.2a3.288,3.288,0,0,1,3.288,3.288h0A3.3,3.3,0,0,1,347.12,227.633Z" transform="translate(-276.539 -140.117)" fill="#f89b0e"/>
      <rect id="Rectangle_2674" data-name="Rectangle 2674" width="109.613" height="12.678" transform="translate(5.657 19.916)" fill="#f89b0e"/>
      <path id="Path_11567" data-name="Path 11567" d="M341.453,111.117a1.546,1.546,0,1,1-1.547-1.546A1.546,1.546,0,0,1,341.453,111.117Z" transform="translate(-281.007 -106.296)" fill="#fff" opacity="0.6" style="isolation: isolate"/>
      <path id="Path_11568" data-name="Path 11568" d="M346.432,111.359a1,1,0,1,1-1-.989,1,1,0,0,1,1,.989Z" transform="translate(-282.852 -106.539)" fill="#fff" opacity="0.6" style="isolation: isolate"/>
      <path id="Path_11569" data-name="Path 11569" d="M293.89,193.668l3.393,4.521V189.14Z" transform="translate(-267.516 -130.436)" opacity="0.2" style="isolation: isolate"/>
      <path id="Path_11570" data-name="Path 11570" d="M390.283,193.668l-3.393-4.528v9.049Z" transform="translate(-295.73 -130.436)" opacity="0.2" style="isolation: isolate"/>
      <path id="Path_11571" data-name="Path 11571" d="M297.28,142.7l.293-.655a2.515,2.515,0,0,0,1.5.5c.7,0,1-.258,1-.592,0-.982-2.7-.341-2.7-2.027,0-.738.585-1.393,1.832-1.393a2.9,2.9,0,0,1,1.519.4l-.272.662a2.487,2.487,0,0,0-1.254-.362c-.7,0-.989.272-.989.62,0,.968,2.7.341,2.7,2.006,0,.731-.592,1.393-1.839,1.393A2.919,2.919,0,0,1,297.28,142.7Z" transform="translate(-268.544 -115.082)" fill="#fff"/>
      <path id="Path_11572" data-name="Path 11572" d="M307.12,142.512v.7H303.7V138.66h3.33v.7h-2.48v1.177h2.194v.7H304.55v1.261Z" transform="translate(-270.492 -115.121)" fill="#fff"/>
      <path id="Path_11573" data-name="Path 11573" d="M310,138.67h.843v3.838h2.382v.7H310Z" transform="translate(-272.404 -115.124)" fill="#fff"/>
      <path id="Path_11574" data-name="Path 11574" d="M318.97,142.512v.7h-3.42V138.66h3.33v.7H316.4v1.177h2.194v.7H316.4v1.261Z" transform="translate(-274.087 -115.121)" fill="#fff"/>
      <path id="Path_11575" data-name="Path 11575" d="M321.32,140.92a2.459,2.459,0,0,1,4.235-1.581l-.543.509a1.6,1.6,0,1,0,0,2.132l.543.522a2.459,2.459,0,0,1-4.235-1.581Z" transform="translate(-275.838 -115.096)" fill="#fff"/>
      <path id="Path_11576" data-name="Path 11576" d="M329.165,139.387h-1.5v-.7h3.859v.7h-1.533v3.838h-.85Z" transform="translate(-277.761 -115.13)" fill="#fff"/>
      <path id="Path_11577" data-name="Path 11577" d="M338.37,141.617v1.6h-.85v-1.588l-1.79-2.961h.885l1.338,2.215,1.344-2.215h.836Z" transform="translate(-280.21 -115.124)" fill="#fff"/>
      <path id="Path_11578" data-name="Path 11578" d="M342.119,140.824a2.452,2.452,0,1,1,2.452,2.341,2.334,2.334,0,0,1-2.452-2.341Zm4.054,0a1.6,1.6,0,1,0-1.6,1.6,1.553,1.553,0,0,0,1.6-1.6Z" transform="translate(-282.147 -115)" fill="#fff"/>
      <path id="Path_11579" data-name="Path 11579" d="M350.4,141.241V138.67h.843v2.536c0,.933.425,1.338,1.156,1.338s1.156-.4,1.156-1.338V138.67h.829v2.571a1.992,1.992,0,0,1-3.985,0Z" transform="translate(-284.66 -115.124)" fill="#fff"/>
      <path id="Path_11580" data-name="Path 11580" d="M360.792,143.216l-.933-1.331h-1.226v1.324h-.843V138.66h1.874c1.2,0,1.937.606,1.937,1.616a1.463,1.463,0,0,1-.968,1.442l1.045,1.491Zm-1.149-3.838h-1.01V141.2h.989c.745,0,1.129-.341,1.129-.913S360.388,139.378,359.643,139.378Z" transform="translate(-286.902 -115.121)" fill="#fff"/>
      <path id="Path_11581" data-name="Path 11581" d="M370.2,143.216l-.927-1.331H368.07v1.324h-.85V138.66h1.874c1.2,0,1.944.606,1.944,1.616a1.47,1.47,0,0,1-.975,1.442l1.052,1.491Zm-1.142-3.838h-.989V141.2h.989c.738,0,1.122-.341,1.122-.913S369.8,139.378,369.059,139.378Z" transform="translate(-289.763 -115.121)" fill="#fff"/>
      <path id="Path_11582" data-name="Path 11582" d="M374.05,138.67h.843v4.549h-.843Z" transform="translate(-291.835 -115.124)" fill="#fff"/>
      <path id="Path_11583" data-name="Path 11583" d="M377,138.665h1.992a2.285,2.285,0,1,1,0,4.549H377Zm1.951,3.838a1.567,1.567,0,1,0,0-3.128h-1.108V142.5Z" transform="translate(-292.73 -115.12)" fill="#fff"/>
      <path id="Path_11584" data-name="Path 11584" d="M388.16,142.512v.7h-3.42V138.66h3.33v.7h-2.452v1.177h2.194v.7h-2.194v1.261Z" transform="translate(-295.078 -115.121)" fill="#fff"/>
      <rect id="Rectangle_2675" data-name="Rectangle 2675" width="109.613" height="76.482" rx="5.04" transform="translate(5.657 96.879)" fill="#fff" opacity="0.4" style="isolation: isolate"/>
      <rect id="Rectangle_2676" data-name="Rectangle 2676" width="109.613" height="23.448" rx="2.19" transform="translate(5.657 175.262)" fill="#fff" opacity="0.4" style="isolation: isolate"/>
      <path id="Path_11585" data-name="Path 11585" d="M275.329,363.126v.864h1.393v.446h-1.393v1.094H274.8V362.68h2.09v.446Z" transform="translate(-261.724 -183.085)" fill="#263238"/>
      <path id="Path_11586" data-name="Path 11586" d="M280.387,365.526l-.585-.836h-.752v.829h-.529V362.67h1.17c.752,0,1.219.383,1.219,1.01a.919.919,0,0,1-.613.906l.662.933Zm-.7-2.4h-.62v1.17h.62c.467,0,.7-.209.7-.571s-.251-.6-.718-.6Z" transform="translate(-262.853 -183.082)" fill="#263238"/>
      <path id="Path_11587" data-name="Path 11587" d="M282.5,364.025a1.533,1.533,0,1,1,1.533,1.47,1.456,1.456,0,0,1-1.533-1.47Zm2.536,0a1,1,0,1,0-1,1,.975.975,0,0,0,1-1Z" transform="translate(-264.06 -183.009)" fill="#263238"/>
      <path id="Path_11588" data-name="Path 11588" d="M290.319,365.529v-1.888l-.94,1.56h-.237l-.933-1.54v1.867H287.7V362.68h.439l1.129,1.888,1.115-1.888h.432v2.849Z" transform="translate(-265.638 -183.085)" fill="#263238"/>
      <path id="Path_11589" data-name="Path 11589" d="M275.22,378.806h-.94v-.446H276.7v.446h-.947v2.4h-.529Z" transform="translate(-261.567 -187.842)" fill="#263238"/>
      <path id="Path_11590" data-name="Path 11590" d="M278,379.685a1.533,1.533,0,1,1,1.533,1.47,1.456,1.456,0,0,1-1.533-1.47Zm2.536,0a1,1,0,1,0-1,1,.975.975,0,0,0,.982-1Z" transform="translate(-262.695 -187.76)" fill="#263238"/>
      <path id="Path_11591" data-name="Path 11591" d="M371.917,359.61H300.3a3.8,3.8,0,0,0,0,7.586h71.619a3.8,3.8,0,0,0,0-7.586Z" transform="translate(-268.357 -182.153)" fill="#fff"/>
      <path id="Path_11592" data-name="Path 11592" d="M371.849,375.27H300.23a3.79,3.79,0,0,0,0,7.579h71.619a3.79,3.79,0,1,0,0-7.579Z" transform="translate(-268.29 -186.904)" fill="#fff"/>
      <path id="Path_11593" data-name="Path 11593" d="M373.76,269.29c-13.981,4.375-28.415,8.91-42.264,13.285l12.658,23.553,29.634,1V314.1l-33.9-1.149-15.151-28.241L306,290.655l13.619,29.773h-7.663l-12.651-27.642c-14.232,4.535-26.471,8.492-35.165,11.348V296.8c2.55-.836,5.4-1.769,8.52-2.786,6.618-2.146,14.552-4.7,23.727-7.621l-11.794-25.8-20.446,6.5v-7.308l17.527-5.573-4.7-10.268h7.663l18.412,40.327q10.888-3.483,23.783-7.53l14.915-4.7L328.828,243.94h7.663l11.968,25.984,25.28-7.935Z" transform="translate(-258.49 -147.061)" fill="#931e27"/>
      <path id="Path_11594" data-name="Path 11594" d="M373.763,247.483v69.453a3.483,3.483,0,0,1-3.483,3.518H267.668a3.483,3.483,0,0,1-3.518-3.518V247.483A3.483,3.483,0,0,1,267.668,244H370.252a3.483,3.483,0,0,1,3.511,3.483Z" transform="translate(-258.493 -147.079)" fill="#fff" opacity="0.4" style="isolation: isolate"/>
      <path id="Path_11595" data-name="Path 11595" d="M335.228,293.82a6.822,6.822,0,1,0-9.648,9.648l4.821,4.821,4.828-4.821A6.827,6.827,0,0,0,335.228,293.82Zm-2.41,7.238a3.413,3.413,0,1,1,0-4.828A3.413,3.413,0,0,1,332.818,301.058Z" transform="translate(-276.524 -161.588)" fill="#931e27"/>
    </g>
    <g id="freepik--Character--inject-36" transform="translate(65.406 162.53)">
      <rect id="Rectangle_2677" data-name="Rectangle 2677" width="5.078" height="53.117" transform="translate(90.79 91.613)" fill="#263238"/>
      <rect id="Rectangle_2678" data-name="Rectangle 2678" width="5.078" height="53.117" transform="translate(90.79 91.613)" opacity="0.2" style="isolation: isolate"/>
      <rect id="Rectangle_2679" data-name="Rectangle 2679" width="5.078" height="53.117" transform="translate(127.147 91.613)" fill="#263238"/>
      <rect id="Rectangle_2680" data-name="Rectangle 2680" width="5.078" height="53.117" transform="translate(127.147 91.613)" opacity="0.2" style="isolation: isolate"/>
      <rect id="Rectangle_2681" data-name="Rectangle 2681" width="5.078" height="53.117" transform="translate(42.313 91.613)" fill="#263238"/>
      <rect id="Rectangle_2682" data-name="Rectangle 2682" width="5.078" height="53.117" transform="translate(5.956 91.613)" fill="#263238"/>
      <path id="Path_11596" data-name="Path 11596" d="M236.523,337.549v3.929a1.142,1.142,0,0,1-1.142,1.149H95.039a1.149,1.149,0,0,1-1.149-1.149v-3.929a1.149,1.149,0,0,1,1.149-1.149H235.38a1.142,1.142,0,0,1,1.142,1.149Z" transform="translate(-93.89 -247.901)" fill="#263238"/>
      <path id="Path_11597" data-name="Path 11597" d="M236.523,337.549v3.929a1.142,1.142,0,0,1-1.142,1.149H95.039a1.149,1.149,0,0,1-1.149-1.149v-3.929a1.149,1.149,0,0,1,1.149-1.149H235.38a1.142,1.142,0,0,1,1.142,1.149Z" transform="translate(-93.89 -247.901)" fill="#fff" opacity="0.1" style="isolation: isolate"/>
      <path id="Path_11598" data-name="Path 11598" d="M133.507,337.549v3.929a1.142,1.142,0,0,1-1.142,1.149H95.039a1.149,1.149,0,0,1-1.149-1.149v-3.929a1.149,1.149,0,0,1,1.149-1.149h37.325a1.142,1.142,0,0,1,1.142,1.149Z" transform="translate(-93.89 -247.901)" fill="#fff" opacity="0.2" style="isolation: isolate"/>
      <g id="freepik--group--inject-36" transform="translate(31.513)">
        <path id="Path_11599" data-name="Path 11599" d="M205,250s2.605.529,2.6,1-1.017,4.242-1.484,4.7a8.4,8.4,0,0,1-1.574,1.017l.7,6.081-3.56.92-.049-6.479a4.184,4.184,0,0,1-.355-3.776C202.167,251.6,205,250,205,250Z" transform="translate(-157.881 -221.689)" fill="#ebb376"/>
        <path id="Path_11600" data-name="Path 11600" d="M205,250s2.605.529,2.6,1-1.017,4.242-1.484,4.7a8.4,8.4,0,0,1-1.574,1.017l.7,6.081-3.56.92-.049-6.479a4.184,4.184,0,0,1-.355-3.776C202.167,251.6,205,250,205,250Z" transform="translate(-157.881 -221.689)" opacity="0.2" style="isolation: isolate"/>
        <path id="Path_11601" data-name="Path 11601" d="M191.719,251c2.355,1.686,3.246,11,4.18,12.351s1.3-2.571,1.3-2.571l4.744-.23s.648,5.573-2.09,9.481-7.781,1.017-10.644-5.308S191.719,251,191.719,251Z" transform="translate(-154.065 -221.992)" fill="#931e27"/>
        <path id="Path_11602" data-name="Path 11602" d="M199.849,270.049A3.936,3.936,0,0,1,197.7,271.7c-2.745.787-6.27-2.09-8.485-6.966a10.059,10.059,0,0,1-.815-4.828,19.44,19.44,0,0,1,3.323-8.9c2.348,1.686,3.246,11,4.18,12.351s1.3-2.571,1.3-2.571l4.744-.23S202.587,266.106,199.849,270.049Z" transform="translate(-154.065 -221.995)" fill="#fff" opacity="0.2" style="isolation: isolate"/>
        <path id="Path_11603" data-name="Path 11603" d="M237.259,403.108l4.7-1.289-.843-11.459-4.688,1.289Z" transform="translate(-168.647 -264.272)" fill="#ebb376"/>
        <path id="Path_11604" data-name="Path 11604" d="M242.259,405.918l-5.455.376a.341.341,0,0,0-.334.355h0l.035,4.333a.857.857,0,0,0,.906.8c1.9-.167,2.786-.341,5.2-.522a44.348,44.348,0,0,0,6.381-.641c1.985-.46,1.477-2.41.592-2.4a13.439,13.439,0,0,1-6.472-2.09A1.316,1.316,0,0,0,242.259,405.918Z" transform="translate(-168.659 -268.99)" fill="#263238"/>
        <path id="Path_11605" data-name="Path 11605" d="M246.719,406.377a5.888,5.888,0,0,1-1.31-.084.112.112,0,0,1-.091-.077.16.16,0,0,1,.035-.125c.146-.118,1.463-1.149,2.09-.961a.425.425,0,0,1,.279.307.6.6,0,0,1-.091.641A1.31,1.31,0,0,1,246.719,406.377Zm.641-1.01c-.327-.1-1.1.362-1.644.759.878.111,1.519.042,1.735-.2a.418.418,0,0,0,.049-.4A.209.209,0,0,0,247.36,405.367Z" transform="translate(-171.343 -268.746)" fill="#931e27"/>
        <path id="Path_11606" data-name="Path 11606" d="M245.417,405.836h-.049a.154.154,0,0,1-.07-.091c0-.042-.209-1.442.244-1.951a.6.6,0,0,1,.474-.2.439.439,0,0,1,.432.314c.146.522-.509,1.588-.968,1.909Zm.536-1.978a.327.327,0,0,0-.237.118,2.459,2.459,0,0,0-.209,1.56,2.389,2.389,0,0,0,.7-1.526c0-.07-.063-.146-.223-.153Z" transform="translate(-171.323 -268.288)" fill="#931e27"/>
        <path id="Path_11607" data-name="Path 11607" d="M236.43,391.652l4.688-1.282.481,6.548-4.716,1.052Z" transform="translate(-168.647 -264.275)" opacity="0.2" style="isolation: isolate"/>
        <path id="Path_11608" data-name="Path 11608" d="M225.725,403.551l-4.437,2.02-1.129-4.758L218.64,394.4l4.424-2.027,1.519,6.409Z" transform="translate(-163.25 -264.881)" fill="#ebb376"/>
        <path id="Path_11609" data-name="Path 11609" d="M224.582,398.779l-4.424,2.034L218.64,394.4l4.424-2.027Z" transform="translate(-163.25 -264.881)" opacity="0.2" style="isolation: isolate"/>
        <path id="Path_11610" data-name="Path 11610" d="M226.628,407.465l-5.322,1.24a.348.348,0,0,0-.279.4h0l.7,4.277a.871.871,0,0,0,1.024.648c1.853-.467,2.71-.78,5.05-1.344a46.337,46.337,0,0,0,6.193-1.644c1.895-.773,1.08-2.626.209-2.466a13.333,13.333,0,0,1-6.722-1.038A1.393,1.393,0,0,0,226.628,407.465Z" transform="translate(-163.973 -269.451)" fill="#263238"/>
        <path id="Path_11611" data-name="Path 11611" d="M231.131,407.481a5.816,5.816,0,0,1-1.3.125.111.111,0,0,1-.1-.063.153.153,0,0,1,0-.125c.132-.139,1.261-1.393,1.895-1.282a.418.418,0,0,1,.327.258.606.606,0,0,1,0,.648A1.282,1.282,0,0,1,231.131,407.481Zm.474-1.1c-.341-.049-1.031.536-1.5,1.01.892,0,1.5-.2,1.679-.474a.411.411,0,0,0,0-.411.23.23,0,0,0-.16-.125Z" transform="translate(-166.609 -269.056)" fill="#931e27"/>
        <path id="Path_11612" data-name="Path 11612" d="M229.761,407.231a.049.049,0,0,1-.042,0,.16.16,0,0,1-.084-.07c0-.042-.439-1.393-.07-1.971a.585.585,0,0,1,.432-.265.425.425,0,0,1,.481.237,2.5,2.5,0,0,1-.655,2.041.063.063,0,0,1-.063.028Zm.216-2.034a.348.348,0,0,0-.216.153,2.549,2.549,0,0,0,.042,1.574,2.376,2.376,0,0,0,.474-1.623c0-.063-.084-.132-.244-.111Z" transform="translate(-166.52 -268.687)" fill="#931e27"/>
        <path id="Path_11613" data-name="Path 11613" d="M168.715,308.1l-1.435-15.834-26.471.62s-3.128,22.069-.85,26.123c4.061,7.238,30.721,3.128,36.956,3.748,2.55,1.358,16.175,46.513,16.175,46.513l7.628-3.079s-8.206-38.112-10.073-45.28C188.067,310.891,177.471,311.072,168.715,308.1Z" transform="translate(-139.127 -234.513)" fill="#931e27"/>
        <path id="Path_11614" data-name="Path 11614" d="M168.715,308.1l-1.435-15.834-26.471.62s-3.128,22.069-.85,26.123c4.061,7.238,30.721,3.128,36.956,3.748,2.55,1.358,16.175,46.513,16.175,46.513l7.628-3.079s-8.206-38.112-10.073-45.28C188.067,310.891,177.471,311.072,168.715,308.1Z" transform="translate(-139.127 -234.513)" fill="#fff" opacity="0.6" style="isolation: isolate"/>
        <path id="Path_11615" data-name="Path 11615" d="M216.148,369.863l-6.729.627s-8.262-42.027-8.9-42.2c-1.149-.327-4.493-.7-6.27-1.177-12.5-3.246-43.253-9.223-43.253-9.223L162.334,307s51.417,6.172,52.56,18.237C215.437,331.005,216.148,369.863,216.148,369.863Z" transform="translate(-142.729 -238.982)" fill="#931e27"/>
        <path id="Path_11616" data-name="Path 11616" d="M216.148,369.863l-6.729.627s-8.262-42.027-8.9-42.2c-1.149-.327-4.493-.7-6.27-1.177-12.5-3.246-43.253-9.223-43.253-9.223L162.334,307s51.417,6.172,52.56,18.237C215.437,331.005,216.148,369.863,216.148,369.863Z" transform="translate(-142.729 -238.982)" fill="#fff" opacity="0.6" style="isolation: isolate"/>
        <path id="Path_11617" data-name="Path 11617" d="M201.914,330.208c-1.149-.327-2.675-.731-4.472-1.205.5.265-.947-6.27-2.389-7.969-2.856-3.372-14.343-5.2-18.467-5.859-3.441-.55-15.005-1.574-15.005-1.574s20.411-1.762,35.792,2.459C204.972,318.15,203.621,325.611,201.914,330.208Z" transform="translate(-145.939 -240.874)" opacity="0.2" style="isolation: isolate"/>
        <path id="Path_11618" data-name="Path 11618" d="M168.238,280.641c1.546-8.875,4.18-20.752,8.965-31.863a56.207,56.207,0,0,0-7.8-2.647,104.965,104.965,0,0,0-11.843-2.48,53.066,53.066,0,0,0-8.283-.23s-5.963,11.146-8.986,37.22Z" transform="translate(-139.48 -219.672)" fill="#931e27"/>
        <path id="Path_11619" data-name="Path 11619" d="M199.443,249.007a.4.4,0,0,0,.341.509l4.493.634a.529.529,0,0,0,.571-.383l2.243-8.729a.453.453,0,0,0-.327-.571l-4.493-.627a.585.585,0,0,0-.585.446Z" transform="translate(-157.421 -218.607)" fill="#263238"/>
        <path id="Path_11620" data-name="Path 11620" d="M202.4,240.289l-2.271,8.812a.341.341,0,0,0,.293.474l3.81.536c.258.035.745-.042.808-.293l2.278-8.84c.063-.251-.348-.509-.6-.55l-3.811-.529a.474.474,0,0,0-.509.39Z" transform="translate(-157.626 -218.624)" fill="#fff" opacity="0.5"/>
        <path id="Path_11621" data-name="Path 11621" d="M164.6,248.737s-6.966-5.538-7.816-8.812,3.2-5.482,8.917-4.221,10.993,4.876,9.307,9.056-4.639,5.2-4.639,5.2S169.139,247.56,164.6,248.737Z" transform="translate(-144.449 -217.243)" fill="#931e27"/>
        <path id="Path_11622" data-name="Path 11622" d="M188.78,256.181l4.013-2.633s1.707-5.141,2.09-5.643,4.619.648,5.085.7-.773,5.294-1.337,5.747a6.06,6.06,0,0,1-2.41.516l-4.563,4.019Z" transform="translate(-154.191 -221.015)" fill="#ebb376"/>
        <path id="Path_11623" data-name="Path 11623" d="M164.6,248.737s-6.966-5.538-7.816-8.812,3.2-5.482,8.917-4.221,10.993,4.876,9.307,9.056-4.639,5.2-4.639,5.2S169.139,247.56,164.6,248.737Z" transform="translate(-144.449 -217.243)" fill="#fff" opacity="0.2" style="isolation: isolate"/>
        <path id="Path_11624" data-name="Path 11624" d="M171.457,229.49C170.405,233.3,167.9,240,164.31,241.1c0,0,2.64,4.319,6.6,4.681,2.515.23,3.908-2.605,3.908-2.605-2.564-.481-1.581-2.362.439-4.723Z" transform="translate(-146.767 -215.467)" fill="#ebb376"/>
        <path id="Path_11625" data-name="Path 11625" d="M175.535,234.74l2.243,5.308a12.163,12.163,0,0,0-1.289,1.749c-2.522.188-4.333-3.811-3.713-5.434C173,235.694,175.089,235.283,175.535,234.74Z" transform="translate(-149.299 -217.059)" opacity="0.2" style="isolation: isolate"/>
        <path id="Path_11626" data-name="Path 11626" d="M186.441,220.338c-2.4.989-1.944,3.615,2.041,8.4,2.459-2.09,3.79-6.931,2.5-8.478S188.538,219.475,186.441,220.338Z" transform="translate(-153.036 -212.396)" fill="#263238"/>
        <path id="Path_11627" data-name="Path 11627" d="M172.515,221.026c-.836,5.2-1.588,8.206.411,11.425,3,4.835,9.864,3.908,12.247-.94,2.125-4.361,3.142-12.135-1.393-15.326a7.2,7.2,0,0,0-11.236,4.821Z" transform="translate(-148.995 -211.037)" fill="#ebb376"/>
        <path id="Path_11628" data-name="Path 11628" d="M183.427,227.907c-.1.418.049.808.327.871s.564-.23.655-.648-.049-.8-.313-.864S183.545,227.5,183.427,227.907Z" transform="translate(-152.558 -214.79)" fill="#263238"/>
        <path id="Path_11629" data-name="Path 11629" d="M190.238,229.448c-.091.418.056.808.327.871s.571-.223.7-.648-.056-.808-.327-.864S190.329,229.037,190.238,229.448Z" transform="translate(-154.625 -215.257)" fill="#263238"/>
        <path id="Path_11630" data-name="Path 11630" d="M187.612,229.52a15.326,15.326,0,0,0,1.2,4.02,2.466,2.466,0,0,1-2.09-.077Z" transform="translate(-153.566 -215.476)" fill="#d58745"/>
        <path id="Path_11631" data-name="Path 11631" d="M181.964,225.169a.265.265,0,0,1-.146-.07.251.251,0,0,1,0-.355,2.473,2.473,0,0,1,2.229-.564.251.251,0,0,1,.174.293h0a.265.265,0,0,1-.313.167h0a1.971,1.971,0,0,0-1.748.46.258.258,0,0,1-.2.07Z" transform="translate(-152.056 -213.835)" fill="#263238"/>
        <path id="Path_11632" data-name="Path 11632" d="M193.221,227.229a.258.258,0,0,1-.2-.188,1.985,1.985,0,0,0-1.129-1.393.251.251,0,0,1,.167-.474,2.494,2.494,0,0,1,1.449,1.783.251.251,0,0,1-.181.3h-.111Z" transform="translate(-155.086 -214.153)" fill="#263238"/>
        <path id="Path_11633" data-name="Path 11633" d="M174.965,217.212c2.215,1.358,1.337,3.88-3.358,7.955-2.09-2.48-2.633-7.447-1.115-8.756S173.028,216.021,174.965,217.212Z" transform="translate(-148.38 -211.305)" fill="#263238"/>
        <path id="Path_11634" data-name="Path 11634" d="M168.051,227.708a4.988,4.988,0,0,0,1.665,3.441c1.324,1.156,2.738.153,3-1.484.237-1.477-.16-3.866-1.79-4.389a2.236,2.236,0,0,0-2.877,2.431Z" transform="translate(-147.896 -214.158)" fill="#ebb376"/>
        <path id="Path_11635" data-name="Path 11635" d="M171.422,214.18s-.467-2.041,3.2-3.978,9.592-.3,13.445,2.494-.836,6.27-2.71,6.367l.522-.648a13.807,13.807,0,0,1-5.872-1l1.191-.39S173.734,215.657,171.422,214.18Z" transform="translate(-148.919 -209.359)" fill="#263238"/>
        <path id="Path_11636" data-name="Path 11636" d="M183.966,236.1a12.847,12.847,0,0,0-.947,1.637,2.781,2.781,0,0,1-.32-.1c-1.442-.446-1.964-1.135-2.09-1.755a2.208,2.208,0,0,1,.237-1.393,7.12,7.12,0,0,0,2.647,1.47C183.778,236.05,183.966,236.1,183.966,236.1Z" transform="translate(-151.703 -216.984)" fill="#263238"/>
        <path id="Path_11637" data-name="Path 11637" d="M183.5,235.93l-.293.474a4.459,4.459,0,0,1-2.55-1.449,1.992,1.992,0,0,1,.2-.495,7.119,7.119,0,0,0,2.647,1.47Z" transform="translate(-151.727 -216.974)" fill="#fff"/>
        <path id="Path_11638" data-name="Path 11638" d="M182.71,238.235c-1.442-.446-1.964-1.135-2.09-1.755a4.877,4.877,0,0,1,1.5.815A1.8,1.8,0,0,1,182.71,238.235Z" transform="translate(-151.715 -217.587)" fill="#a24e3f"/>
        <path id="Path_11639" data-name="Path 11639" d="M178.917,270.1h0a.174.174,0,0,1-.167-.181,28.925,28.925,0,0,0-2.3-14.162.174.174,0,0,1,.07-.237.181.181,0,0,1,.237.077,29.647,29.647,0,0,1,2.341,14.343.174.174,0,0,1-.181.16Z" transform="translate(-150.444 -223.359)" fill="#fff"/>
        <path id="Path_11640" data-name="Path 11640" d="M164.785,266.426a.217.217,0,0,1-.091,0,.174.174,0,0,1-.056-.237c3.128-5.322,2.208-12.539,2.2-12.595a.167.167,0,0,1,.146-.2.174.174,0,0,1,.2.146c0,.077.947,7.4-2.243,12.818a.174.174,0,0,1-.153.063Z" transform="translate(-146.859 -222.72)" fill="#fff"/>
        <path id="Path_11641" data-name="Path 11641" d="M179.662,276s.557,0,.46.933l-.815-.077S179.216,276.125,179.662,276Z" transform="translate(-151.315 -229.577)" fill="#fff"/>
        <path id="Path_11642" data-name="Path 11642" d="M164.615,271.381s.46.313-.084,1.038l-.662-.488S164.177,271.235,164.615,271.381Z" transform="translate(-146.634 -228.17)" fill="#fff"/>
        <path id="Path_11643" data-name="Path 11643" d="M152.468,243.425c2.682.62,9.112,11.738,12.539,13.786s12.943-4.542,12.943-4.542l3.253,4.047s-7.7,6.792-14.434,6.966-16.287-9.363-17.708-12.86S149.215,242.672,152.468,243.425Z" transform="translate(-141.982 -219.67)" fill="#931e27"/>
        <path id="Path_11644" data-name="Path 11644" d="M152.468,243.425c2.682.62,9.112,11.738,12.539,13.786s12.943-4.542,12.943-4.542l3.253,4.047s-7.7,6.792-14.434,6.966-16.287-9.363-17.708-12.86S149.215,242.672,152.468,243.425Z" transform="translate(-141.982 -219.67)" fill="#fff" opacity="0.2" style="isolation: isolate"/>
      </g>
    </g>
    <g id="freepik--Backpack--inject-36" transform="translate(73.424 207.267)">
      <path id="Path_11645" data-name="Path 11645" d="M144.71,284.8s5.406,4.04,7.335,13.138,9.209,29.2-7.335,21.261l.432-1.881s5.273,4.5,7.2,1.47.926-19.289-6.841-27.927Z" transform="translate(-117.327 -276.984)" fill="#263238"/>
      <path id="Path_11646" data-name="Path 11646" d="M128.72,277.634s1.957-3.957,4.876-4.047,3.908.738,3.72,3.588l-1.3.091s1.324-2.382-1.818-2.48a4.18,4.18,0,0,0-4.04,2.849Z" transform="translate(-112.475 -273.581)" fill="#263238"/>
      <path id="Path_11647" data-name="Path 11647" d="M105.881,318.539s-2.543-15.737,4.075-20.508c0,0-1.052-3.3,4.277-14.148,2.208-4.5,4.082-5.74,5.942-5.824l12.9-.529a2.626,2.626,0,0,1,2.717,2.271c.906,6.729,3.093,26.235.063,38.739Z" transform="translate(-105.401 -274.778)" fill="#263238"/>
      <path id="Path_11648" data-name="Path 11648" d="M105.881,318.539s-2.543-15.737,4.075-20.508c0,0-1.052-3.3,4.277-14.148,2.208-4.5,4.082-5.74,5.942-5.824l12.9-.529a2.626,2.626,0,0,1,2.717,2.271c.906,6.729,3.093,26.235.063,38.739Z" transform="translate(-105.401 -274.778)" fill="#fff" opacity="0.1" style="isolation: isolate"/>
      <path id="Path_11649" data-name="Path 11649" d="M129.4,298.1a1.944,1.944,0,0,0,1.971-2.369c-.6-2.564-2.271-6.311-6.931-7.008-5.009-.752-8.171,3.776-9.641,6.618a1.553,1.553,0,0,0,1.331,2.271Z" transform="translate(-108.2 -278.15)" fill="#263238"/>
      <path id="Path_11650" data-name="Path 11650" d="M108.092,312.359c.327-1.135,17-.46,18.112,0s-.23,12.031-1.219,13.131-17.248.369-18.488,0S105.431,321.631,108.092,312.359Z" transform="translate(-105.508 -285.156)" fill="#263238"/>
      <path id="Path_11651" data-name="Path 11651" d="M129.4,298.1a1.944,1.944,0,0,0,1.971-2.369c-.6-2.564-2.271-6.311-6.931-7.008-5.009-.752-8.171,3.776-9.641,6.618a1.553,1.553,0,0,0,1.331,2.271Z" transform="translate(-108.2 -278.15)" fill="#fff" opacity="0.2" style="isolation: isolate"/>
      <path id="Path_11652" data-name="Path 11652" d="M108.092,312.359c.327-1.135,17-.46,18.112,0s-.23,12.031-1.219,13.131-17.248.369-18.488,0S105.431,321.631,108.092,312.359Z" transform="translate(-105.508 -285.156)" fill="#fff" opacity="0.2" style="isolation: isolate"/>
      <path id="Path_11653" data-name="Path 11653" d="M140.211,306.82h-.042a.348.348,0,0,1-.3-.39c.892-6.715-.529-23.044-.822-24.214a2.2,2.2,0,0,0-2.16-1.846c-1.435-.091-12.908,0-13.02,0h0a.355.355,0,0,1-.348-.348.348.348,0,0,1,.348-.348c.474,0,11.606-.091,13.069,0a2.919,2.919,0,0,1,2.786,2.375c.279,1.108,1.776,17.415.836,24.472A.348.348,0,0,1,140.211,306.82Z" transform="translate(-110.898 -275.417)" fill="#263238"/>
      <path id="Path_11654" data-name="Path 11654" d="M125.356,315.776h-.07c-4.013-.808-15.569-.362-15.688-.362a.348.348,0,1,1,0-.7c.474,0,11.752-.446,15.848.376a.355.355,0,0,1,.272.411A.348.348,0,0,1,125.356,315.776Z" transform="translate(-106.569 -286.024)" fill="#263238"/>
      <path id="Path_11655" data-name="Path 11655" d="M130.959,295.628a.341.341,0,0,1-.334-.244c-.766-2.348-2.675-6.27-6.869-5.914-4.3.348-6.144,5.023-6.165,5.071a.348.348,0,0,1-.648-.251c.084-.209,2.027-5.134,6.757-5.51s6.757,3.845,7.586,6.395a.348.348,0,0,1-.223.439Z" transform="translate(-108.898 -278.185)" fill="#263238"/>
    </g>
    <g id="freepik--trash-bin--inject-36" transform="translate(47.349 265.358)">
      <rect id="Rectangle_2683" data-name="Rectangle 2683" width="18.008" height="12.588" transform="translate(6.43 4.953)" fill="#263238"/>
      <path id="Path_11656" data-name="Path 11656" d="M68.89,360v39.8H93.738V360Zm22.139,11.759h-7.9v-4.793a2.006,2.006,0,0,1,2.006-2.006h3.887a2.006,2.006,0,0,1,2.006,2.006Z" transform="translate(-68.249 -357.889)" fill="#f89b0e"/>
      <path id="Path_11657" data-name="Path 11657" d="M68.89,360v39.8H93.738V360Zm22.139,11.759h-7.9v-4.793a2.006,2.006,0,0,1,2.006-2.006h3.887a2.006,2.006,0,0,1,2.006,2.006Z" transform="translate(-68.249 -357.889)" fill="#fff" opacity="0.6" style="isolation: isolate"/>
      <rect id="Rectangle_2684" data-name="Rectangle 2684" width="10.658" height="39.798" transform="translate(0.641 2.104)" fill="#fff" opacity="0.4" style="isolation: isolate"/>
      <rect id="Rectangle_2685" data-name="Rectangle 2685" width="26.074" height="3.845" transform="translate(0 0)" fill="#f89b0e"/>
      <rect id="Rectangle_2686" data-name="Rectangle 2686" width="12.031" height="3.845" transform="translate(0 0)" fill="#fff" opacity="0.2" style="isolation: isolate"/>
    </g>
  </g>
</svg>
